{
.formatVersion = 3;
DisplayStrings = (
kgKG,
"/q.1"
);
axes = (
{
name = Weight;
tag = wght;
}
);
classes = (
{
code = "a.1 b.1 c.1 d.1 e.1 f.1 g.1 h.1 i.1 j.1 k.1 l.1 m.1 n.1 o.1 p.1 q.1 r.1 s.1 t.1 u.1 v.1 w.1 x.1 y.1 z.1 a.1acute a.1grave a.1dieresis a.1circumflex a.1tilde e.1acute e.1grave e.1dieresis e.1circumflex i.1acute i.1grave i.1dieresis i.1circumflex o.1tilde o.1acute o.1grave o.1dieresis o.1circumflex u.1acute u.1grave u.1dieresis u.1circumflex n.1tilde diamond.smcp";
name = smcps;
},
{
code = "a b c d e f g h i j k l m n o p q r s t u v w x y z aacute agrave adieresis acircumflex atilde eacute egrave edieresis ecircumflex iacute igrave idieresis icircumflex otilde oacute ograve odieresis ocircumflex uacute ugrave udieresis ucircumflex ntilde diamond";
name = desmcps;
},
{
code = "a.rulo b.rulo c.rulo d.rulo e.rulo f.rulo h.rulo k.rulo l.rulo m.rulo n.rulo p.rulo r.rulo s.rulo t.rulo u.rulo v.rulo w.rulo y.rulo";
name = rulo;
},
{
code = "a b c d e f h k l m n p r s t u v w y";
name = derulo;
}
);
familyName = "Reina Neue Capitals";
customParameters = (
{
name = glyphOrder;
value = (
.notdef,
NULL,
CR,
space,
A,
B,
C,
D,
E,
F,
G,
H,
I,
J,
K,
L,
M,
N,
O,
P,
Q,
R,
S,
T,
U,
V,
W,
X,
Y,
Z,
period,
R.alt,
exclam,
question,
quotesingle,
quotedbl,
numbersign,
at,
dollar,
Euro,
percent,
ampersand,
parenleft,
parenright,
braceleft,
bar,
braceright,
bracketleft,
bracketright,
quoteleft,
quoteright,
quotedblleft,
quotedblright,
quotesinglbase,
quotedblbase,
bullet,
underscore,
endash,
emdash,
macron,
logicalnot,
trademark,
registered,
copyright,
currency,
cent,
sterling,
yen,
florin,
comma,
comma.swsh,
zero,
one,
two,
three,
four,
five,
six,
seven,
eight,
nine,
hyphen,
plus,
asterisk,
asciicircum,
tilde,
slash,
backslash,
colon,
semicolon,
less,
equal,
greater,
questiondown,
Ntilde,
degree,
ordfeminine,
ordmasculine,
onesuperior,
twosuperior,
threesuperior,
fraction,
onequarter,
onehalf,
threequarters,
perthousand,
mu,
paragraph,
section,
dagger,
daggerdbl,

glyphs = (
{
glyphname = A;
layers = (
{
background = {
shapes = (
{
closed = 1;
nodes = (
(338,251,o),
(386,203,o),
(446,203,cs),
(506,203,o),
(555,251,o),
(555,311,cs),
(555,371,o),
(506,420,o),
(446,420,cs),
(386,420,o),
(338,371,o),
(338,311,cs)
);
}
);
};
layerId = "656B38CD-A67B-4E9F-B73E-02DBA5E1D64F";
shapes = (
{
closed = 1;
nodes = (
(380,0,l),
(600,0,l),
(600,5,l),
(526,12,o),
(513,5,o),
(479,114,cs),
(303,676,l),
(168,676,l),
(168,671,l),
(279,662,o),
(279,668,o),
(293,624,cs),
(455,106,ls),
(484,12,o),
(471,12,o),
(380,5,c)
);
},
{
closed = 1;
nodes = (
(164,289,l),
(407,289,l),
(405,297,l),
(168,297,l)
);
},
{
closed = 1;
nodes = (
(-25,0,l),
(202,0,l),
(202,5,l),
(89,12,o),
(81,19,o),
(113,118,cs),
(284,654,l),
(279,666,l),
(108,127,ls),
(73,16,o),
(71,12,o),
(-25,5,c)
);
}
);
width = 575;
},
{
layerId = "7832CF62-1B68-483E-9BF5-FE7E7BF8962B";
shapes = (
{
closed = 1;
nodes = (
(317,0,l),
(717,0,l),
(717,8,l),
(690,8,o),
(655,28,o),
(625,114,cs),
(431,676,l),
(119,676,l),
(119,668,l),
(199,668,o),
(219,636,o),
(238,580,cs),
(391,129,ls),
(426,25,o),
(394,8,o),
(317,8,c)
);
},
{
closed = 1;
nodes = (
(149,301,l),
(374,301,l),
(370,311,l),
(153,311,l)
);
},
{
closed = 1;
nodes = (
(-60,0,l),
(247,0,l),
(247,8,l),
(89,8,o),
(115,193,o),
(149,292,cs),
(249,580,l),
(243,592,l),
(134,278,ls),
(112,211,o),
(36,8,o),
(-60,8,c)
);
}
);
width = 671;
}
);
leftKerningGroup = A;
rightKerningGroup = A;
unicode = 65;
},
{
glyphname = B;
layers = (
{
layerId = "656B38CD-A67B-4E9F-B73E-02DBA5E1D64F";
leftMetricsKey = h;
shapes = (
{
closed = 1;
nodes = (
(30,0,l),
(162,0,l),
(162,349,l),
(243,349,ls),
(373,349,o),
(456,433,o),
(456,522,cs),
(456,613,o),
(368,676,o),
(235,676,cs),
(30,676,l),
(30,671,l),
(110,664,o),
(137,672,o),
(137,614,cs),
(137,62,ls,{name = hr02;}),
(137,4,o),
(110,12,o),
(30,5,c)
);
},
{
closed = 1;
nodes = (
(162,357,l),
(162,668,l),
(226,668,ls),
(373,668,o),
(426,597,o),
(426,511,cs),
(426,445,o),
(392,357,o),
(238,357,cs)
);
},
{
closed = 1;
nodes = (
(134,8,l),
(131,0,l),
(276,0,ls),
(402,0,o),
(494,80,o),
(494,180,cs),
(494,277,o),
(407,348,o),
(271,355,cs),
(230,357,l),
(239,349,l),
(421,349,o),
(464,259,o),
(464,178,cs),
(464,88,o),
(400,8,o),
(253,8,cs)
);
}
);
width = 524;
},
{
layerId = "7832CF62-1B68-483E-9BF5-FE7E7BF8962B";
shapes = (
{
closed = 1;
nodes = (
(2,0,l),
(326,0,l),
(326,349,l),
(390,349,ls),
(568,349,o),
(670,432,o),
(670,523,cs),
(670,604,o),
(590,676,o),
(435,676,cs),
(2,676,l),
(2,668,l),
(82,668,o),
(109,639,o),
(109,581,cs),
(109,95,ls),
(109,37,o),
(82,8,o),
(2,8,c)
);
},
{
closed = 1;
nodes = (
(326,358,l),
(326,667,l),
(359,667,ls),
(426,667,o),
(455,595,o),
(455,519,cs),
(455,439,o),
(423,358,o),
(360,358,cs)
);
},
{
closed = 1;
nodes = (
(303,10,l),
(303,0,l),
(417,0,ls),
(618,0,o),
(689,89,o),
(689,177,cs),
(689,279,o),
(573,345,o),
(400,356,cs),
(370,358,l),
(338,349,l),
(439,349,o),
(468,272,o),
(468,189,cs),
(468,112,o),
(443,10,o),
(369,10,cs)
);
}
);
width = 689;
}
);
rightKerningGroup = O;
unicode = 66;
},
{
glyphname = C;
layers = (
{
background = {
shapes = (
{
closed = 0;
nodes = (
(376,-4,ls),
(372,-4,ls),
(168,-4,o),
(70,156,o),
(70,339,cs),
(70,521,o),
(168,680,o),
(372,680,cs),
(376,680,ls)
);
},
{
closed = 0;
nodes = (
(378,688,ls),
(370,688,ls),
(216,688,o),
(40,586,o),
(40,339,cs),
(40,91,o),
(216,-12,o),
(370,-12,cs),
(378,-12,ls)
);
},
{
closed = 0;
nodes = (
(376,-4,ls),
(372,-4,ls),
(168,-4,o),
(70,156,o),
(70,339,cs),
(70,521,o),
(168,680,o),
(372,680,cs),
(376,680,ls)
);
},
{
closed = 0;
nodes = (
(378,688,ls),
(370,688,ls),
(216,688,o),
(40,586,o),
(40,339,cs),
(40,91,o),
(216,-12,o),
(370,-12,cs),
(378,-12,ls)
);
}
);
};
layerId = "656B38CD-A67B-4E9F-B73E-02DBA5E1D64F";
leftMetricsKey = o;
shapes = (
{
closed = 1;
nodes = (
(586,91,l),
(544,32,o),
(452,-4,o),
(371,-4,cs),
(154,-4,o),
(70,179,o),
(70,341,cs),
(70,492,o),
(152,680,o),
(383,680,cs),
(480,680,o),
(575,643,o),
(579,542,c),
(583,542,l,{name = hr01;}),
(583,683,l),
(578,683,l),
(576,655,o),
(571,646,o),
(562,646,cs),
(545,646,o),
(476,688,o),
(383,688,cs),
(180,688,o),
(40,542,o),
(40,339,cs),
(40,125,o),
(188,-12,o),
(359,-12,cs),
(459,-12,o),
(542,26,o),
(586,79,c)
);
}
);
width = 637;
},
{
background = {
shapes = (
{
closed = 1;
nodes = (
(483,680,o),
(521,673,o),
(533,659,c),
(474,623,o),
(449,571,o),
(449,528,cs),
(449,471,o),
(492,423,o),
(555,423,cs),
(609,423,o),
(668,459,o),
(668,537,cs),
(668,640,o),
(565,692,o),
(435,692,cs),
(205,692,o),
(28,545,o),
(28,334,cs),
(28,152,o),
(163,-16,o),
(396,-16,cs),
(536,-16,o),
(631,51,o),
(659,149,c),
(659,154,o),
(660,158,o),
(656,158,c),
(625,70,o),
(578,36,o),
(488,36,cs),
(346,36,o),
(279,106,o),
(279,357,cs),
(279,610,o),
(347,679,o),
(451,680,c)
);
},
{
closed = 1;
nodes = (
(0,373,l),
(10,373,l),
(10,471,o),
(126,643,o),
(211,667,c),
(211,95,ls),
(211,37,o),
(184,8,o),
(104,8,c),
(104,0,l),
(535,0,l),
(535,8,l),
(455,8,o),
(428,37,o),
(428,95,cs),
(428,667,l),
(513,643,o),
(629,471,o),
(629,373,c),
(639,373,l),
(639,676,l),
(0,676,l)
);
}
);
};
layerId = "7832CF62-1B68-483E-9BF5-FE7E7BF8962B";
shapes = (
{
closed = 1;
nodes = (
(640,131,l),
(603,77,o),
(546,42,o),
(478,42,cs),
(365,42,o),
(260,139,o),
(260,387,cs),
(260,528,o),
(294,679,o),
(404,679,cs),
(520,679,o),
(600,512,o),
(630,373,c),
(639,373,l),
(639,687,l),
(630,687,l),
(630,668,o),
(622,654,o),
(598,654,cs),
(560,654,o),
(515,688,o),
(405,688,cs),
(197,688,o),
(15,568,o),
(15,339,cs),
(15,113,o),
(192,-17,o),
(381,-17,cs),
(506,-17,o),
(596,40,o),
(645,124,c)
);
}
);
width = 675;
}
);
leftKerningGroup = G;
unicode = 67;
},
{
glyphname = D;
layers = (
{
background = {
shapes = (
{
closed = 1;
nodes = (
(-238,338,o),
(-172,276,o),
(-82,276,cs),
(8,276,o),
(81,341,o),
(81,430,cs),
(81,496,o),
(39,566,o),
(-30,561,c),
(-28,540,o),
(-56,512,o),
(-86,512,cs),
(-109,512,o),
(-135,532,o),
(-135,571,cs),
(-135,647,o),
(-53,697,o),
(65,697,cs),
(108,697,l),
(108,134,ls),
(108,97,o),
(113,9,o),
(2,9,cs),
(-10,9,o),
(-11,0,o),
(2,0,cs),
(363,0,ls),
(559,0,o),
(741,103,o),
(741,369,cs),
(741,574,o),
(585,706,o),
(386,706,cs),
(39,706,ls),
(-96,706,o),
(-238,580,o),
(-238,448,cs)
);
},
{
closed = 1;
nodes = (
(322,697,l),
(380,697,ls),
(458,697,o),
(515,667,o),
(515,542,cs),
(515,205,ls),
(515,44,o),
(439,10,o),
(366,10,cs),
(229,10,ls),
(218,10,o),
(220,21,o),
(229,21,cs),
(315,21,o),
(322,106,o),
(322,149,c)
);
},
{
closed = 1;
nodes = (
(348,667,l),
(359,667,ls),
(433,667,o),
(465,595,o),
(465,519,cs),
(465,439,o),
(429,358,o),
(360,357,c),
(360,349,l),
(390,349,ls),
(568,349,o),
(670,432,o),
(670,523,cs),
(670,604,o),
(590,676,o),
(435,676,cs),
(348,676,l)
);
},
{
closed = 1;
nodes = (
(357,0,l),
(445,0,ls),
(614,0,o),
(705,89,o),
(705,180,cs),
(705,279,o),
(599,357,o),
(400,357,cs),
(370,357,l),
(370,349,l),
(449,347,o),
(490,272,o),
(490,184,cs),
(490,100,o),
(452,10,o),
(369,10,cs),
(303,10,l)
);
}
);
};
layerId = "656B38CD-A67B-4E9F-B73E-02DBA5E1D64F";
leftMetricsKey = h;
shapes = (
{
closed = 1;
nodes = (
(30,0,l),
(330,0,ls),
(467,0,o),
(643,117,o),
(643,349,cs),
(643,581,o),
(467,676,o),
(329,676,cs),
(30,676,l),
(30,671,l),
(110,664,o),
(137,672,o),
(137,614,cs),
(137,62,ls),
(137,4,o),
(110,12,o),
(30,5,c)
);
},
{
closed = 1;
nodes = (
(162,8,l),
(162,668,l),
(325,668,ls),
(513,668,o),
(613,519,o),
(613,349,cs),
(613,186,o),
(513,8,o),
(324,8,cs)
);
}
);
width = 663;
},
{
layerId = "7832CF62-1B68-483E-9BF5-FE7E7BF8962B";
shapes = (
{
closed = 1;
nodes = (
(2,0,l),
(382,0,ls),
(555,0,o),
(755,117,o),
(755,349,cs),
(755,581,o),
(553,676,o),
(381,676,cs),
(2,676,l),
(2,668,l),
(82,668,o),
(109,639,o),
(109,581,cs),
(109,95,ls),
(109,37,o),
(82,8,o),
(2,8,c)
);
},
{
closed = 1;
nodes = (
(326,8,l),
(326,668,l),
(377,668,ls),
(495,668,o),
(522,519,o),
(522,349,cs),
(522,186,o),
(495,8,o),
(376,8,cs)
);
}
);
width = 770;
}
);
rightKerningGroup = O;
unicode = 68;
},
{
glyphname = E;
layers = (
{
background = {
shapes = (
{
closed = 1;
nodes = (
(581,0,ls),
(625,0,o),
(658,22,o),
(658,82,cs),
(658,303,ls),
(658,319,o),
(646,320,o),
(646,303,cs),
(646,168,o),
(576,10,o),
(388,10,cs),
(240,10,ls),
(228,10,o),
(229,21,o),
(240,21,cs),
(326,21,o),
(334,106,o),
(334,149,cs),
(334,365,l),
(359,365,ls),
(422,365,o),
(492,331,o),
(492,265,cs),
(492,247,ls),
(492,238,o),
(502,238,o),
(502,247,cs),
(502,499,ls),
(502,508,o),
(492,508,o),
(492,499,cs),
(492,479,ls),
(492,409,o),
(422,376,o),
(358,376,cs),
(334,376,l),
(334,697,l),
(425,697,ls),
(583,697,o),
(614,561,o),
(614,493,cs),
(614,476,o),
(626,477,o),
(626,493,c),
(626,493,o),
(628,608,o),
(628,661,cs),
(628,697,o),
(606,706,o),
(562,706,cs),
(64,706,ls),
(-115,706,o),
(-238,580,o),
(-238,448,cs),
(-238,338,o),
(-172,276,o),
(-82,276,cs),
(8,276,o),
(81,341,o),
(81,430,cs),
(81,496,o),
(39,566,o),
(-30,561,c),
(-28,540,o),
(-56,512,o),
(-86,512,cs),
(-109,512,o),
(-135,532,o),
(-135,571,cs),
(-135,645,o),
(-58,697,o),
(56,697,cs),
(119,697,l),
(119,134,ls),
(119,97,o),
(123,9,o),
(12,9,cs),
(0,9,o),
(-1,0,o),
(12,0,c)
);
},
{
closed = 1;
nodes = (
(341,667,ls),
(499,667,o),
(602,507,o),
(602,408,c),
(616,625,o),
(529,670,o),
(326,667,c)
);
},
{
closed = 1;
nodes = (
(632,157,l),
(595,24,o),
(466,3,o),
(426,0,c),
(632,0,l)
);
}
);
};
layerId = "656B38CD-A67B-4E9F-B73E-02DBA5E1D64F";
leftMetricsKey = h;
shapes = (
{
closed = 1;
nodes = (
(30,0,l),
(482,0,l),
(482,149,l),
(477,149,l),
(471,16,o),
(473,8,o),
(315,8,cs),
(162,8,l),
(162,330,l),
(302,330,ls),
(345,330,o),
(345,279,o),
(348,228,c),
(354,228,l),
(354,440,l),
(348,440,l),
(345,389,o),
(345,338,o),
(302,338,cs),
(162,338,l),
(162,668,l),
(319,668,ls),
(462,668,o),
(449,643,o),
(457,528,c),
(462,528,l),
(462,676,l),
(30,676,l),
(30,671,l),
(110,664,o),
(137,672,o),
(137,614,cs),
(137,62,ls),
(137,4,o),
(110,12,o),
(30,5,c)
);
}
);
width = 522;
},
{
anchors = (
{
name = top;
position = "{352, 751}";
}
);
layerId = "7832CF62-1B68-483E-9BF5-FE7E7BF8962B";
shapes = (
{
closed = 1;
nodes = (
(2,0,l),
(632,0,l),
(632,272,l),
(622,272,l),
(622,173,o),
(499,9,o),
(341,9,cs),
(326,9,l),
(326,328,l),
(341,328,ls),
(422,328,o),
(508,276,o),
(508,210,c),
(518,210,l),
(518,462,l),
(508,462,l),
(508,392,o),
(423,339,o),
(341,339,cs),
(326,339,l),
(326,667,l),
(341,667,ls),
(499,667,o),
(602,507,o),
(602,408,c),
(612,408,l),
(612,676,l),
(2,676,l),
(2,668,l),
(82,668,o),
(109,639,o),
(109,581,cs),
(109,95,ls),
(109,37,o),
(82,8,o),
(2,8,c)
);
}
);
width = 664;
}
);
unicode = 69;
},
{
glyphname = F;
layers = (
{
background = {
shapes = (
{
closed = 1;
nodes = (
(162,667,l),
(229,667,ls),
(387,667,o),
(490,505,o),
(490,406,c),
(500,406,l),
(500,676,l),
(30,676,l),
(30,668,l),
(110,668,o),
(137,672,o),
(137,614,cs),
(137,62,ls),
(137,4,o),
(110,8,o),
(30,8,c),
(30,0,l),
(269,0,l),
(269,8,l),
(189,8,o),
(162,4,o),
(162,62,cs)
);
}
);
};
layerId = "656B38CD-A67B-4E9F-B73E-02DBA5E1D64F";
leftMetricsKey = h;
shapes = (
{
closed = 1;
nodes = (
(30,0,l),
(269,0,l),
(269,5,l),
(189,12,o),
(162,4,o),
(162,62,cs),
(162,668,l),
(319,668,ls),
(462,668,o),
(449,643,o),
(457,528,c),
(462,528,l),
(462,676,l),
(30,676,l),
(30,671,l),
(110,664,o),
(137,672,o),
(137,614,cs),
(137,62,ls),
(137,4,o),
(110,12,o),
(30,5,c)
);
},
{
closed = 1;
nodes = (
(159,329,l),
(299,329,ls),
(340,329,o),
(342,283,o),
(345,235,c),
(345,227,l),
(351,227,l),
(351,439,l),
(345,439,l),
(345,431,l),
(342,382,o),
(340,337,o),
(299,337,cs),
(159,337,l)
);
}
);
width = 520;
},
{
background = {
shapes = (
{
closed = 1;
nodes = (
(344,376,l),
(328,376,l),
(328,697,l),
(347,697,l),
(347,706,l),
(62,706,ls),
(-116,706,o),
(-238,579,o),
(-238,448,cs),
(-238,338,o),
(-172,276,o),
(-82,276,cs),
(8,276,o),
(81,341,o),
(81,430,cs),
(81,496,o),
(39,566,o),
(-30,561,c),
(-28,540,o),
(-56,512,o),
(-86,512,cs),
(-109,512,o),
(-135,532,o),
(-135,571,cs),
(-135,646,o),
(-55,696,o),
(62,697,c),
(113,697,l),
(113,134,ls),
(113,97,o),
(117,9,o),
(6,9,cs),
(-6,9,o),
(-6,0,o),
(7,0,cs),
(394,0,ls),
(403,0,o),
(403,10,o),
(394,10,cs),
(231,10,ls),
(218,10,o),
(220,21,o),
(234,21,cs),
(320,21,o),
(328,106,o),
(328,149,cs),
(328,365,l),
(344,365,l)
);
},
{
closed = 1;
nodes = (
(326,667,l),
(341,667,ls),
(499,667,o),
(602,507,o),
(602,408,c),
(612,408,l),
(612,617,o),
(529,676,o),
(326,676,c)
);
}
);
};
layerId = "7832CF62-1B68-483E-9BF5-FE7E7BF8962B";
shapes = (
{
closed = 1;
nodes = (
(2,0,l),
(433,0,l),
(433,8,l),
(353,8,o),
(326,37,o),
(326,95,cs),
(326,667,l),
(341,667,ls),
(499,667,o),
(602,505,o),
(602,406,c),
(612,406,l),
(612,676,l),
(2,676,l),
(2,668,l),
(82,668,o),
(109,639,o),
(109,581,cs),
(109,95,ls),
(109,37,o),
(82,8,o),
(2,8,c)
);
},
{
closed = 1;
nodes = (
(323,287,l),
(341,287,ls),
(422,287,o),
(508,242,o),
(508,176,cs),
(508,169,l),
(518,169,l),
(518,421,l),
(508,421,l),
(508,413,ls),
(508,343,o),
(423,298,o),
(341,298,cs),
(323,298,l)
);
}
);
width = 659;
}
);
unicode = 70;
},
{
glyphname = G;
layers = (
{
background = {
shapes = (
{
closed = 1;
nodes = (
(775,584,o),
(577,685,o),
(408,685,cs),
(387,685,ls),
(218,685,o),
(20,584,o),
(20,338,cs),
(20,91,o),
(218,-9,o),
(387,-9,cs),
(408,-9,ls),
(577,-9,o),
(775,91,o),
(775,338,cs)
);
},
{
closed = 1;
nodes = (
(542,156,o),
(516,0,o),
(404,0,cs),
(391,0,ls),
(279,0,o),
(253,156,o),
(253,338,cs),
(253,519,o),
(279,676,o),
(391,676,cs),
(404,676,ls),
(516,676,o),
(542,519,o),
(542,338,cs)
);
},
{
closed = 1;
nodes = (
(714,159,l),
(714,245,ls),
(714,303,o),
(741,332,o),
(821,332,c),
(821,340,l),
(390,340,l),
(390,332,l),
(470,332,o),
(497,303,o),
(497,245,cs),
(497,159,l)
);
}
);
};
layerId = "01C08534-D445-49A6-949A-C4861B4FF32A";
name = img;
width = 775;
},
{
layerId = "656B38CD-A67B-4E9F-B73E-02DBA5E1D64F";
leftMetricsKey = o;
shapes = (
{
closed = 1;
nodes = (
(465,234,l),
(538,227,o),
(562,235,o),
(562,177,cs),
(562,90,ls),
(562,31,o),
(460,-1,o),
(378,-1,cs),
(156,-1,o),
(70,180,o),
(70,341,cs),
(70,492,o),
(152,680,o),
(383,680,cs),
(486,680,o),
(578,643,o),
(582,542,c),
(586,542,l,{name = hr01;}),
(586,683,l),
(581,683,l),
(579,655,o),
(574,646,o),
(565,646,cs),
(537,646,o),
(484,688,o),
(383,688,cs),
(180,688,o),
(40,542,o),
(40,339,cs),
(40,125,o),
(188,-12,o),
(359,-12,cs),
(508,-12,o),
(535,44,o),
(563,44,cs),
(573,44,o),
(581,34,o),
(582,-5,c),
(587,-5,l),
(587,177,ls),
(587,235,o),
(611,227,o),
(684,234,c),
(684,239,l),
(465,239,l)
);
}
);
width = 695;
},
{
layerId = "7832CF62-1B68-483E-9BF5-FE7E7BF8962B";
shapes = (
{
closed = 1;
nodes = (
(401,330,l),
(469,330,o),
(493,301,o),
(493,243,cs),
(493,90,ls),
(493,31,o),
(489,3,o),
(430,3,cs),
(324,3,o),
(266,101,o),
(266,344,cs),
(266,592,o),
(316,679,o),
(411,679,cs),
(510,679,o),
(642,500,o),
(659,403,c),
(668,403,l),
(668,693,l),
(659,693,l),
(659,682,o),
(651,661,o),
(622,661,cs),
(589,661,o),
(515,688,o),
(417,688,cs),
(172,688,o),
(15,537,o),
(15,326,cs),
(15,143,o),
(146,-12,o),
(363,-12,cs),
(519,-12,o),
(583,48,o),
(644,48,cs),
(692,48,o),
(696,21,o),
(696,-5,c),
(704,-5,l),
(704,243,ls),
(704,301,o),
(727,330,o),
(791,330,c),
(791,338,l),
(401,338,l)
);
}
);
width = 775;
}
);
leftKerningGroup = G;
unicode = 71;
},
{
glyphname = H;
layers = (
{
background = {
};
layerId = "656B38CD-A67B-4E9F-B73E-02DBA5E1D64F";
shapes = (
{
closed = 1;
nodes = (
(476,0,l),
(715,0,l),
(715,5,l),
(635,12,o),
(608,4,o),
(608,62,cs),
(608,614,ls),
(608,672,o),
(635,664,o),
(715,671,c),
(715,676,l),
(476,676,l),
(476,671,l),
(556,664,o),
(583,672,o),
(583,614,cs),
(583,62,ls),
(583,4,o),
(556,12,o),
(476,5,c)
);
},
{
closed = 1;
nodes = (
(151,321,l),
(594,321,l),
(594,329,l),
(151,329,l)
);
},
{
closed = 1;
nodes = (
(30,0,l),
(269,0,l),
(269,5,l),
(189,12,o),
(162,4,o),
(162,62,cs),
(162,614,ls),
(162,672,o),
(189,664,o),
(269,671,c),
(269,676,l),
(30,676,l),
(30,671,l),
(110,664,o),
(137,672,o),
(137,614,cs),
(137,62,ls),
(137,4,o),
(110,12,o),
(30,5,c)
);
}
);
width = 745;
},
{
layerId = "7832CF62-1B68-483E-9BF5-FE7E7BF8962B";
shapes = (
{
closed = 1;
nodes = (
(454,0,l),
(870,0,l),
(870,8,l),
(790,8,o),
(763,37,o),
(763,95,cs),
(763,581,ls),
(763,639,o),
(790,668,o),
(870,668,c),
(870,676,l),
(454,676,l),
(454,668,l),
(522,668,o),
(546,639,o),
(546,581,cs),
(546,95,ls),
(546,37,o),
(522,8,o),
(454,8,c)
);
},
{
closed = 1;
nodes = (
(315,321,l),
(589,321,l),
(589,332,l),
(315,332,l)
);
},
{
closed = 1;
nodes = (
(2,0,l),
(418,0,l),
(418,8,l),
(350,8,o),
(326,37,o),
(326,95,cs),
(326,581,ls),
(326,639,o),
(350,668,o),
(418,668,c),
(418,676,l),
(2,676,l),
(2,668,l),
(82,668,o),
(109,639,o),
(109,581,cs),
(109,95,ls),
(109,37,o),
(82,8,o),
(2,8,c)
);
}
);
width = 872;
}
);
unicode = 72;
},
{
glyphname = I;
layers = (
{
layerId = "656B38CD-A67B-4E9F-B73E-02DBA5E1D64F";
leftMetricsKey = h;
rightMetricsKey = h;
shapes = (
{
closed = 1;
nodes = (
(30,0,l),
(269,0,l),
(269,5,l),
(189,12,o),
(162,4,o),
(162,62,cs),
(162,614,ls),
(162,672,o),
(189,664,o),
(269,671,c),
(269,676,l),
(30,676,l),
(30,671,l),
(110,664,o),
(137,672,o),
(137,614,cs),
(137,62,ls),
(137,4,o),
(110,12,o),
(30,5,c)
);
}
);
width = 299;
},
{
layerId = "7832CF62-1B68-483E-9BF5-FE7E7BF8962B";
shapes = (
{
closed = 1;
nodes = (
(2,0,l),
(433,0,l),
(433,8,l),
(353,8,o),
(326,37,o),
(326,95,cs),
(326,581,ls),
(326,639,o),
(353,668,o),
(433,668,c),
(433,676,l),
(2,676,l),
(2,668,l),
(82,668,o),
(109,639,o),
(109,581,cs),
(109,95,ls),
(109,37,o),
(82,8,o),
(2,8,c)
);
}
);
width = 435;
}
);
unicode = 73;
},
{
glyphname = J;
layers = (
{
background = {
shapes = (
{
closed = 1;
nodes = (
(274,375,l),
(274,95,ls),
(274,37,o),
(247,8,o),
(167,8,c),
(167,0,l),
(598,0,l),
(598,8,l),
(518,8,o),
(491,37,o),
(491,95,cs),
(491,375,l)
);
},
{
closed = 0;
nodes = (
(99,-67,l),
(175,-67,o),
(213,-12,o),
(213,41,cs),
(213,92,o),
(179,142,o),
(109,142,c)
);
}
);
};
layerId = "656B38CD-A67B-4E9F-B73E-02DBA5E1D64F";
rightMetricsKey = h;
shapes = (
{
closed = 1;
nodes = (
(89,671,l),
(169,664,o),
(196,672,o),
(196,614,cs),
(196,95,ls),
(196,49,o),
(187,-7,o),
(108,-7,cs),
(86,-7,o),
(66,5,o),
(63,18,c),
(75,20,o),
(81,30,o),
(81,41,cs),
(81,53,o),
(72,63,o),
(56,63,cs),
(40,63,o),
(31,52,o),
(31,38,cs),
(31,11,o),
(54,-12,o),
(108,-12,cs),
(205,-12,o),
(221,65,o),
(221,170,cs),
(221,614,ls),
(221,672,o),
(248,664,o),
(328,671,c),
(328,676,l),
(89,676,l)
);
}
);
width = 358;
},
{
layerId = "7832CF62-1B68-483E-9BF5-FE7E7BF8962B";
shapes = (
{
closed = 1;
nodes = (
(146,668,l),
(226,668,o),
(274,636,o),
(274,563,cs),
(274,102,ls),
(274,56,o),
(262,-1,o),
(200,-1,cs),
(169,-1,o),
(157,12,o),
(155,19,c),
(194,35,o),
(213,72,o),
(213,108,cs),
(213,158,o),
(179,209,o),
(106,209,cs),
(41,209,o),
(5,168,o),
(5,108,cs),
(5,47,o),
(47,-12,o),
(207,-12,cs),
(447,-12,o),
(493,122,o),
(493,263,cs),
(493,589,l),
(495,642,o),
(524,668,o),
(600,668,c),
(600,676,l),
(146,676,l)
);
}
);
width = 598;
}
);
unicode = 74;
},
{
glyphname = K;
layers = (
{
background = {
shapes = (
{
closed = 1;
nodes = (
(516,0,l),
(889,0,l),
(889,8,l),
(848,8,o),
(814,30,o),
(788,75,cs),
(556,481,l),
(405,319,l),
(534,74,ls),
(546,51,o),
(557,8,o),
(516,8,c)
);
}
);
};
layerId = "656B38CD-A67B-4E9F-B73E-02DBA5E1D64F";
leftMetricsKey = h;
shapes = (
{
closed = 1;
nodes = (
(30,0,l),
(269,0,l),
(269,5,l),
(189,12,o),
(162,4,o),
(162,62,cs),
(162,614,ls),
(162,672,o),
(190,664,o),
(269,671,c),
(269,676,l),
(30,676,l),
(30,671,l),
(110,664,o),
(137,672,o),
(137,614,cs),
(137,62,ls),
(137,4,o),
(110,12,o),
(30,5,c)
);
},
{
closed = 1;
nodes = (
(299,398,l),
(281,381,l),
(483,75,ls),
(528,7,o),
(492,14,o),
(398,5,c),
(398,0,l),
(674,0,l),
(674,5,l),
(604,12,o),
(565,-2,o),
(508,83,cs)
);
},
{
closed = 1;
nodes = (
(154,225,l),
(438,564,ls),
(514,655,o),
(539,664,o),
(630,671,c),
(630,676,l),
(402,676,l),
(402,671,l),
(492,664,o),
(524,679,o),
(433,570,cs),
(148,230,l)
);
}
);
width = 664;
},
{
background = {
shapes = (
{
closed = 1;
nodes = (
(386,300,l),
(506,74,ls),
(518,52,o),
(529,8,o),
(488,8,c),
(488,0,l),
(861,0,ls),
(871,0,o),
(871,10,o),
(861,10,cs),
(820,10,o),
(787,31,o),
(760,75,cs),
(517,468,l)
);
},
{
closed = 1;
nodes = (
(-206,368,o),
(-146,314,o),
(-68,314,cs),
(9,314,o),
(46,369,o),
(46,422,cs),
(46,492,o),
(-10,522,o),
(-66,522,cs),
(-95,522,o),
(-125,514,o),
(-147,499,c),
(-147,574,o),
(-95,665,o),
(32,665,cs),
(72,665,o),
(109,642,o),
(109,589,cs),
(109,95,ls),
(109,37,o),
(82,8,o),
(2,8,c),
(2,0,l),
(433,0,l),
(433,8,l),
(353,8,o),
(326,37,o),
(326,95,cs),
(326,589,ls),
(326,642,o),
(357,668,o),
(433,668,c),
(433,676,l),
(63,676,ls),
(-109,676,o),
(-206,565,o),
(-206,459,cs)
);
},
{
closed = 1;
nodes = (
(791,676,l),
(508,676,l),
(508,667,l),
(539,667,ls),
(635,667,o),
(558,520,o),
(519,476,c),
(306,212,l),
(305,198,l),
(538,487,l),
(592,548,o),
(711,667,o),
(791,667,c)
);
}
);
};
layerId = "7832CF62-1B68-483E-9BF5-FE7E7BF8962B";
shapes = (
{
closed = 1;
nodes = (
(2,0,l),
(433,0,l),
(433,8,l),
(353,8,o),
(326,37,o),
(326,95,cs),
(326,589,ls),
(326,642,o),
(357,668,o),
(433,668,c),
(433,676,l),
(2,676,l),
(2,668,l),
(82,668,o),
(109,639,o),
(109,581,cs),
(109,95,ls),
(109,37,o),
(82,8,o),
(2,8,c)
);
},
{
closed = 1;
nodes = (
(528,481,l),
(377,319,l),
(506,74,ls),
(518,51,o),
(529,8,o),
(488,8,c),
(488,0,l),
(861,0,l),
(861,8,l),
(820,8,o),
(787,31,o),
(760,75,c)
);
},
{
closed = 1;
nodes = (
(326,260,l),
(538,487,ls),
(594,547,o),
(723,668,o),
(803,668,c),
(803,676,l),
(508,676,l),
(508,668,l),
(622,668,o),
(539,502,o),
(491,451,cs),
(326,274,l)
);
}
);
width = 801;
}
);
unicode = 75;
},
{
glyphname = L;
layers = (
{
background = {
shapes = (
{
closed = 1;
nodes = (
(618,197,l),
(594,16,o),
(454,6,o),
(397,0,c),
(618,0,l)
);
}
);
};
layerId = "656B38CD-A67B-4E9F-B73E-02DBA5E1D64F";
shapes = (
{
closed = 1;
nodes = (
(30,0,l),
(262,0,l),
(162,5,l),
(162,614,ls),
(162,672,o),
(189,664,o),
(269,671,c),
(269,676,l),
(30,676,l),
(30,671,l),
(110,664,o),
(137,672,o),
(137,614,cs),
(137,62,ls),
(137,4,o),
(110,8,o),
(30,5,c)
);
},
{
closed = 1;
nodes = (
(133,8,l),
(163,0,l),
(463,0,l),
(463,193,l),
(458,193,l),
(448,17,o),
(464,8,o),
(291,8,cs)
);
}
);
width = 493;
},
{
layerId = "7832CF62-1B68-483E-9BF5-FE7E7BF8962B";
shapes = (
{
closed = 1;
nodes = (
(2,0,l),
(433,0,l),
(326,8,l),
(326,581,ls),
(326,639,o),
(353,668,o),
(433,668,c),
(433,676,l),
(2,676,l),
(2,668,l),
(82,668,o),
(109,639,o),
(109,581,cs),
(109,95,ls),
(109,37,o),
(82,8,o),
(2,8,c)
);
},
{
closed = 1;
nodes = (
(289,9,l),
(311,0,l),
(618,0,l),
(618,308,l),
(608,308,l),
(608,209,o),
(488,9,o),
(330,9,cs)
);
}
);
width = 643;
}
);
rightKerningGroup = L;
unicode = 76;
},
{
glyphname = M;
layers = (
{
background = {
shapes = (
{
closed = 1;
nodes = (
(99,661,l),
(119,656,o),
(137,649,o),
(148,638,c),
(148,133,ls),
(148,65,o),
(126,10,o),
(56,10,cs),
(0,10,ls),
(-9,10,o),
(-9,0,o),
(0,0,cs),
(304,0,ls),
(313,0,o),
(313,10,o),
(304,10,cs),
(248,10,ls),
(173,10,o),
(158,65,o),
(158,133,cs),
(158,627,l),
(181,601,o),
(196,564,o),
(211,530,c),
(296,326,o),
(442,-26,o),
(442,-26,c),
(452,-26,l),
(673,563,ls),
(683,591,o),
(692,615,o),
(702,633,c),
(702,186,l),
(919,186,l),
(919,553,ls),
(919,661,o),
(941,667,o),
(1001,667,cs),
(1009,667,o),
(1010,676,o),
(1001,676,cs),
(759,676,ls),
(706,676,o),
(688,636,o),
(669,586,cs),
(557,285,ls),
(554,276,o),
(547,282,o),
(544,291,cs),
(500,401,o),
(449,518,o),
(440,541,c),
(393,647,o),
(367,676,o),
(281,676,cs),
(113,676,l)
);
},
{
closed = 1;
nodes = (
(190,676,l),
(71,676,ls),
(-101,676,o),
(-198,565,o),
(-198,459,cs),
(-198,368,o),
(-138,314,o),
(-60,314,cs),
(16,314,o),
(54,369,o),
(54,422,cs),
(54,473,o),
(20,523,o),
(-50,523,cs),
(-83,523,o),
(-115,515,o),
(-139,499,c),
(-139,574,o),
(-87,665,o),
(40,665,cs),
(80,665,o),
(117,650,o),
(117,605,cs),
(117,578,l)
);
},
{
closed = 1;
nodes = (
(122,676,l),
(71,676,ls),
(-101,676,o),
(-198,566,o),
(-198,456,cs),
(-198,370,o),
(-139,314,o),
(-60,314,cs),
(19,314,o),
(61,370,o),
(61,425,cs),
(61,475,o),
(26,523,o),
(-46,523,cs),
(-83,523,o),
(-114,510,o),
(-139,489,c),
(-139,573,o),
(-86,665,o),
(39,665,cs),
(57,665,o),
(115,663,o),
(148,638,c)
);
},
{
closed = 1;
nodes = (
(148,638,l),
(148,230,ls),
(148,78,o),
(126,10,o),
(56,10,cs),
(0,10,ls),
(-9,10,o),
(-9,0,o),
(0,0,cs),
(304,0,ls),
(313,0,o),
(313,10,o),
(304,10,cs),
(248,10,ls),
(173,10,o),
(158,78,o),
(158,230,cs),
(158,627,l),
(181,601,o),
(196,564,o),
(211,530,c),
(296,326,o),
(442,-26,o),
(442,-26,c),
(452,-26,l),
(673,563,ls),
(683,591,o),
(692,615,o),
(702,633,c),
(702,186,l),
(919,186,l),
(919,553,ls),
(919,661,o),
(946,667,o),
(1026,667,c),
(1026,676,l),
(702,676,l),
(669,586,l),
(557,285,ls),
(552,273,o),
(547,282,o),
(544,291,cs),
(500,401,o),
(449,518,o),
(440,541,c),
(393,647,o),
(367,676,o),
(281,676,cs),
(113,676,l)
);
},
{
closed = 1;
nodes = (
(702,236,l),
(702,95,ls),
(702,37,o),
(675,8,o),
(595,8,c),
(595,0,l),
(1026,0,l),
(1026,8,l),
(946,8,o),
(919,37,o),
(919,95,cs),
(919,236,l)
);
}
);
};
layerId = "656B38CD-A67B-4E9F-B73E-02DBA5E1D64F";
leftMetricsKey = n;
rightMetricsKey = h;
shapes = (
{
closed = 1;
nodes = (
(30,671,l),
(156,661,o),
(151,662,o),
(172,613,cs),
(438,-11,l),
(451,-11,l),
(714,653,l),
(714,62,ls),
(714,4,o),
(687,12,o),
(607,5,c),
(607,0,l),
(846,0,l),
(846,5,l),
(766,12,o),
(739,4,o),
(739,62,cs),
(739,614,ls),
(739,672,o),
(766,664,o),
(846,671,c),
(846,676,l),
(714,676,l),
(460,36,ls),
(455,23,o),
(452,28,o),
(449,35,cs),
(176,676,l),
(30,676,l)
);
},
{
closed = 1;
nodes = (
(151,671,l),
(151,116,ls),
(151,0,o),
(133,10,o),
(30,5,c),
(30,0,l),
(290,0,l),
(290,5,l),
(172,10,o),
(159,0,o),
(159,116,cs),
(159,668,l)
);
}
);
width = 876;
},
{
layerId = "7832CF62-1B68-483E-9BF5-FE7E7BF8962B";
rightMetricsKey = H;
shapes = (
{
closed = 1;
nodes = (
(0,668,l),
(141,668,o),
(160,651,o),
(211,530,cs),
(442,-15,l),
(455,-15,l),
(702,644,l),
(702,95,ls),
(702,37,o),
(675,8,o),
(595,8,c),
(595,0,l),
(1026,0,l),
(1026,8,l),
(946,8,o),
(919,37,o),
(919,95,cs),
(919,554,ls),
(919,662,o),
(946,668,o),
(1026,668,c),
(1026,676,l),
(702,676,l),
(557,285,ls),
(553,273,o),
(547,282,o),
(544,291,c),
(384,676,l),
(0,676,l)
);
},
{
closed = 1;
nodes = (
(148,656,l),
(148,296,ls),
(148,162,o),
(151,8,o),
(0,8,c),
(0,0,l),
(319,0,l),
(319,8,l),
(181,8,o),
(158,212,o),
(158,364,cs),
(158,656,l)
);
}
);
width = 1028;
}
);
unicode = 77;
},
{
glyphname = N;
layers = (
{
background = {
shapes = (
{
closed = 1;
nodes = (
(313,298,o),
(361,250,o),
(421,250,cs),
(481,250,o),
(530,298,o),
(530,358,cs),
(530,418,o),
(481,467,o),
(421,467,cs),
(361,467,o),
(313,418,o),
(313,358,cs)
);
}
);
};
guides = (
{
angle = 90;
position = "{30, 0}";
}
);
layerId = "656B38CD-A67B-4E9F-B73E-02DBA5E1D64F";
shapes = (
{
closed = 1;
nodes = (
(591,-2,l,{name = hr01;}),
(604,-2,l),
(596,47,l),
(596,43,o),
(596,40,o),
(593,44,cs),
(168,676,l),
(30,676,l),
(30,671,l),
(125,664,o),
(143,664,o),
(158,642,cs)
);
},
{
closed = 1;
nodes = (
(596,-2,l),
(604,-2,l),
(604,560,ls),
(604,676,o),
(622,666,o),
(725,671,c),
(725,676,l),
(465,676,l),
(465,671,l),
(583,666,o),
(596,676,o),
(596,560,cs)
);
},
{
closed = 1;
nodes = (
(30,0,l),
(290,0,l),
(290,5,l),
(172,10,o),
(159,0,o),
(159,116,cs),
(159,668,l),
(151,671,l),
(151,116,ls),
(151,0,o),
(133,10,o),
(30,5,c)
);
}
);
width = 735;
},
{
layerId = "7832CF62-1B68-483E-9BF5-FE7E7BF8962B";
shapes = (
{
closed = 1;
nodes = (
(510,0,l,{name = hr01;}),
(638,0,l),
(628,238,l),
(628,228,o),
(622,227,o),
(617,234,cs),
(314,676,l),
(-20,676,l),
(-20,668,l),
(66,668,o),
(111,594,o),
(152,530,c)
);
},
{
closed = 1;
nodes = (
(628,0,l),
(638,0,l),
(638,356,ls),
(638,489,o),
(672,668,o),
(786,668,c),
(786,676,l),
(467,676,l),
(467,668,l),
(605,668,o),
(628,468,o),
(628,316,cs)
);
},
{
closed = 1;
nodes = (
(-10,0,l),
(309,0,l),
(309,8,l),
(171,8,o),
(148,297,o),
(148,449,cs),
(148,625,l),
(138,625,l),
(138,361,ls),
(138,227,o),
(141,8,o),
(-10,8,c)
);
}
);
width = 754;
}
);
unicode = 78;
},
{
glyphname = O;
layers = (
{
background = {
shapes = (
{
closed = 1;
nodes = (
(450,680,o),
(488,673,o),
(500,659,c),
(441,623,o),
(416,571,o),
(416,528,cs),
(416,471,o),
(459,423,o),
(522,423,cs),
(576,423,o),
(635,459,o),
(635,537,cs),
(635,640,o),
(532,692,o),
(402,692,cs),
(184,692,o),
(15,545,o),
(15,334,cs),
(15,152,o),
(142,-16,o),
(363,-16,cs),
(503,-16,o),
(598,51,o),
(626,149,c),
(626,154,o),
(627,158,o),
(623,158,c),
(592,70,o),
(545,36,o),
(455,36,cs),
(325,36,o),
(266,106,o),
(266,357,cs),
(266,610,o),
(326,679,o),
(418,680,c)
);
}
);
};
layerId = "656B38CD-A67B-4E9F-B73E-02DBA5E1D64F";
shapes = (
{
closed = 1;
nodes = (
(372,-4,ls),
(168,-4,o),
(70,156,o),
(70,339,cs),
(70,521,o),
(168,680,o),
(372,680,cs),
(376,680,ls),
(580,680,o),
(678,521,o),
(678,339,cs),
(678,156,o),
(580,-4,o),
(376,-4,cs)
);
},
{
closed = 1;
nodes = (
(40,91,o),
(216,-12,o),
(370,-12,cs),
(378,-12,ls),
(532,-12,o),
(708,91,o),
(708,339,cs),
(708,586,o),
(532,688,o),
(378,688,cs),
(370,688,ls),
(216,688,o),
(40,586,o),
(40,339,cs)
);
}
);
width = 748;
},
{
layerId = "7832CF62-1B68-483E-9BF5-FE7E7BF8962B";
shapes = (
{
closed = 1;
nodes = (
(398,-3,ls),
(292,-3,o),
(262,156,o),
(262,339,cs),
(262,521,o),
(292,679,o),
(398,679,cs),
(402,679,ls),
(508,679,o),
(538,521,o),
(538,339,cs),
(538,156,o),
(508,-3,o),
(402,-3,cs)
);
},
{
closed = 1;
nodes = (
(15,91,o),
(224,-12,o),
(396,-12,cs),
(404,-12,ls),
(576,-12,o),
(785,91,o),
(785,339,cs),
(785,586,o),
(576,688,o),
(404,688,cs),
(396,688,ls),
(224,688,o),
(15,586,o),
(15,339,cs)
);
}
);
width = 800;
}
);
leftKerningGroup = G;
rightKerningGroup = O;
unicode = 79;
},
{
glyphname = P;
layers = (
{
background = {
shapes = (
{
closed = 1;
nodes = (
(393,0,ls),
(402,0,o),
(402,10,o),
(393,10,cs),
(232,10,l),
(223,11,o),
(225,21,o),
(234,21,cs),
(320,21,o),
(328,85,o),
(328,128,cs),
(328,319,l),
(448,319,l),
(727,297,o),
(766,706,o),
(450,706,cs),
(62,706,ls),
(-116,706,o),
(-238,579,o),
(-238,448,cs),
(-238,338,o),
(-172,276,o),
(-82,276,cs),
(8,276,o),
(81,341,o),
(81,430,cs),
(81,496,o),
(39,566,o),
(-30,561,c),
(-28,540,o),
(-56,512,o),
(-86,512,cs),
(-109,512,o),
(-135,532,o),
(-135,571,cs),
(-135,646,o),
(-55,696,o),
(62,697,c),
(113,697,l),
(113,134,ls),
(113,97,o),
(117,9,o),
(6,9,cs),
(-6,9,o),
(-6,0,o),
(7,0,c)
);
},
{
closed = 1;
nodes = (
(328,697,l),
(390,697,ls),
(461,697,o),
(488,646,o),
(488,547,cs),
(488,511,ls),
(488,403,o),
(456,329,o),
(371,329,cs),
(328,329,l)
);
}
);
};
layerId = "656B38CD-A67B-4E9F-B73E-02DBA5E1D64F";
leftMetricsKey = h;
shapes = (
{
closed = 1;
nodes = (
(30,0,l),
(269,0,l),
(269,5,l),
(189,12,o),
(162,4,o),
(162,62,cs),
(162,668,l),
(235,668,ls),
(399,668,o),
(451,571,o),
(451,488,cs),
(451,388,o),
(374,299,o),
(275,299,cs),
(263,299,o),
(250,300,o),
(238,303,c),
(238,298,l),
(251,295,o),
(268,293,o),
(284,293,cs),
(399,293,o),
(481,388,o),
(481,489,cs),
(481,604,o),
(381,676,o),
(256,676,cs),
(30,676,l),
(30,671,l),
(110,664,o),
(137,672,o),
(137,614,cs),
(137,62,ls),
(137,4,o),
(110,12,o),
(30,5,c)
);
}
);
width = 499;
},
{
layerId = "7832CF62-1B68-483E-9BF5-FE7E7BF8962B";
shapes = (
{
closed = 1;
nodes = (
(2,0,l),
(415,0,l),
(415,8,l),
(344,8,o),
(326,36,o),
(326,94,cs),
(326,668,l),
(345,668,ls),
(422,668,o),
(471,592,o),
(471,482,cs),
(471,386,o),
(434,276,o),
(368,276,cs),
(365,276,o),
(363,277,o),
(360,277,c),
(360,267,l),
(381,264,o),
(402,262,o),
(425,262,cs),
(559,262,o),
(692,332,o),
(692,467,cs),
(692,578,o),
(602,676,o),
(435,676,cs),
(2,676,l),
(2,668,l),
(82,668,o),
(109,639,o),
(109,581,cs),
(109,95,ls),
(109,37,o),
(82,8,o),
(2,8,c)
);
}
);
width = 681;
}
);
rightKerningGroup = O;
unicode = 80;
},
{
glyphname = Q;
layers = (
{
background = {
shapes = (
{
closed = 1;
nodes = (
(323,34,l),
(321,38,o),
(319,43,o),
(319,49,cs),
(319,67,o),
(329,105,o),
(383,105,cs),
(472,105,o),
(485,-3,o),
(526,-92,c),
(564,-180,o),
(629,-254,o),
(726,-254,cs),
(821,-254,o),
(897,-185,o),
(897,-100,c),
(897,-155,o),
(863,-206,o),
(774,-201,cs),
(594,-190,o),
(538,122,o),
(404,122,cs),
(329,122,o),
(310,72,o),
(310,49,cs),
(310,41,o),
(314,34,o),
(318,29,c)
);
},
{
closed = 1;
nodes = (
(509,2,o),
(538,159,o),
(538,339,cs),
(538,520,o),
(508,677,o),
(404,679,c),
(520,678,o),
(662,584,o),
(662,339,cs),
(662,92,o),
(523,-2,o),
(407,-3,c)
);
}
);
};
layerId = "656B38CD-A67B-4E9F-B73E-02DBA5E1D64F";
leftMetricsKey = o;
shapes = (
{
closed = 1;
nodes = (
(40,91,o),
(216,-12,o),
(370,-12,cs),
(378,-12,ls),
(420,-12,o),
(464,-4,o),
(505,12,c),
(519,-7,o),
(533,-26,o),
(547,-45,cs),
(602,-121,o),
(661,-191,o),
(774,-191,cs),
(833,-191,o),
(881,-157,o),
(899,-108,c),
(894,-107,l),
(879,-147,o),
(843,-178,o),
(790,-178,cs),
(683,-178,o),
(604,-69,o),
(521,18,c),
(624,65,o),
(708,167,o),
(708,339,cs),
(708,586,o),
(532,688,o),
(378,688,cs),
(370,688,ls),
(216,688,o),
(40,586,o),
(40,339,cs)
);
},
{
closed = 1;
nodes = (
(287,125,o),
(246,96,o),
(246,58,cs),
(246,37,o),
(256,22,o),
(271,11,c),
(135,55,o),
(70,189,o),
(70,339,cs),
(70,521,o),
(168,680,o),
(372,680,c),
(373,680,o),
(375,680,o),
(376,680,c),
(580,680,o),
(678,521,o),
(678,339,cs),
(678,203,o),
(624,81,o),
(513,26,c),
(460,81,o),
(405,125,o),
(338,125,cs)
);
},
{
closed = 1;
nodes = (
(391,116,o),
(445,85,o),
(488,33,cs),
(492,28,o),
(495,24,o),
(499,19,c),
(463,4,o),
(422,-4,o),
(376,-4,cs),
(372,-4,ls),
(344,-4,o),
(319,-1,o),
(295,5,c),
(270,14,o),
(254,32,o),
(254,59,cs),
(254,92,o),
(288,116,o),
(336,116,cs)
);
}
);
width = 747;
},
{
layerId = "7832CF62-1B68-483E-9BF5-FE7E7BF8962B";
shapes = (
{
closed = 1;
nodes = (
(15,91,o),
(224,-12,o),
(396,-12,cs),
(404,-12,ls),
(433,-12,o),
(463,-9,o),
(492,-3,c),
(503,-32,o),
(513,-63,o),
(526,-92,cs),
(565,-180,o),
(629,-254,o),
(726,-254,cs),
(821,-254,o),
(897,-185,o),
(897,-100,c),
(890,-100,l),
(890,-134,o),
(870,-158,o),
(823,-158,cs),
(728,-158,o),
(655,-58,o),
(575,22,c),
(690,70,o),
(785,172,o),
(785,339,cs),
(785,586,o),
(576,688,o),
(404,688,cs),
(396,688,ls),
(224,688,o),
(15,586,o),
(15,339,cs)
);
},
{
closed = 1;
nodes = (
(348,122,o),
(322,100,o),
(313,77,cs),
(310,70,o),
(309,63,o),
(309,57,c),
(274,119,o),
(262,224,o),
(262,339,cs),
(262,521,o),
(292,679,o),
(398,679,c),
(399,679,o),
(401,679,o),
(402,679,c),
(508,679,o),
(538,521,o),
(538,339,cs),
(538,240,o),
(529,148,o),
(504,84,c),
(471,107,o),
(435,122,o),
(396,122,cs)
);
},
{
closed = 1;
nodes = (
(422,105,o),
(448,82,o),
(468,48,cs),
(471,43,o),
(473,38,o),
(476,33,c),
(457,10,o),
(433,-3,o),
(402,-3,cs),
(398,-3,ls),
(369,-3,o),
(346,9,o),
(327,30,c),
(322,38,o),
(318,48,o),
(318,58,cs),
(318,81,o),
(335,105,o),
(379,105,cs)
);
}
);
width = 800;
}
);
leftKerningGroup = G;
rightKerningGroup = O;
unicode = 81;
},
{
glyphname = R;
layers = (
{
background = {
shapes = (
{
closed = 1;
nodes = (
(30,0,l),
(269,0,l),
(269,5,l),
(189,12,o),
(162,4,o),
(162,62,cs),
(162,668,l),
(221,668,ls),
(373,668,o),
(432,585,o),
(432,501,cs),
(432,410,o),
(360,320,o),
(253,317,c),
(253,307,l),
(346,307,o),
(434,22,o),
(494,0,c),
(562,0,l,{name = hr01;}),
(562,5,l),
(492,5,o),
(439,130,o),
(383,219,cs),
(353,266,o),
(313,299,o),
(278,308,cs),
(256,314,o),
(281,311,o),
(296,314,cs),
(369,329,o),
(462,397,o),
(462,501,cs),
(462,616,o),
(358,676,o),
(241,676,cs),
(30,676,l),
(30,671,l),
(110,664,o),
(137,672,o),
(137,614,cs),
(137,62,ls),
(137,4,o),
(110,12,o),
(30,5,c)
);
}
);
};
layerId = "656B38CD-A67B-4E9F-B73E-02DBA5E1D64F";
leftMetricsKey = h;
shapes = (
{
closed = 1;
nodes = (
(30,0,l),
(269,0,l),
(269,5,l),
(189,12,o),
(162,4,o),
(162,62,cs),
(162,668,l),
(235,668,ls),
(387,668,o),
(446,585,o),
(446,501,cs),
(446,410,o),
(374,318,o),
(267,315,c),
(267,307,l),
(360,307,o),
(448,22,o),
(508,0,c),
(584,0,l,{name = hr01;}),
(584,5,l),
(564,5,o),
(539,7,o),
(521,24,cs),
(477,65,o),
(437,155,o),
(397,219,cs),
(367,266,o),
(327,298,o),
(292,307,cs),
(276,311,o),
(285,311,o),
(297,312,cs),
(372,318,o),
(476,397,o),
(476,501,cs),
(476,616,o),
(372,676,o),
(255,676,cs),
(30,676,l),
(30,671,l),
(110,664,o),
(137,672,o),
(137,614,cs),
(137,62,ls),
(137,4,o),
(110,12,o),
(30,5,c)
);
}
);
width = 556;
},
{
layerId = "7832CF62-1B68-483E-9BF5-FE7E7BF8962B";
shapes = (
{
closed = 1;
nodes = (
(2,0,l),
(433,0,l),
(433,8,l),
(353,8,o),
(326,37,o),
(326,95,cs),
(326,668,l),
(344,668,ls),
(434,668,o),
(474,585,o),
(474,501,cs),
(474,410,o),
(428,318,o),
(353,317,c),
(353,307,l),
(434,307,o),
(436,99,o),
(504,0,c),
(820,0,l,{name = hr01;}),
(820,8,l),
(797,8,o),
(778,17,o),
(761,32,cs),
(712,75,o),
(681,170,o),
(612,237,cs),
(568,281,o),
(494,311,o),
(413,311,cs),
(391,311,o),
(397,313,o),
(412,314,cs),
(591,324,o),
(701,398,o),
(701,502,cs),
(701,594,o),
(610,676,o),
(418,676,cs),
(2,676,l),
(2,668,l),
(82,668,o),
(109,639,o),
(109,581,cs),
(109,95,ls,{name = hr02;}),
(109,37,o),
(82,8,o),
(2,8,c)
);
}
);
width = 733;
}
);
unicode = 82;
},
{
glyphname = S;
layers = (
{
background = {
shapes = (
{
closed = 1;
nodes = (
(251,-7,l),
(121,-7,o),
(45,60,o),
(48,126,c),
(69,100,o),
(105,87,o),
(134,87,cs),
(191,87,o),
(246,117,o),
(246,183,cs),
(246,239,o),
(206,281,o),
(135,281,cs),
(54,281,o),
(-5,226,o),
(-5,155,cs),
(-5,65,o),
(88,-15,o),
(251,-15,c)
);
},
{
closed = 1;
nodes = (
(209,292,o),
(257,244,o),
(317,244,cs),
(377,244,o),
(425,292,o),
(425,352,cs),
(425,412,o),
(377,460,o),
(317,460,cs),
(257,460,o),
(209,412,o),
(209,352,cs)
);
}
);
};
layerId = "656B38CD-A67B-4E9F-B73E-02DBA5E1D64F";
shapes = (
{
closed = 1;
nodes = (
(41,-5,l),
(47,-5,l),
(46,14,o),
(50,25,o),
(63,25,cs),
(91,25,o),
(114,-10,o),
(210,-10,cs),
(316,-10,o),
(396,60,o),
(396,163,cs),
(396,265,o),
(319,310,o),
(218,384,cs),
(146,436,o),
(83,480,o),
(83,559,cs),
(83,633,o),
(140,678,o),
(220,678,cs),
(312,678,o),
(356,620,o),
(361,540,c),
(365,540,l,{name = hr01;}),
(365,681,l),
(360,681,l),
(358,659,o),
(354,652,o),
(345,652,cs),
(313,652,o),
(295,686,o),
(220,686,cs),
(134,686,o),
(63,631,o),
(63,540,cs),
(63,474,o),
(97,435,o),
(203,357,cs),
(297,288,o),
(370,245,o),
(370,148,cs),
(370,55,o),
(298,-2,o),
(210,-2,cs),
(164,-2,o),
(130,4,o),
(105,21,cs),
(66,47,o),
(44,61,o),
(27,185,c),
(22,184,l)
);
}
);
width = 441;
},
{
layerId = "7832CF62-1B68-483E-9BF5-FE7E7BF8962B";
shapes = (
{
closed = 1;
nodes = (
(50,-7,l),
(59,-7,l),
(59,7,o),
(65,29,o),
(92,29,cs),
(141,29,o),
(202,-12,o),
(295,-12,cs),
(469,-12,o),
(572,87,o),
(572,214,cs),
(572,334,o),
(495,397,o),
(328,472,cs),
(275,496,o),
(185,540,o),
(185,607,cs),
(185,662,o),
(244,679,o),
(289,679,cs),
(399,679,o),
(480,580,o),
(508,461,c),
(517,461,l),
(517,688,l),
(508,688,l),
(508,673,o),
(498,659,o),
(475,659,cs),
(442,659,o),
(382,688,o),
(303,688,cs),
(146,688,o),
(47,601,o),
(47,480,cs),
(47,358,o),
(130,315,o),
(272,238,cs),
(332,205,o),
(412,161,o),
(412,89,cs),
(412,34,o),
(376,-1,o),
(305,-1,cs),
(255,-1,o),
(211,18,o),
(174,47,cs),
(97,108,o),
(52,214,o),
(44,287,c),
(35,287,l)
);
}
);
width = 568;
}
);
leftKerningGroup = sS;
rightKerningGroup = sS;
unicode = 83;
},
{
glyphname = T;
layers = (
{
background = {
shapes = (
{
closed = 0;
nodes = (
(374,668,ls),
(532,668,o),
(520,634,o),
(526,536,c),
(531,536,l),
(531,676,l)
);
}
);
};
layerId = "656B38CD-A67B-4E9F-B73E-02DBA5E1D64F";
shapes = (
{
closed = 1;
nodes = (
(166,0,l),
(405,0,l),
(405,5,l),
(325,12,o),
(298,4,o),
(298,62,cs),
(298,668,l),
(302,668,o),
(320,668,o),
(324,668,cs),
(520,668,o),
(520,674,o),
(526,536,c),
(531,536,l),
(531,676,l),
(40,676,l),
(40,536,l),
(45,536,l),
(51,675,o),
(51,668,o),
(247,668,c),
(249,668,o),
(271,668,o),
(273,668,c),
(273,62,ls),
(273,4,o),
(246,12,o),
(166,5,c)
);
}
);
width = 571;
},
{
background = {
shapes = (
{
closed = 1;
nodes = (
(602,0,ls),
(611,0,o),
(611,10,o),
(602,10,cs),
(577,10,ls),
(488,10,o),
(492,98,o),
(492,128,cs),
(492,697,l),
(623,694,o),
(730,512,o),
(730,458,cs),
(730,448,o),
(741,448,o),
(741,458,cs),
(743,706,l),
(192,706,ls),
(13,706,o),
(-110,580,o),
(-110,448,cs),
(-110,338,o),
(-44,276,o),
(46,276,cs),
(136,276,o),
(209,341,o),
(209,430,cs),
(209,496,o),
(167,566,o),
(98,561,c),
(100,540,o),
(72,512,o),
(42,512,cs),
(19,512,o),
(-7,532,o),
(-7,571,cs),
(-7,646,o),
(73,696,o),
(190,697,c),
(273,697,l),
(273,134,ls),
(273,98,o),
(274,9,o),
(180,9,cs),
(165,9,ls),
(153,9,o),
(153,0,o),
(166,0,c)
);
},
{
closed = 1;
nodes = (
(30,676,l),
(30,373,l),
(40,373,l),
(40,478,o),
(174,668,o),
(260,668,c),
(241,668,l),
(241,95,ls),
(241,37,o),
(214,8,o),
(134,8,c),
(134,0,l),
(565,0,l),
(565,8,l),
(485,8,o),
(458,37,o),
(458,95,cs),
(458,668,l),
(469,668,ls),
(603,668,o),
(689,516,o),
(689,411,c),
(699,411,l),
(699,676,l)
);
},
{
closed = 1;
nodes = (
(241,95,ls),
(241,37,o),
(214,8,o),
(134,8,c),
(134,0,l),
(441,0,l),
(399,2,o),
(349,16,o),
(349,95,cs),
(349,581,ls),
(349,646,o),
(396,674,o),
(441,676,c),
(134,676,l),
(134,668,l),
(214,668,o),
(241,639,o),
(241,581,cs)
);
},
{
closed = 1;
nodes = (
(30,676,l),
(30,443,l),
(30,551,o),
(98,676,o),
(207,676,c)
);
}
);
};
layerId = "7832CF62-1B68-483E-9BF5-FE7E7BF8962B";
shapes = (
{
closed = 1;
nodes = (
(134,0,l),
(565,0,l),
(565,8,l),
(485,8,o),
(458,37,o),
(458,95,cs),
(458,667,l),
(460,666,o),
(462,666,o),
(465,665,cs),
(549,634,o),
(659,468,o),
(659,373,c),
(669,373,l),
(669,676,l),
(30,676,l),
(30,373,l),
(40,373,l),
(40,467,o),
(147,630,o),
(231,664,cs),
(234,665,o),
(238,666,o),
(241,667,c),
(241,95,ls),
(241,37,o),
(214,8,o),
(134,8,c)
);
}
);
width = 699;
}
);
unicode = 84;
},
{
glyphname = U;
layers = (
{
background = {
shapes = (
{
closed = 1;
nodes = (
(143,676,l),
(34,676,ls),
(-145,676,o),
(-268,550,o),
(-268,418,cs),
(-268,308,o),
(-202,246,o),
(-112,246,cs),
(-22,246,o),
(51,311,o),
(51,400,cs),
(51,466,o),
(9,536,o),
(-60,531,c),
(-58,510,o),
(-86,482,o),
(-116,482,cs),
(-139,482,o),
(-165,502,o),
(-165,541,cs),
(-165,616,o),
(-85,666,o),
(32,667,c),
(84,667,l),
(84,616,l)
);
},
{
closed = 1;
nodes = (
(-23,0,l),
(408,0,l),
(408,8,l),
(328,8,o),
(301,37,o),
(301,95,cs),
(301,667,l),
(334,667,ls),
(414,667,o),
(450,585,o),
(450,501,cs),
(450,410,o),
(410,318,o),
(335,317,c),
(335,307,l),
(361,307,ls),
(437,307,o),
(430,247,o),
(441,150,cs),
(453,40,o),
(526,-11,o),
(630,-11,cs),
(702,-11,o),
(771,30,o),
(797,57,c),
(793,62,l),
(776,46,o),
(760,36,o),
(739,36,cs),
(684,36,o),
(685,104,o),
(677,179,cs),
(665,292,o),
(585,320,o),
(452,320,cs),
(447,320,ls),
(443,320,o),
(440,321,o),
(440,323,c),
(440,325,o),
(442,327,o),
(446,328,c),
(558,335,o),
(665,400,o),
(665,504,cs),
(665,596,o),
(576,676,o),
(410,676,cs),
(38,676,ls),
(-134,676,o),
(-231,565,o),
(-231,459,cs),
(-231,368,o),
(-171,314,o),
(-93,314,cs),
(-17,314,o),
(21,369,o),
(21,422,cs),
(21,491,o),
(-34,523,o),
(-91,523,cs),
(-120,523,o),
(-149,514,o),
(-172,499,c),
(-172,574,o),
(-120,665,o),
(7,665,cs),
(47,665,o),
(84,650,o),
(84,605,cs),
(84,95,ls),
(84,37,o),
(57,8,o),
(-23,8,c)
);
}
);
};
guides = (
{
position = "{0, 664}";
}
);
layerId = "656B38CD-A67B-4E9F-B73E-02DBA5E1D64F";
shapes = (
{
closed = 1;
nodes = (
(20,671,l),
(100,664,o),
(127,672,o),
(127,614,cs),
(127,242,ls),
(127,84,o),
(189,-14,o),
(357,-14,cs),
(516,-14,o),
(600,75,o),
(600,250,cs),
(600,600,ls),
(600,673,o),
(616,664,o),
(709,671,c),
(709,676,l),
(482,676,l),
(482,671,l),
(575,664,o),
(592,673,o),
(592,600,cs),
(592,250,ls),
(592,80,o),
(514,-3,o),
(365,-3,cs),
(218,-3,o),
(152,88,o),
(152,232,cs),
(152,614,ls),
(152,672,o),
(179,664,o),
(259,671,c),
(259,676,l),
(20,676,l)
);
}
);
width = 719;
},
{
anchors = (
{
name = top;
position = "{434, 751}";
}
);
layerId = "7832CF62-1B68-483E-9BF5-FE7E7BF8962B";
shapes = (
{
closed = 1;
nodes = (
(0,668,l),
(51,668,o),
(84,658,o),
(84,597,cs),
(84,242,ls),
(84,84,o),
(175,-14,o),
(390,-14,cs),
(567,-14,o),
(664,75,o),
(664,250,cs),
(664,356,ls),
(664,489,o),
(698,668,o),
(812,668,c),
(812,676,l),
(493,676,l),
(493,668,l),
(631,668,o),
(654,468,o),
(654,316,cs),
(654,250,ls),
(654,131,o),
(590,21,o),
(479,21,cs),
(354,21,o),
(306,104,o),
(306,232,cs),
(306,597,ls),
(306,658,o),
(339,668,o),
(390,668,c),
(390,676,l),
(0,676,l)
);
}
);
width = 736;
}
);
unicode = 85;
},
{
glyphname = V;
layers = (
{
background = {
shapes = (
{
closed = 1;
nodes = (
(227,700,l),
(100,700,ls),
(-143,700,o),
(-249,573,o),
(-249,441,cs),
(-249,331,o),
(-183,269,o),
(-93,269,cs),
(-3,269,o),
(70,334,o),
(70,423,cs),
(70,489,o),
(28,559,o),
(-41,554,c),
(-39,533,o),
(-67,505,o),
(-97,505,cs),
(-120,505,o),
(-146,525,o),
(-146,564,cs),
(-146,640,o),
(-47,691,o),
(84,691,cs),
(138,691,ls),
(147,691,o),
(147,679,o),
(136,679,cs),
(85,679,o),
(43,634,o),
(80,553,c),
(92,526,l)
);
},
{
closed = 1;
nodes = (
(184,332,o),
(233,283,o),
(293,283,cs),
(353,283,o),
(402,332,o),
(402,392,cs),
(402,452,o),
(353,501,o),
(293,501,cs),
(233,501,o),
(184,452,o),
(184,392,cs)
);
},
{
closed = 1;
nodes = (
(192,287,o),
(240,239,o),
(300,239,cs),
(360,239,o),
(409,287,o),
(409,347,cs),
(409,407,o),
(360,456,o),
(300,456,cs),
(240,456,o),
(192,407,o),
(192,347,cs)
);
}
);
};
layerId = "656B38CD-A67B-4E9F-B73E-02DBA5E1D64F";
shapes = (
{
closed = 1;
nodes = (
(295,-7,l),
(305,-7,l),
(512,564,ls),
(552,675,o),
(562,664,o),
(653,671,c),
(653,676,l),
(416,676,l),
(416,671,l),
(506,664,o),
(547,689,o),
(499,554,cs),
(310,26,l),
(128,592,ls),
(104,666,o),
(113,664,o),
(223,671,c),
(223,676,l),
(-30,676,l),
(-30,671,l),
(67,664,o),
(77,667,o),
(103,588,cs)
);
}
);
width = 623;
},
{
layerId = "7832CF62-1B68-483E-9BF5-FE7E7BF8962B";
shapes = (
{
closed = 1;
nodes = (
(312,-7,l),
(370,-7,l),
(548,408,ls),
(575,472,o),
(678,668,o),
(748,668,c),
(748,676,l),
(482,676,l),
(482,668,l),
(605,668,o),
(573,491,o),
(532,398,cs),
(455,218,l),
(330,568,ls),
(310,620,o),
(297,668,o),
(366,668,c),
(366,676,l),
(-15,676,l),
(-15,668,l),
(39,668,o),
(70,634,o),
(88,588,cs)
);
}
);
width = 696;
}
);
leftKerningGroup = VW;
rightKerningGroup = VW;
unicode = 86;
},
{
glyphname = W;
layers = (
{
background = {
shapes = (
{
closed = 1;
nodes = (
(710,-7,l),
(768,-7,l),
(946,408,ls),
(973,472,o),
(1072,668,o),
(1142,668,cs),
(1146,668,l),
(1146,676,l),
(880,676,l),
(880,668,l),
(1003,668,o),
(971,491,o),
(930,398,cs),
(853,218,l),
(728,568,ls),
(696,654,o),
(722,668,o),
(753,668,cs),
(764,668,l),
(764,676,l),
(383,676,l),
(383,668,l),
(437,668,o),
(468,634,o),
(486,588,cs)
);
},
{
closed = 1;
nodes = (
(297,-7,l),
(355,-7,l),
(533,408,ls),
(560,472,o),
(659,668,o),
(729,668,cs),
(733,668,l),
(733,676,l),
(467,676,l),
(467,668,l),
(590,668,o),
(558,491,o),
(517,398,cs),
(440,218,l),
(315,568,ls),
(283,654,o),
(309,668,o),
(340,668,cs),
(351,668,l),
(351,676,l),
(-30,676,l),
(-30,668,l),
(24,668,o),
(55,634,o),
(73,588,cs)
);
}
);
};
layerId = "656B38CD-A67B-4E9F-B73E-02DBA5E1D64F";
leftMetricsKey = v;
rightMetricsKey = v;
shapes = (
{
closed = 1;
nodes = (
(612,-7,l),
(622,-7,l),
(809,564,ls),
(845,674,o),
(879,664,o),
(946,671,c),
(950,671,l),
(950,676,l),
(713,676,l),
(713,671,l),
(803,664,o),
(840,691,o),
(796,554,cs),
(626,28,l),
(465,592,ls),
(444,666,o),
(450,664,o),
(554,671,c),
(560,671,l),
(560,676,l),
(307,676,l),
(307,671,l),
(404,664,o),
(417,668,o),
(440,588,cs)
);
},
{
closed = 1;
nodes = (
(461,559,l),
(461,557,o),
(460,554,o),
(459,552,cs),
(289,28,l),
(128,592,ls),
(107,666,o),
(113,664,o),
(217,671,c),
(223,671,l),
(223,676,l),
(-30,676,l),
(-30,671,l),
(67,664,o),
(80,668,o),
(103,588,cs),
(275,-7,l),
(285,-7,l),
(464,538,ls),
(465,541,o),
(466,545,o),
(467,548,c)
);
}
);
width = 920;
},
{
background = {
shapes = (
{
closed = 1;
nodes = (
(419,668,l),
(467,668,o),
(495,612,o),
(505,588,cs),
(763,-1,l),
(774,-1,l),
(1000,487,ls),
(1029,549,o),
(1084,667,o),
(1154,667,cs),
(1164,667,ls),
(1175,667,o),
(1176,676,o),
(1165,676,cs),
(919,676,ls),
(908,676,o),
(907,667,o),
(918,667,cs),
(957,667,ls),
(1053,667,o),
(1004,523,o),
(985,476,c),
(876,242,l),
(747,568,ls),
(713,653,o),
(741,666,o),
(772,668,c),
(780,668,ls),
(790,668,o),
(792,676,o),
(783,676,cs),
(419,676,l)
);
},
{
closed = 1;
nodes = (
(28,676,ls),
(-134,676,o),
(-224,580,o),
(-224,470,cs),
(-224,384,o),
(-164,313,o),
(-86,313,cs),
(-9,313,o),
(28,367,o),
(28,422,cs),
(28,487,o),
(-24,519,o),
(-72,519,cs),
(-111,519,o),
(-154,498,o),
(-166,464,c),
(-168,473,o),
(-168,484,o),
(-168,487,cs),
(-168,572,o),
(-103,665,o),
(-1,665,cs),
(67,665,o),
(95,626,o),
(112,588,cs),
(370,-1,l),
(381,-1,l),
(607,487,ls),
(636,549,o),
(693,671,o),
(763,671,cs),
(766,671,ls),
(777,671,o),
(783,676,o),
(772,676,cs),
(526,676,ls),
(515,676,o),
(514,667,o),
(525,667,cs),
(564,667,ls),
(660,667,o),
(611,523,o),
(592,476,c),
(483,242,l),
(354,568,ls),
(320,653,o),
(348,666,o),
(379,668,c),
(387,668,ls),
(397,668,o),
(399,676,o),
(390,676,cs)
);
}
);
};
layerId = "7832CF62-1B68-483E-9BF5-FE7E7BF8962B";
leftMetricsKey = V;
shapes = (
{
closed = 1;
nodes = (
(725,-7,l),
(783,-7,l),
(961,408,ls),
(988,472,o),
(1087,668,o),
(1157,668,cs),
(1161,668,l),
(1161,676,l),
(895,676,l),
(895,668,l),
(1018,668,o),
(986,491,o),
(945,398,cs),
(868,218,l),
(743,568,ls),
(711,654,o),
(737,668,o),
(768,668,cs),
(779,668,l),
(779,676,l),
(398,676,l),
(398,668,l),
(452,668,o),
(483,634,o),
(501,588,cs)
);
},
{
closed = 1;
nodes = (
(567,527,l),
(562,482,o),
(548,434,o),
(532,398,cs),
(455,218,l),
(330,568,ls),
(298,654,o),
(324,668,o),
(355,668,cs),
(366,668,l),
(366,676,l),
(-15,676,l),
(-15,668,l),
(39,668,o),
(70,634,o),
(88,588,cs),
(312,-7,l),
(370,-7,l),
(548,408,ls),
(557,429,o),
(574,465,o),
(595,503,c)
);
}
);
width = 1109;
}
);
leftKerningGroup = VW;
rightKerningGroup = VW;
unicode = 87;
},
{
glyphname = X;
layers = (
{
background = {
shapes = (
{
closed = 1;
nodes = (
(361,0,l),
(760,0,l),
(760,8,l),
(709,8,o),
(678,31,o),
(657,67,cs),
(348,594,ls),
(317,648,o),
(345,668,o),
(384,668,c),
(384,676,l),
(-2,676,l),
(-2,668,l),
(38,668,o),
(69,641,o),
(88,609,cs),
(391,92,ls),
(414,53,o),
(418,8,o),
(361,8,c)
);
}
);
};
guides = (
{
angle = 90;
position = "{595, 0}";
},
{
angle = 90;
position = "{3, 0}";
}
);
layerId = "656B38CD-A67B-4E9F-B73E-02DBA5E1D64F";
shapes = (
{
closed = 1;
nodes = (
(298,331,l),
(427,563,ls),
(480,658,o),
(497,664,o),
(588,671,c),
(588,676,l),
(370,676,l),
(370,671,l),
(460,664,o),
(486,684,o),
(422,570,cs),
(294,340,l)
);
},
{
closed = 1;
nodes = (
(334,0,l),
(589,0,l),
(589,5,l),
(524,12,o),
(492,-4,o),
(444,83,cs),
(163,592,ls),
(126,659,o),
(121,664,o),
(231,671,c),
(231,676,l),
(3,676,l),
(3,671,l),
(100,664,o),
(96,661,o),
(136,588,cs),
(419,75,ls),
(459,3,o),
(411,12,o),
(334,5,c)
);
},
{
closed = 1;
nodes = (
(-3,0,l),
(199,0,l),
(199,5,l),
(114,12,o),
(112,13,o),
(154,89,cs),
(289,335,l),
(287,346,l),
(141,83,ls),
(96,2,o),
(68,11,o),
(-3,5,c)
);
}
);
width = 590;
},
{
background = {
shapes = (
{
closed = 0;
nodes = (
(179,278,ls),
(157,211,o),
(81,8,o),
(-15,8,c),
(-15,0,l),
(292,0,l),
(292,8,l),
(134,8,o),
(160,193,o),
(194,292,cs)
);
}
);
};
layerId = "7832CF62-1B68-483E-9BF5-FE7E7BF8962B";
shapes = (
{
closed = 1;
nodes = (
(379,316,l),
(461,449,ls),
(490,496,o),
(622,668,o),
(693,668,c),
(693,676,l),
(411,676,l),
(411,668,l),
(523,668,o),
(495,528,o),
(450,453,cs),
(374,329,l)
);
},
{
closed = 1;
nodes = (
(328,0,l),
(727,0,l),
(727,8,l),
(676,8,o),
(645,31,o),
(624,67,cs),
(315,594,ls),
(284,648,o),
(312,668,o),
(351,668,c),
(351,676,l),
(-35,676,l),
(-35,668,l),
(5,668,o),
(36,641,o),
(55,609,cs),
(358,92,ls),
(381,53,o),
(385,8,o),
(328,8,c)
);
},
{
closed = 1;
nodes = (
(-24,0,l),
(244,0,l),
(244,8,l),
(134,8,o),
(184,189,o),
(225,256,cs),
(281,347,l),
(276,360,l),
(205,244,ls),
(176,196,o),
(43,8,o),
(-24,8,c)
);
}
);
width = 692;
}
);
unicode = 88;
},
{
glyphname = Y;
layers = (
{
background = {
shapes = (
{
closed = 1;
nodes = (
(520,0,ls),
(529,0,o),
(529,10,o),
(520,10,cs),
(360,10,ls),
(349,10,o),
(351,22,o),
(360,22,cs),
(446,22,o),
(454,106,o),
(454,149,cs),
(454,286,ls),
(454,306,o),
(452,322,o),
(445,342,c),
(600,602,ls),
(629,650,o),
(658,691,o),
(725,691,cs),
(736,691,ls),
(746,691,o),
(747,701,o),
(737,701,cs),
(517,701,ls),
(509,701,o),
(509,691,o),
(516,691,cs),
(540,691,ls),
(595,691,o),
(617,647,o),
(590,601,cs),
(441,351,l),
(422,399,o),
(379,467,o),
(293,622,cs),
(267,669,o),
(289,692,o),
(322,692,cs),
(332,692,o),
(332,702,o),
(323,702,cs),
(83,702,l),
(-116,701,o),
(-246,572,o),
(-246,441,cs),
(-246,331,o),
(-180,269,o),
(-90,269,cs),
(0,269,o),
(73,334,o),
(73,423,cs),
(73,489,o),
(31,559,o),
(-38,554,c),
(-36,533,o),
(-64,505,o),
(-94,505,cs),
(-117,505,o),
(-143,525,o),
(-143,564,cs),
(-143,640,o),
(-31,692,o),
(75,692,cs),
(141,692,ls),
(148,692,o),
(148,683,o),
(141,683,cs),
(110,683,o),
(76,652,o),
(76,596,cs),
(76,479,o),
(236,330,o),
(236,211,cs),
(236,134,ls),
(236,97,o),
(240,11,o),
(129,11,cs),
(117,11,o),
(116,0,o),
(129,0,cs)
);
}
);
};
layerId = "656B38CD-A67B-4E9F-B73E-02DBA5E1D64F";
shapes = (
{
closed = 1;
nodes = (
(-11,671,l),
(86,664,o),
(84,662,o),
(122,588,cs),
(294,254,l),
(294,62,ls),
(294,4,o),
(267,12,o),
(187,5,c),
(187,0,l),
(426,0,l),
(426,5,l),
(346,12,o),
(319,4,o),
(319,62,cs),
(319,259,l),
(480,564,ls),
(536,670,o),
(540,668,o),
(621,671,c),
(621,676,l),
(397,676,l),
(397,671,l),
(487,664,o),
(533,678,o),
(467,554,cs),
(315,267,l),
(147,592,ls),
(111,662,o),
(132,664,o),
(242,671,c),
(242,676,l),
(-11,676,l)
);
}
);
width = 607;
},
{
anchors = (
{
name = top;
position = "{423, 751}";
}
);
layerId = "7832CF62-1B68-483E-9BF5-FE7E7BF8962B";
shapes = (
{
closed = 1;
nodes = (
(-21,668,l),
(37,668,o),
(64,644,o),
(82,609,cs),
(243,307,l),
(243,95,ls),
(243,37,o),
(216,8,o),
(136,8,c),
(136,0,l),
(567,0,l),
(567,8,l),
(487,8,o),
(460,37,o),
(460,95,cs),
(460,347,l),
(462,350,l),
(492,401,o),
(654,668,o),
(751,668,c),
(751,676,l),
(457,676,l),
(457,668,l),
(643,668,o),
(489,403,o),
(457,360,cs),
(454,356,l),
(349,579,ls),
(329,622,o),
(328,668,o),
(390,668,c),
(390,676,l),
(-21,676,l)
);
}
);
width = 684;
}
);
unicode = 89;
},
{
glyphname = Z;
layers = (
{
background = {
shapes = (
{
closed = 1;
nodes = (
(21,0,l),
(599,0,l),
(599,272,l),
(589,272,l),
(589,173,o),
(466,9,o),
(308,9,cs),
(30,9,l)
);
}
);
};
layerId = "656B38CD-A67B-4E9F-B73E-02DBA5E1D64F";
shapes = (
{
closed = 1;
nodes = (
(449,0,l),
(449,149,l),
(444,149,l),
(438,16,o),
(440,8,o),
(282,8,cs),
(59,8,l),
(50,0,l)
);
},
{
closed = 1;
nodes = (
(50,0,l),
(79,0,l),
(458,676,l),
(429,676,l)
);
},
{
closed = 1;
nodes = (
(63,536,l),
(68,536,l),
(74,675,o),
(74,668,o),
(270,668,cs),
(427,668,l),
(449,676,l),
(63,676,l)
);
}
);
width = 508;
},
{
layerId = "7832CF62-1B68-483E-9BF5-FE7E7BF8962B";
shapes = (
{
closed = 1;
nodes = (
(599,0,l),
(599,272,l),
(589,272,l),
(589,173,o),
(466,9,o),
(308,9,cs),
(30,9,l),
(21,0,l)
);
},
{
closed = 1;
nodes = (
(21,0,l),
(268,0,l),
(637,676,l),
(390,676,l)
);
},
{
closed = 1;
nodes = (
(59,404,l),
(69,404,l),
(69,503,o),
(161,668,o),
(319,668,cs),
(598,668,l),
(628,676,l),
(59,676,l)
);
}
);
width = 657;
}
);
unicode = 90;
},
{
glyphname = period;
layers = (
{
layerId = "656B38CD-A67B-4E9F-B73E-02DBA5E1D64F";
shapes = (
{
closed = 1;
nodes = (
(40,9,o),
(52,-2,o),
(68,-2,cs),
(84,-2,o),
(96,9,o),
(96,23,cs),
(96,37,o),
(84,48,o),
(68,48,cs),
(52,48,o),
(40,37,o),
(40,23,cs)
);
}
);
width = 136;
},
{
layerId = "7832CF62-1B68-483E-9BF5-FE7E7BF8962B";
shapes = (
{
closed = 1;
nodes = (
(40,34,o),
(88,-9,o),
(150,-9,cs),
(212,-9,o),
(260,34,o),
(260,89,cs),
(260,144,o),
(212,187,o),
(150,187,cs),
(88,187,o),
(40,144,o),
(40,89,cs)
);
}
);
width = 300;
}
);
unicode = 46;
},
{
glyphname = R.alt;
layers = (
{
background = {
shapes = (
{
closed = 0;
nodes = (
(267,307,l),
(360,307,o),
(448,22,o),
(508,0,c),
(584,0,l,{name = hr01;}),
(584,5,l),
(564,5,o),
(539,7,o),
(521,24,cs),
(477,65,o),
(437,155,o),
(397,219,cs),
(367,266,o),
(327,298,o),
(292,307,c)
);
}
);
};
layerId = "656B38CD-A67B-4E9F-B73E-02DBA5E1D64F";
leftMetricsKey = h;
shapes = (
{
closed = 1;
nodes = (
(30,0,l),
(269,0,l),
(269,5,l),
(189,12,o),
(162,4,o),
(162,62,cs),
(162,668,l),
(245,668,l),
(391,668,o),
(447,589,o),
(447,508,cs),
(447,417,o),
(374,322,o),
(276,334,c),
(276,323,l),
(330,315,o),
(344,279,o),
(378,148,cs),
(404,48,o),
(438,-5,o),
(502,-5,cs,{name = hr01;}),
(524,-5,o),
(546,1,o),
(565,9,c),
(563,14,l),
(553,11,o),
(543,9,o),
(530,9,cs),
(466,9,o),
(437,60,o),
(402,169,cs),
(368,274,o),
(327,318,o),
(298,324,cs),
(283,327,o),
(293,325,o),
(305,326,cs),
(380,332,o),
(476,404,o),
(476,508,cs),
(476,619,o),
(376,676,o),
(264,676,c),
(30,676,l),
(30,671,l),
(110,664,o),
(137,672,o),
(137,614,cs),
(137,62,ls),
(137,4,o),
(110,12,o),
(30,5,c)
);
}
);
width = 568;
},
{
layerId = "7832CF62-1B68-483E-9BF5-FE7E7BF8962B";
shapes = (
{
closed = 1;
nodes = (
(2,0,l),
(433,0,l),
(433,8,l),
(353,8,o),
(326,37,o),
(326,95,cs),
(326,668,l),
(344,668,ls),
(434,668,o),
(474,585,o),
(474,501,cs),
(474,410,o),
(435,318,o),
(360,317,c),
(360,307,l),
(409,307,o),
(419,280,o),
(444,150,cs),
(466,42,o),
(529,-11,o),
(633,-11,cs,{name = hr01;}),
(705,-11,o),
(774,30,o),
(800,57,c),
(795,63,l),
(785,55,o),
(778,49,o),
(760,49,cs),
(722,49,o),
(715,117,o),
(684,185,cs),
(635,293,o),
(574,320,o),
(472,320,cs),
(431,320,o),
(433,326,o),
(447,326,c),
(590,339,o),
(701,398,o),
(701,502,cs),
(701,594,o),
(610,676,o),
(418,676,cs),
(2,676,l),
(2,668,l),
(82,668,o),
(109,639,o),
(109,581,cs),
(109,95,ls,{name = hr02;}),
(109,37,o),
(82,8,o),
(2,8,c)
);
}
);
width = 733;
}
);
},
{
glyphname = exclam;
layers = (
{
layerId = "656B38CD-A67B-4E9F-B73E-02DBA5E1D64F";
shapes = (
{
closed = 1;
nodes = (
(139,651,o),
(157,609,o),
(157,84,c),
(163,84,l),
(163,609,o),
(181,651,o),
(181,677,cs),
(181,688,o),
(172,697,o),
(160,697,cs),
(148,697,o),
(139,688,o),
(139,677,cs)
);
},
{
closed = 1;
nodes = (
(132,2,o),
(144,-9,o),
(160,-9,cs),
(176,-9,o),
(188,2,o),
(188,16,cs),
(188,30,o),
(176,41,o),
(160,41,cs),
(144,41,o),
(132,30,o),
(132,16,cs)
);
}
);
width = 320;
},
{
layerId = "7832CF62-1B68-483E-9BF5-FE7E7BF8962B";
shapes = (
{
closed = 1;
nodes = (
(54,499,o),
(156,389,o),
(156,217,c),
(164,217,l),
(164,389,o),
(266,499,o),
(266,634,cs),
(266,693,o),
(219,740,o),
(160,740,cs),
(101,740,o),
(54,693,o),
(54,634,cs)
);
},
{
closed = 1;
nodes = (
(50,34,o),
(98,-9,o),
(160,-9,cs),
(222,-9,o),
(270,34,o),
(270,89,cs),
(270,144,o),
(222,187,o),
(160,187,cs),
(98,187,o),
(50,144,o),
(50,89,cs)
);
}
);
width = 320;
}
);
unicode = 33;
},
{
glyphname = question;
layers = (
{
layerId = "656B38CD-A67B-4E9F-B73E-02DBA5E1D64F";
shapes = (
{
closed = 1;
nodes = (
(228,9,o),
(240,-2,o),
(256,-2,cs),
(272,-2,o),
(284,9,o),
(284,23,cs),
(284,37,o),
(272,48,o),
(256,48,cs),
(240,48,o),
(228,37,o),
(228,23,cs)
);
},
{
closed = 1;
nodes = (
(261,148,l),
(264,221,o),
(292,254,o),
(329,306,cs),
(393,395,o),
(495,451,o),
(495,569,cs),
(495,680,o),
(413,740,o),
(306,740,cs),
(204,740,o),
(104,679,o),
(104,576,cs),
(104,548,o),
(111,521,o),
(145,521,cs),
(166,521,o),
(178,536,o),
(178,551,cs),
(178,565,o),
(166,580,o),
(147,580,cs),
(136,580,o),
(125,574,o),
(119,565,c),
(101,666,o),
(201,729,o),
(286,729,cs),
(407,729,o),
(465,660,o),
(465,568,cs),
(465,412,o),
(256,304,o),
(256,148,c)
);
}
);
width = 602;
},
{
layerId = "7832CF62-1B68-483E-9BF5-FE7E7BF8962B";
shapes = (
{
closed = 1;
nodes = (
(148,34,o),
(196,-9,o),
(258,-9,cs),
(320,-9,o),
(368,34,o),
(368,89,cs),
(368,144,o),
(320,187,o),
(258,187,cs),
(196,187,o),
(148,144,o),
(148,89,cs)
);
},
{
closed = 1;
nodes = (
(255,217,l),
(250,314,o),
(323,355,o),
(399,388,cs),
(491,428,o),
(567,472,o),
(567,567,cs),
(567,703,o),
(399,740,o),
(291,740,cs),
(164,740,o),
(30,683,o),
(30,561,cs),
(30,486,o),
(80,447,o),
(142,447,cs),
(208,447,o),
(239,491,o),
(239,536,cs),
(239,593,o),
(192,620,o),
(146,620,cs),
(122,620,o),
(98,612,o),
(79,600,c),
(79,654,o),
(140,722,o),
(223,722,cs),
(321,722,o),
(358,655,o),
(358,573,cs),
(358,441,o),
(241,350,o),
(246,217,c)
);
}
);
width = 602;
}
);
unicode = 63;
},
{
glyphname = quotesingle;
layers = (
{
background = {
shapes = (
{
closed = 1;
nodes = (
(134,549,l),
(177,569,o),
(200,609,o),
(200,650,cs),
(200,693,o),
(172,721,o),
(134,721,cs),
(97,721,o),
(80,696,o),
(80,673,cs),
(80,649,o),
(98,625,o),
(134,625,cs),
(151,625,o),
(171,633,o),
(176,645,c),
(177,641,o),
(177,635,o),
(177,633,cs,{name = hr01;}),
(177,602,o),
(161,569,o),
(130,552,c)
);
},
{
closed = 1;
nodes = (
(285,549,l),
(328,569,o),
(351,609,o),
(351,650,cs),
(351,693,o),
(323,721,o),
(285,721,cs),
(248,721,o),
(231,696,o),
(231,673,cs),
(231,649,o),
(249,625,o),
(285,625,cs),
(302,625,o),
(322,633,o),
(327,645,c),
(328,641,o),
(328,635,o),
(328,633,cs,{name = hr01;}),
(328,602,o),
(312,569,o),
(281,552,c)
);
}
);
};
layerId = "656B38CD-A67B-4E9F-B73E-02DBA5E1D64F";
shapes = (
{
closed = 1;
nodes = (
(133,531,l),
(171,560,o),
(193,611,o),
(193,650,cs),
(193,688,o),
(176,714,o),
(145,714,cs),
(128,714,o),
(116,702,o),
(116,688,cs),
(116,676,o),
(124,664,o),
(142,664,cs),
(154,664,o),
(164,671,o),
(168,682,c),
(179,672,o),
(181,659,o),
(181,640,cs),
(181,612,o),
(172,569,o),
(130,531,c)
);
}
);
width = 282;
},
{
layerId = "7832CF62-1B68-483E-9BF5-FE7E7BF8962B";
shapes = (
{
closed = 1;
nodes = (
(145,452,l),
(226,490,o),
(269,565,o),
(269,640,cs),
(269,721,o),
(215,773,o),
(145,773,cs),
(75,773,o),
(41,727,o),
(41,682,cs),
(41,637,o),
(74,593,o),
(137,593,cs),
(173,593,o),
(212,608,o),
(223,631,c),
(225,623,o),
(225,612,o),
(225,609,cs),
(225,551,o),
(196,490,o),
(137,459,c)
);
}
);
width = 282;
}
);
unicode = 39;
},
{
glyphname = quotedbl;
layers = (
{
layerId = "656B38CD-A67B-4E9F-B73E-02DBA5E1D64F";
shapes = (
{
closed = 1;
nodes = (
(117,531,l),
(155,560,o),
(177,611,o),
(177,650,cs),
(177,688,o),
(160,714,o),
(129,714,cs),
(112,714,o),
(100,702,o),
(100,688,cs),
(100,676,o),
(108,664,o),
(126,664,cs),
(138,664,o),
(148,671,o),
(152,682,c),
(163,672,o),
(165,659,o),
(165,640,cs),
(165,612,o),
(156,569,o),
(114,531,c)
);
},
{
closed = 1;
nodes = (
(247,531,l),
(285,560,o),
(307,611,o),
(307,650,cs),
(307,688,o),
(290,714,o),
(259,714,cs),
(242,714,o),
(230,702,o),
(230,688,cs),
(230,676,o),
(238,664,o),
(256,664,cs),
(268,664,o),
(278,671,o),
(282,682,c),
(293,672,o),
(295,659,o),
(295,640,cs),
(295,612,o),
(286,569,o),
(244,531,c)
);
}
);
width = 407;
},
{
layerId = "7832CF62-1B68-483E-9BF5-FE7E7BF8962B";
shapes = (
{
closed = 1;
nodes = (
(145,452,l),
(226,490,o),
(269,565,o),
(269,640,cs),
(269,721,o),
(215,773,o),
(145,773,cs),
(75,773,o),
(41,727,o),
(41,682,cs),
(41,637,o),
(74,593,o),
(137,593,cs),
(173,593,o),
(212,608,o),
(223,631,c),
(225,623,o),
(225,612,o),
(225,609,cs,{name = hr01;}),
(225,551,o),
(196,490,o),
(137,459,c)
);
},
{
closed = 1;
nodes = (
(405,452,l),
(486,490,o),
(529,565,o),
(529,640,cs),
(529,721,o),
(475,773,o),
(405,773,cs),
(335,773,o),
(301,727,o),
(301,682,cs),
(301,637,o),
(334,593,o),
(397,593,cs),
(433,593,o),
(472,608,o),
(483,631,c),
(485,623,o),
(485,612,o),
(485,609,cs),
(485,551,o),
(456,490,o),
(397,459,c)
);
}
);
width = 555;
}
);
unicode = 34;
},
{
glyphname = numbersign;
layers = (
{
layerId = "656B38CD-A67B-4E9F-B73E-02DBA5E1D64F";
shapes = (
{
closed = 1;
nodes = (
(456,489,l),
(445,489,l),
(420,347,l),
(269,347,l),
(294,489,l),
(282,489,l),
(257,347,l),
(87,347,l),
(87,335,l),
(256,335,l),
(228,178,l),
(87,178,l),
(87,167,l),
(225,167,l),
(198,8,l),
(209,8,l),
(237,167,l),
(388,167,l),
(360,8,l),
(372,8,l),
(399,167,l),
(568,167,l),
(568,178,l),
(401,178,l),
(429,335,l),
(568,335,l),
(568,347,l),
(431,347,l)
);
},
{
closed = 1;
nodes = (
(266,335,l),
(418,335,l),
(391,178,l),
(239,178,l)
);
}
);
width = 654;
},
{
layerId = "7832CF62-1B68-483E-9BF5-FE7E7BF8962B";
shapes = (
{
closed = 1;
nodes = (
(456,489,l),
(445,489,l),
(420,347,l),
(269,347,l),
(294,489,l),
(282,489,l),
(257,347,l),
(87,347,l),
(87,335,l),
(256,335,l),
(228,178,l),
(87,178,l),
(87,167,l),
(225,167,l),
(198,8,l),
(209,8,l),
(237,167,l),
(388,167,l),
(360,8,l),
(372,8,l),
(399,167,l),
(568,167,l),
(568,178,l),
(401,178,l),
(429,335,l),
(568,335,l),
(568,347,l),
(431,347,l)
);
},
{
closed = 1;
nodes = (
(266,335,l),
(418,335,l),
(391,178,l),
(239,178,l)
);
}
);
width = 654;
}
);
unicode = 35;
},
{
glyphname = at;
layers = (
{
layerId = "656B38CD-A67B-4E9F-B73E-02DBA5E1D64F";
shapes = (
{
closed = 1;
nodes = (
(512,466,l),
(512,420,l),
(509,420,l),
(496,458,o),
(458,478,o),
(416,478,cs),
(334,478,o),
(270,400,o),
(270,302,cs),
(270,228,o),
(309,145,o),
(400,145,cs),
(458,145,o),
(499,178,o),
(510,248,c),
(511,187,o),
(560,139,o),
(625,139,cs),
(741,139,o),
(805,231,o),
(805,349,cs),
(805,537,o),
(638,701,o),
(435,701,cs),
(223,701,o),
(50,528,o),
(50,316,cs),
(50,104,o),
(223,-69,o),
(435,-69,cs),
(511,-69,o),
(583,-47,o),
(643,-8,c),
(636,-3,l),
(578,-40,o),
(509,-61,o),
(435,-61,cs),
(227,-61,o),
(58,108,o),
(58,316,cs),
(58,524,o),
(227,693,o),
(435,693,cs),
(634,693,o),
(797,535,o),
(797,349,cs),
(797,221,o),
(713,147,o),
(640,147,cs),
(594,147,o),
(537,166,o),
(537,249,cs),
(537,466,l)
);
},
{
closed = 1;
nodes = (
(471,470,o),
(502,435,o),
(508,406,c),
(508,393,o),
(508,312,o),
(508,292,cs),
(508,182,o),
(452,161,o),
(411,161,cs),
(329,161,o),
(306,245,o),
(306,308,cs),
(306,393,o),
(348,470,o),
(422,470,cs)
);
}
);
width = 855;
},
{
layerId = "7832CF62-1B68-483E-9BF5-FE7E7BF8962B";
shapes = (
{
closed = 1;
nodes = (
(470,480,l),
(462,444,l),
(461,444,l),
(456,484,o),
(425,490,o),
(397,490,cs),
(294,490,o),
(225,409,o),
(225,298,cs),
(225,200,o),
(279,132,o),
(358,132,cs),
(410,132,o),
(449,163,o),
(460,241,c),
(462,175,o),
(526,122,o),
(612,122,cs),
(736,122,o),
(805,229,o),
(805,350,cs),
(805,538,o),
(638,701,o),
(435,701,cs),
(223,701,o),
(50,528,o),
(50,316,cs),
(50,104,o),
(223,-69,o),
(435,-69,cs),
(511,-69,o),
(583,-47,o),
(643,-8,c),
(636,-3,l),
(578,-40,o),
(509,-61,o),
(435,-61,cs),
(227,-61,o),
(58,108,o),
(58,316,cs),
(58,524,o),
(227,693,o),
(435,693,cs),
(634,693,o),
(797,534,o),
(797,348,cs),
(797,228,o),
(729,152,o),
(670,152,cs),
(636,152,o),
(594,178,o),
(594,285,cs),
(594,480,l)
);
},
{
closed = 1;
nodes = (
(448,475,o),
(456,455,o),
(458,427,c),
(458,401,o),
(458,311,o),
(458,288,cs),
(458,196,o),
(430,178,o),
(413,178,cs),
(377,178,o),
(374,261,o),
(374,315,cs),
(374,383,o),
(380,475,o),
(426,475,cs)
);
}
);
width = 855;
}
);
unicode = 64;
},
{
color = (153, 255, 154, 255);
glyphname = dollar;
layers = (
{
background = {
shapes = (
{
closed = 1;
nodes = (
(367,24,o),
(498,111,o),
(498,245,cs),
(498,344,o),
(427,393,o),
(312,459,cs),
(230,505,o),
(168,536,o),
(168,580,cs),
(168,621,o),
(222,635,o),
(262,635,cs),
(339,635,o),
(422,582,o),
(422,468,cs),
(422,462,ls),
(422,457,o),
(424,455,o),
(427,455,c),
(429,455,o),
(431,457,o),
(431,462,cs),
(431,646,ls),
(431,650,o),
(429,652,o),
(427,652,c),
(418,652,o),
(426,619,o),
(396,619,cs),
(369,619,o),
(326,642,o),
(259,642,cs),
(135,642,o),
(54,564,o),
(54,482,cs),
(54,406,o),
(123,359,o),
(218,305,cs),
(305,256,o),
(370,223,o),
(370,151,cs),
(370,77,o),
(299,31,o),
(235,31,cs),
(129,31,o),
(73,84,o),
(73,132,c),
(91,119,o),
(116,113,o),
(139,113,cs),
(186,113,o),
(231,140,o),
(231,197,cs),
(231,246,o),
(198,283,o),
(140,283,cs),
(73,283,o),
(25,234,o),
(25,172,cs),
(25,94,o),
(101,24,o),
(235,24,cs)
);
},
{
closed = 1;
nodes = (
(59,291,o),
(21,251,o),
(18,200,cs),
(14,115,o),
(91,24,o),
(235,24,cs),
(389,24,o),
(498,107,o),
(498,235,cs),
(498,329,o),
(450,385,o),
(312,459,cs),
(230,505,o),
(168,536,o),
(168,580,cs),
(168,621,o),
(222,635,o),
(262,635,cs),
(339,635,o),
(422,582,o),
(422,468,cs),
(422,458,l),
(431,458,l),
(431,646,l),
(424,646,l),
(424,631,o),
(414,619,o),
(396,619,cs),
(369,619,o),
(326,642,o),
(259,642,cs),
(135,642,o),
(54,564,o),
(54,482,cs),
(54,406,o),
(104,361,o),
(213,299,cs),
(299,249,o),
(366,219,o),
(366,141,cs),
(366,73,o),
(322,31,o),
(235,31,cs),
(129,31,o),
(59,104,o),
(57,159,c),
(73,148,o),
(94,143,o),
(114,143,cs),
(156,143,o),
(195,166,o),
(195,216,cs),
(195,259,o),
(166,291,o),
(115,291,cs)
);
}
);
};
layerId = "656B38CD-A67B-4E9F-B73E-02DBA5E1D64F";
shapes = (
{
closed = 1;
nodes = (
(258,-101,l),
(268,-101,l),
(268,746,l),
(258,746,l)
);
},
{
closed = 1;
nodes = (
(149,39,o),
(92,90,o),
(100,168,c),
(108,163,o),
(117,158,o),
(126,158,cs),
(141,158,o),
(157,167,o),
(157,186,cs),
(157,200,o),
(146,216,o),
(125,216,cs),
(95,216,o),
(87,191,o),
(87,167,cs),
(87,76,o),
(164,33,o),
(250,33,cs),
(343,33,o),
(413,94,o),
(413,185,cs),
(413,274,o),
(346,315,o),
(258,384,cs),
(197,432,o),
(138,463,o),
(138,532,cs),
(138,597,o),
(188,636,o),
(259,636,cs),
(336,636,o),
(375,588,o),
(382,522,c),
(382,515,l),
(386,515,l,{name = hr01;}),
(386,639,l),
(381,639,l),
(380,620,o),
(376,613,o),
(368,613,cs),
(340,613,o),
(324,643,o),
(259,643,cs),
(183,643,o),
(121,595,o),
(121,515,cs),
(121,457,o),
(151,423,o),
(244,355,cs),
(326,294,o),
(390,256,o),
(390,171,cs),
(390,85,o),
(310,39,o),
(244,39,cs)
);
}
);
width = 493;
},
{
layerId = "7832CF62-1B68-483E-9BF5-FE7E7BF8962B";
shapes = (
{
closed = 1;
nodes = (
(283,-101,l),
(293,-101,l),
(293,746,l),
(283,746,l)
);
},
{
closed = 1;
nodes = (
(154,31,o),
(84,104,o),
(82,159,c),
(98,148,o),
(119,143,o),
(139,143,cs),
(181,143,o),
(220,166,o),
(220,216,cs),
(220,259,o),
(191,291,o),
(140,291,cs),
(84,291,o),
(46,251,o),
(43,200,cs),
(39,115,o),
(116,24,o),
(260,24,cs),
(414,24,o),
(523,107,o),
(523,235,cs),
(523,329,o),
(475,385,o),
(337,459,cs),
(255,505,o),
(193,536,o),
(193,580,cs),
(193,621,o),
(247,635,o),
(287,635,cs),
(364,635,o),
(447,582,o),
(447,468,cs),
(447,458,l),
(456,458,l),
(456,646,l),
(449,646,l),
(449,631,o),
(439,619,o),
(421,619,cs),
(394,619,o),
(351,642,o),
(284,642,cs),
(160,642,o),
(79,564,o),
(79,482,cs),
(79,406,o),
(129,361,o),
(238,299,cs),
(324,249,o),
(391,219,o),
(391,141,cs),
(391,73,o),
(347,31,o),
(260,31,cs)
);
}
);
width = 573;
}
);
unicode = 36;
},
{
glyphname = Euro;
layers = (
{
layerId = "656B38CD-A67B-4E9F-B73E-02DBA5E1D64F";
shapes = (
{
closed = 1;
nodes = (
(590,127,l),
(554,77,o),
(475,47,o),
(406,47,cs),
(221,47,o),
(150,202,o),
(150,341,cs),
(150,469,o),
(220,629,o),
(417,629,cs),
(498,629,o),
(584,599,o),
(584,514,c),
(584,512,l),
(584,511,o),
(585,510,o),
(586,510,c),
(587,510,o),
(587,511,o),
(587,512,c,{name = hr01;}),
(587,632,l),
(586,632,o),
(583,632,o),
(583,632,c),
(581,608,o),
(577,600,o),
(569,600,cs),
(555,600,o),
(496,636,o),
(417,636,cs),
(244,636,o),
(124,512,o),
(124,339,cs),
(124,156,o),
(250,40,o),
(396,40,cs),
(481,40,o),
(552,72,o),
(590,117,c)
);
},
{
closed = 1;
nodes = (
(472,371,l),
(472,379,l),
(6,379,l),
(6,371,l)
);
},
{
closed = 1;
nodes = (
(472,281,l),
(472,289,l),
(6,289,l),
(6,281,l)
);
}
);
width = 668;
},
{
layerId = "7832CF62-1B68-483E-9BF5-FE7E7BF8962B";
shapes = (
{
closed = 1;
nodes = (
(590,174,l),
(563,107,o),
(517,81,o),
(446,81,cs),
(335,81,o),
(275,144,o),
(275,358,cs),
(275,565,o),
(331,633,o),
(414,633,cs),
(489,633,o),
(576,578,o),
(576,459,cs),
(576,452,ls),
(576,447,o),
(578,445,o),
(581,445,c),
(583,445,o),
(586,447,o),
(586,452,cs),
(586,645,ls),
(586,649,o),
(583,651,o),
(581,651,c),
(571,651,o),
(581,617,o),
(547,617,cs),
(519,617,o),
(481,641,o),
(399,641,cs),
(212,641,o),
(61,514,o),
(61,336,cs),
(61,180,o),
(177,37,o),
(372,37,cs),
(493,37,o),
(573,92,o),
(598,174,c)
);
},
{
closed = 1;
nodes = (
(472,366,l),
(472,379,l),
(6,379,l),
(6,366,l)
);
},
{
closed = 1;
nodes = (
(472,281,l),
(472,294,l),
(6,294,l),
(6,281,l)
);
}
);
width = 668;
}
);
unicode = 8364;
},
{
glyphname = percent;
layers = (
{
layerId = "656B38CD-A67B-4E9F-B73E-02DBA5E1D64F";
shapes = (
{
closed = 1;
nodes = (
(196,574,l),
(157,574,o),
(138,541,o),
(138,509,cs),
(138,473,o),
(165,419,o),
(269,419,cs),
(385,419,o),
(491,487,o),
(526,552,cs),
(531,562,o),
(526,568,o),
(518,568,cs),
(514,568,o),
(510,566,o),
(506,561,cs),
(446,476,o),
(372,426,o),
(268,426,cs),
(167,426,o),
(144,476,o),
(144,509,cs),
(144,538,o),
(161,568,o),
(196,568,c)
);
},
{
closed = 1;
nodes = (
(512,320,o),
(538,267,o),
(538,213,cs),
(538,156,o),
(510,98,o),
(453,98,cs),
(393,98,o),
(366,154,o),
(366,210,cs),
(366,265,o),
(393,320,o),
(453,320,cs)
);
},
{
closed = 1;
nodes = (
(337,143,o),
(389,92,o),
(453,92,cs),
(516,92,o),
(568,143,o),
(568,209,cs),
(568,273,o),
(516,326,o),
(453,326,cs),
(389,326,o),
(337,273,o),
(337,209,cs)
);
},
{
closed = 1;
nodes = (
(506,561,l),
(120,88,l),
(129,88,l),
(516,561,l)
);
},
{
closed = 1;
nodes = (
(255,568,o),
(281,515,o),
(281,461,cs),
(281,404,o),
(252,346,o),
(196,346,cs),
(136,346,o),
(109,402,o),
(109,458,cs),
(109,513,o),
(136,568,o),
(196,568,cs)
);
},
{
closed = 1;
nodes = (
(80,391,o),
(132,340,o),
(196,340,cs),
(259,340,o),
(311,391,o),
(311,457,cs),
(311,521,o),
(259,574,o),
(196,574,cs),
(132,574,o),
(80,521,o),
(80,457,cs)
);
}
);
width = 648;
},
{
layerId = "7832CF62-1B68-483E-9BF5-FE7E7BF8962B";
shapes = (
{
closed = 1;
nodes = (
(169,574,l),
(149,574,o),
(124,542,o),
(124,509,cs),
(124,473,o),
(154,435,o),
(264,435,cs),
(365,435,o),
(485,472,o),
(538,559,cs),
(552,582,o),
(539,600,o),
(519,600,cs),
(512,600,o),
(502,596,o),
(494,586,cs),
(410,479,o),
(349,444,o),
(254,444,cs),
(157,444,o),
(131,477,o),
(130,508,c),
(130,539,o),
(152,568,o),
(169,568,c)
);
},
{
closed = 1;
nodes = (
(457,320,o),
(471,267,o),
(471,213,cs),
(471,156,o),
(456,98,o),
(426,98,cs),
(394,98,o),
(379,154,o),
(379,210,cs),
(379,265,o),
(394,320,o),
(426,320,cs)
);
},
{
closed = 1;
nodes = (
(293,143,o),
(353,92,o),
(426,92,cs),
(498,92,o),
(558,143,o),
(558,209,cs),
(558,273,o),
(498,326,o),
(426,326,cs),
(353,326,o),
(293,273,o),
(293,209,cs)
);
},
{
closed = 1;
nodes = (
(494,586,l),
(88,88,l),
(97,88,l),
(504,586,l)
);
},
{
closed = 1;
nodes = (
(200,568,o),
(214,515,o),
(214,461,cs),
(214,404,o),
(199,346,o),
(169,346,cs),
(137,346,o),
(122,402,o),
(122,458,cs),
(122,513,o),
(137,568,o),
(169,568,cs)
);
},
{
closed = 1;
nodes = (
(36,391,o),
(96,340,o),
(169,340,cs),
(241,340,o),
(301,391,o),
(301,457,cs),
(301,521,o),
(241,574,o),
(169,574,cs),
(96,574,o),
(36,521,o),
(36,457,cs)
);
}
);
width = 599;
}
);
unicode = 37;
},
{
glyphname = ampersand;
layers = (
{
layerId = "656B38CD-A67B-4E9F-B73E-02DBA5E1D64F";
shapes = (
{
closed = 1;
nodes = (
(252,401,l),
(132,342,o),
(29,275,o),
(29,149,cs),
(29,42,o),
(113,-18,o),
(206,-18,cs),
(279,-18,o),
(373,26,o),
(432,125,cs),
(489,214,o),
(529,388,o),
(662,388,cs),
(665,388,o),
(672,388,o),
(670,387,c),
(659,384,o),
(653,371,o),
(653,358,cs),
(653,338,o),
(668,328,o),
(683,328,cs),
(700,328,o),
(716,339,o),
(716,362,cs),
(716,393,o),
(688,402,o),
(662,402,cs),
(533,402,o),
(485,227,o),
(432,137,cs),
(430,135,o),
(429,133,o),
(428,131,cs),
(376,46,o),
(303,-2,o),
(222,-2,cs),
(111,-2,o),
(55,87,o),
(55,165,cs),
(55,287,o),
(180,356,o),
(255,396,c)
);
},
{
closed = 1;
nodes = (
(258,398,l),
(335,434,o),
(439,477,o),
(439,581,cs),
(439,649,o),
(379,683,o),
(319,683,cs),
(260,683,o),
(195,638,o),
(195,547,cs),
(195,452,o),
(292,322,o),
(341,243,cs),
(422,112,o),
(495,-9,o),
(609,-9,cs),
(724,-9,o),
(775,105,o),
(773,167,c),
(770,167,l),
(766,91,o),
(716,12,o),
(621,12,cs),
(517,12,o),
(449,133,o),
(365,256,cs),
(316,328,o),
(217,476,o),
(217,565,cs),
(217,633,o),
(253,677,o),
(318,677,cs),
(376,677,o),
(411,644,o),
(411,581,cs),
(411,490,o),
(330,434,o),
(255,403,c)
);
}
);
width = 789;
},
{
layerId = "7832CF62-1B68-483E-9BF5-FE7E7BF8962B";
shapes = (
{
closed = 1;
nodes = (
(261,393,l),
(148,362,o),
(40,283,o),
(40,164,cs),
(40,48,o),
(142,-9,o),
(245,-9,cs),
(344,-9,o),
(493,65,o),
(549,280,cs),
(574,386,o),
(643,437,o),
(721,437,cs),
(724,437,o),
(735,437,o),
(744,435,c),
(710,423,o),
(689,381,o),
(689,339,cs),
(689,276,o),
(738,242,o),
(788,242,cs),
(841,242,o),
(895,279,o),
(895,355,cs),
(895,427,o),
(839,483,o),
(753,483,cs),
(660,483,o),
(586,419,o),
(548,315,cs),
(544,305,o),
(542,297,o),
(539,288,cs),
(506,186,o),
(465,81,o),
(382,81,cs),
(305,81,o),
(200,182,o),
(200,288,cs),
(200,332,o),
(218,366,o),
(264,383,c)
);
},
{
closed = 1;
nodes = (
(455,430,l),
(557,462,o),
(597,509,o),
(597,572,cs),
(597,644,o),
(508,683,o),
(428,683,cs),
(330,683,o),
(210,633,o),
(210,505,cs),
(210,402,o),
(291,306,o),
(349,232,cs),
(485,57,o),
(552,-9,o),
(663,-9,cs),
(795,-9,o),
(862,140,o),
(860,220,c),
(852,220,l),
(846,176,o),
(828,127,o),
(779,127,cs),
(705,127,o),
(609,232,o),
(517,355,cs),
(378,541,o),
(372,581,o),
(372,608,cs),
(372,647,o),
(397,672,o),
(445,672,cs),
(507,672,o),
(531,625,o),
(531,564,cs),
(531,467,o),
(467,443,o),
(449,440,c)
);
}
);
width = 909;
}
);
unicode = 38;
},
{
glyphname = parenleft;
layers = (
{
background = {
shapes = (
{
closed = 1;
nodes = (
(50,-31,o),
(231,-188,o),
(429,-214,c),
(429,-203,l),
(312,-183,o),
(230,-62,o),
(230,259,cs),
(230,580,o),
(312,701,o),
(429,721,c),
(429,732,l),
(231,706,o),
(50,549,o),
(50,259,cs)
);
}
);
};
layerId = "656B38CD-A67B-4E9F-B73E-02DBA5E1D64F";
shapes = (
{
closed = 1;
nodes = (
(100,120,o),
(224,1,o),
(368,-41,c),
(370,-36,l),
(226,5,o),
(130,115,o),
(130,336,cs),
(130,557,o),
(226,667,o),
(370,708,c),
(368,713,l),
(224,671,o),
(100,552,o),
(100,336,cs)
);
}
);
width = 420;
},
{
layerId = "7832CF62-1B68-483E-9BF5-FE7E7BF8962B";
shapes = (
{
closed = 1;
nodes = (
(50,120,o),
(197,-2,o),
(368,-44,c),
(370,-36,l),
(286,5,o),
(230,115,o),
(230,336,cs),
(230,557,o),
(286,667,o),
(370,708,c),
(368,716,l),
(197,674,o),
(50,552,o),
(50,336,cs)
);
}
);
width = 450;
}
);
unicode = 40;
},
{
glyphname = parenright;
layers = (
{
layerId = "656B38CD-A67B-4E9F-B73E-02DBA5E1D64F";
shapes = (
{
closed = 1;
nodes = (
(320,552,o),
(196,671,o),
(52,713,c),
(50,708,l),
(194,667,o),
(290,557,o),
(290,336,cs),
(290,115,o),
(194,5,o),
(50,-36,c),
(52,-41,l),
(196,1,o),
(320,120,o),
(320,336,cs)
);
}
);
width = 400;
},
{
layerId = "7832CF62-1B68-483E-9BF5-FE7E7BF8962B";
shapes = (
{
closed = 1;
nodes = (
(400,552,o),
(253,674,o),
(82,716,c),
(80,708,l),
(164,667,o),
(220,557,o),
(220,336,cs),
(220,115,o),
(164,5,o),
(80,-36,c),
(82,-44,l),
(253,-2,o),
(400,120,o),
(400,336,cs)
);
}
);
width = 450;
}
);
unicode = 41;
},
{
glyphname = braceleft;
layers = (
{
background = {
shapes = (
{
closed = 1;
nodes = (
(356,552,o),
(209,674,o),
(38,716,c),
(36,708,l),
(120,667,o),
(176,557,o),
(176,336,cs),
(176,115,o),
(120,5,o),
(36,-36,c),
(38,-44,l),
(209,-2,o),
(356,120,o),
(356,336,cs)
);
}
);
};
layerId = "656B38CD-A67B-4E9F-B73E-02DBA5E1D64F";
shapes = (
{
closed = 1;
nodes = (
(130,326,l),
(159,326,o),
(193,301,o),
(193,262,cs),
(193,212,o),
(139,169,o),
(139,84,cs),
(139,28,o),
(171,-51,o),
(281,-51,cs),
(304,-51,o),
(342,-46,o),
(356,-42,c),
(353,-36,l),
(343,-40,o),
(304,-45,o),
(292,-45,cs),
(198,-45,o),
(159,2,o),
(159,56,cs),
(159,119,o),
(207,182,o),
(207,245,cs),
(207,298,o),
(171,329,o),
(139,331,c),
(139,333,l),
(171,335,o),
(207,366,o),
(207,419,cs),
(207,482,o),
(159,545,o),
(159,608,cs),
(159,662,o),
(198,709,o),
(292,709,cs),
(304,709,o),
(343,704,o),
(353,700,c),
(356,706,l),
(342,710,o),
(304,715,o),
(281,715,cs),
(171,715,o),
(139,636,o),
(139,580,cs),
(139,495,o),
(193,452,o),
(193,402,cs),
(193,363,o),
(159,338,o),
(130,338,c)
);
}
);
width = 417;
},
{
layerId = "7832CF62-1B68-483E-9BF5-FE7E7BF8962B";
shapes = (
{
closed = 1;
nodes = (
(64,326,l),
(95,326,o),
(131,308,o),
(131,279,cs),
(131,239,o),
(60,191,o),
(60,111,cs),
(60,43,o),
(111,-52,o),
(278,-52,cs),
(302,-52,o),
(344,-50,o),
(357,-47,c),
(353,-39,l),
(347,-40,o),
(316,-41,o),
(307,-41,cs),
(256,-41,o),
(231,-9,o),
(231,28,cs),
(231,90,o),
(302,153,o),
(302,215,cs),
(302,276,o),
(233,325,o),
(170,328,c),
(170,336,l),
(233,339,o),
(302,388,o),
(302,449,cs),
(302,511,o),
(231,574,o),
(231,636,cs),
(231,673,o),
(256,705,o),
(307,705,cs),
(316,705,o),
(347,704,o),
(353,703,c),
(357,711,l),
(344,714,o),
(302,716,o),
(278,716,cs),
(111,716,o),
(60,621,o),
(60,553,cs),
(60,473,o),
(131,425,o),
(131,385,cs),
(131,356,o),
(95,338,o),
(64,338,c)
);
}
);
width = 417;
}
);
unicode = 123;
},
{
glyphname = bar;
layers = (
{
layerId = "656B38CD-A67B-4E9F-B73E-02DBA5E1D64F";
shapes = (
{
closed = 1;
nodes = (
(150,-214,l),
(165,-214,l),
(165,732,l),
(150,732,l)
);
}
);
width = 315;
},
{
layerId = "7832CF62-1B68-483E-9BF5-FE7E7BF8962B";
shapes = (
{
closed = 1;
nodes = (
(150,-214,l),
(165,-214,l),
(165,732,l),
(150,732,l)
);
}
);
width = 315;
}
);
unicode = 124;
},
{
glyphname = braceright;
layers = (
{
layerId = "656B38CD-A67B-4E9F-B73E-02DBA5E1D64F";
shapes = (
{
closed = 1;
nodes = (
(287,338,l),
(258,338,o),
(224,363,o),
(224,402,cs),
(224,452,o),
(278,495,o),
(278,580,cs),
(278,636,o),
(246,715,o),
(136,715,cs),
(113,715,o),
(75,710,o),
(61,706,c),
(64,700,l),
(74,704,o),
(113,709,o),
(125,709,cs),
(219,709,o),
(258,662,o),
(258,608,cs),
(258,545,o),
(210,482,o),
(210,419,cs),
(210,366,o),
(246,335,o),
(278,333,c),
(278,331,l),
(246,329,o),
(210,298,o),
(210,245,cs),
(210,182,o),
(258,119,o),
(258,56,cs),
(258,2,o),
(219,-45,o),
(125,-45,cs),
(113,-45,o),
(74,-40,o),
(64,-36,c),
(61,-42,l),
(75,-46,o),
(113,-51,o),
(136,-51,cs),
(246,-51,o),
(278,28,o),
(278,84,cs),
(278,169,o),
(224,212,o),
(224,262,cs),
(224,301,o),
(258,326,o),
(287,326,c)
);
}
);
width = 417;
},
{
layerId = "7832CF62-1B68-483E-9BF5-FE7E7BF8962B";
shapes = (
{
closed = 1;
nodes = (
(353,338,l),
(322,338,o),
(286,356,o),
(286,385,cs),
(286,425,o),
(357,473,o),
(357,553,cs),
(357,621,o),
(306,716,o),
(139,716,cs),
(115,716,o),
(73,714,o),
(60,711,c),
(64,703,l),
(70,704,o),
(101,705,o),
(110,705,cs),
(161,705,o),
(186,673,o),
(186,636,cs),
(186,574,o),
(115,511,o),
(115,449,cs),
(115,388,o),
(184,339,o),
(247,336,c),
(247,328,l),
(184,325,o),
(115,276,o),
(115,215,cs),
(115,153,o),
(186,90,o),
(186,28,cs),
(186,-9,o),
(161,-41,o),
(110,-41,cs),
(101,-41,o),
(70,-40,o),
(64,-39,c),
(60,-47,l),
(73,-50,o),
(115,-52,o),
(139,-52,cs),
(306,-52,o),
(357,43,o),
(357,111,cs),
(357,191,o),
(286,239,o),
(286,279,cs),
(286,308,o),
(322,326,o),
(353,326,c)
);
}
);
width = 417;
}
);
unicode = 125;
},
{
glyphname = bracketleft;
layers = (
{
background = {
shapes = (
{
closed = 1;
nodes = (
(357,191,o),
(286,239,o),
(286,279,cs),
(286,308,o),
(322,326,o),
(353,326,c),
(353,338,l),
(322,338,o),
(286,356,o),
(286,385,cs),
(286,425,o),
(357,473,o),
(357,553,cs),
(357,621,o),
(306,716,o),
(139,716,cs),
(115,716,o),
(73,714,o),
(60,711,c),
(64,703,l),
(70,704,o),
(101,705,o),
(110,705,cs),
(161,705,o),
(186,673,o),
(186,636,cs),
(186,574,o),
(115,511,o),
(115,449,cs),
(115,388,o),
(184,339,o),
(247,336,c),
(247,328,l),
(184,325,o),
(115,276,o),
(115,215,cs),
(115,153,o),
(186,90,o),
(186,28,cs),
(186,-9,o),
(161,-41,o),
(110,-41,cs),
(101,-41,o),
(70,-40,o),
(64,-39,c),
(60,-47,l),
(73,-50,o),
(115,-52,o),
(139,-52,cs),
(306,-52,o),
(357,43,o),
(357,111,cs)
);
}
);
};
layerId = "656B38CD-A67B-4E9F-B73E-02DBA5E1D64F";
shapes = (
{
closed = 1;
nodes = (
(218,-37,l),
(125,-33,l),
(125,697,l),
(218,701,l),
(218,705,l),
(100,705,l),
(100,-41,l),
(218,-41,l)
);
}
);
width = 318;
},
{
layerId = "7832CF62-1B68-483E-9BF5-FE7E7BF8962B";
shapes = (
{
closed = 1;
nodes = (
(340,-33,l),
(267,-31,l),
(267,695,l),
(340,697,l),
(340,705,l),
(80,705,l),
(80,-41,l),
(340,-41,l)
);
}
);
width = 380;
}
);
unicode = 91;
},
{
glyphname = bracketright;
layers = (
{
layerId = "656B38CD-A67B-4E9F-B73E-02DBA5E1D64F";
shapes = (
{
closed = 1;
nodes = (
(100,-37,l),
(100,-41,l),
(218,-41,l),
(218,705,l),
(100,705,l),
(100,701,l),
(193,697,l),
(193,-33,l)
);
}
);
width = 318;
},
{
layerId = "7832CF62-1B68-483E-9BF5-FE7E7BF8962B";
shapes = (
{
closed = 1;
nodes = (
(40,-33,l),
(40,-41,l),
(300,-41,l),
(300,705,l),
(40,705,l),
(40,697,l),
(113,695,l),
(113,-31,l)
);
}
);
width = 380;
}
);
unicode = 93;
},
{
glyphname = quoteleft;
layers = (
{
layerId = "656B38CD-A67B-4E9F-B73E-02DBA5E1D64F";
shapes = (
{
closed = 1;
nodes = (
(160,701,l),
(122,672,o),
(100,621,o),
(100,582,cs),
(100,544,o),
(117,518,o),
(148,518,cs),
(165,518,o),
(177,530,o),
(177,544,cs),
(177,556,o),
(169,568,o),
(151,568,cs),
(139,568,o),
(129,561,o),
(125,550,c),
(114,560,o),
(112,573,o),
(112,592,cs),
(112,620,o),
(121,663,o),
(163,701,c)
);
}
);
width = 277;
},
{
layerId = "7832CF62-1B68-483E-9BF5-FE7E7BF8962B";
shapes = (
{
closed = 1;
nodes = (
(158,773,l),
(77,735,o),
(34,660,o),
(34,585,cs),
(34,504,o),
(88,452,o),
(158,452,cs),
(228,452,o),
(262,498,o),
(262,543,cs),
(262,588,o),
(229,632,o),
(166,632,cs),
(130,632,o),
(91,617,o),
(80,594,c),
(78,602,o),
(78,613,o),
(78,616,cs),
(78,674,o),
(107,735,o),
(166,766,c)
);
}
);
width = 296;
}
);
unicode = 8216;
},
{
glyphname = quoteright;
layers = (
{
layerId = "656B38CD-A67B-4E9F-B73E-02DBA5E1D64F";
shapes = (
{
closed = 1;
nodes = (
(138,452,l),
(176,481,o),
(198,532,o),
(198,571,cs),
(198,609,o),
(181,635,o),
(150,635,cs),
(133,635,o),
(121,623,o),
(121,609,cs),
(121,597,o),
(129,585,o),
(147,585,cs),
(159,585,o),
(169,592,o),
(173,603,c),
(184,593,o),
(186,580,o),
(186,561,cs),
(186,533,o),
(177,490,o),
(135,452,c)
);
}
);
width = 296;
},
{
layerId = "7832CF62-1B68-483E-9BF5-FE7E7BF8962B";
shapes = (
{
closed = 1;
nodes = (
(138,452,l),
(219,490,o),
(262,565,o),
(262,640,cs),
(262,721,o),
(208,773,o),
(138,773,cs),
(68,773,o),
(34,727,o),
(34,682,cs),
(34,637,o),
(67,593,o),
(130,593,cs),
(166,593,o),
(205,608,o),
(216,631,c),
(218,623,o),
(218,612,o),
(218,609,cs,{name = hr01;}),
(218,551,o),
(189,490,o),
(130,459,c)
);
}
);
width = 296;
}
);
unicode = 8217;
},
{
glyphname = quotedblleft;
layers = (
{
layerId = "656B38CD-A67B-4E9F-B73E-02DBA5E1D64F";
shapes = (
{
closed = 1;
nodes = (
(290,701,l),
(252,672,o),
(230,621,o),
(230,582,cs),
(230,544,o),
(247,518,o),
(278,518,cs),
(295,518,o),
(307,530,o),
(307,544,cs),
(307,556,o),
(299,568,o),
(281,568,cs),
(269,568,o),
(259,561,o),
(255,550,c),
(244,560,o),
(242,573,o),
(242,592,cs),
(242,620,o),
(251,663,o),
(293,701,c)
);
},
{
closed = 1;
nodes = (
(160,701,l),
(122,672,o),
(100,621,o),
(100,582,cs),
(100,544,o),
(117,518,o),
(148,518,cs),
(165,518,o),
(177,530,o),
(177,544,cs),
(177,556,o),
(169,568,o),
(151,568,cs),
(139,568,o),
(129,561,o),
(125,550,c),
(114,560,o),
(112,573,o),
(112,592,cs),
(112,620,o),
(121,663,o),
(163,701,c)
);
}
);
width = 407;
},
{
layerId = "7832CF62-1B68-483E-9BF5-FE7E7BF8962B";
shapes = (
{
closed = 1;
nodes = (
(457,773,l),
(376,735,o),
(333,660,o),
(333,585,cs),
(333,504,o),
(387,452,o),
(457,452,cs),
(527,452,o),
(561,498,o),
(561,543,cs),
(561,588,o),
(528,632,o),
(465,632,cs),
(429,632,o),
(390,617,o),
(379,594,c),
(377,602,o),
(377,613,o),
(377,616,cs),
(377,674,o),
(406,735,o),
(465,766,c)
);
},
{
closed = 1;
nodes = (
(197,773,l),
(116,735,o),
(73,660,o),
(73,585,cs),
(73,504,o),
(127,452,o),
(197,452,cs),
(267,452,o),
(301,498,o),
(301,543,cs),
(301,588,o),
(268,632,o),
(205,632,cs),
(169,632,o),
(130,617,o),
(119,594,c),
(117,602,o),
(117,613,o),
(117,616,cs),
(117,674,o),
(146,735,o),
(205,766,c)
);
}
);
width = 634;
}
);
unicode = 8220;
},
{
glyphname = quotedblright;
layers = (
{
layerId = "656B38CD-A67B-4E9F-B73E-02DBA5E1D64F";
shapes = (
{
closed = 1;
nodes = (
(117,531,l),
(155,560,o),
(177,611,o),
(177,650,cs),
(177,688,o),
(160,714,o),
(129,714,cs),
(112,714,o),
(100,702,o),
(100,688,cs),
(100,676,o),
(108,664,o),
(126,664,cs),
(138,664,o),
(148,671,o),
(152,682,c),
(163,672,o),
(165,659,o),
(165,640,cs),
(165,612,o),
(156,569,o),
(114,531,c)
);
},
{
closed = 1;
nodes = (
(247,531,l),
(285,560,o),
(307,611,o),
(307,650,cs),
(307,688,o),
(290,714,o),
(259,714,cs),
(242,714,o),
(230,702,o),
(230,688,cs),
(230,676,o),
(238,664,o),
(256,664,cs),
(268,664,o),
(278,671,o),
(282,682,c),
(293,672,o),
(295,659,o),
(295,640,cs),
(295,612,o),
(286,569,o),
(244,531,c)
);
}
);
width = 407;
},
{
layerId = "7832CF62-1B68-483E-9BF5-FE7E7BF8962B";
shapes = (
{
closed = 1;
nodes = (
(177,452,l),
(258,490,o),
(301,565,o),
(301,640,cs),
(301,721,o),
(247,773,o),
(177,773,cs),
(107,773,o),
(73,727,o),
(73,682,cs),
(73,637,o),
(106,593,o),
(169,593,cs),
(205,593,o),
(244,608,o),
(255,631,c),
(257,623,o),
(257,612,o),
(257,609,cs,{name = hr01;}),
(257,551,o),
(228,490,o),
(169,459,c)
);
},
{
closed = 1;
nodes = (
(437,452,l),
(518,490,o),
(561,565,o),
(561,640,cs),
(561,721,o),
(507,773,o),
(437,773,cs),
(367,773,o),
(333,727,o),
(333,682,cs),
(333,637,o),
(366,593,o),
(429,593,cs),
(465,593,o),
(504,608,o),
(515,631,c),
(517,623,o),
(517,612,o),
(517,609,cs),
(517,551,o),
(488,490,o),
(429,459,c)
);
}
);
width = 634;
}
);
unicode = 8221;
},
{
glyphname = quotesinglbase;
layers = (
{
layerId = "656B38CD-A67B-4E9F-B73E-02DBA5E1D64F";
shapes = (
{
closed = 1;
nodes = (
(138,-143,l),
(176,-114,o),
(198,-63,o),
(198,-24,cs),
(198,14,o),
(181,40,o),
(150,40,cs),
(133,40,o),
(121,28,o),
(121,14,cs),
(121,2,o),
(129,-10,o),
(147,-10,cs),
(159,-10,o),
(169,-3,o),
(173,8,c),
(184,-2,o),
(186,-15,o),
(186,-34,cs),
(186,-62,o),
(177,-105,o),
(135,-143,c)
);
}
);
width = 296;
},
{
layerId = "7832CF62-1B68-483E-9BF5-FE7E7BF8962B";
shapes = (
{
closed = 1;
nodes = (
(138,-143,l),
(219,-105,o),
(262,-30,o),
(262,45,cs),
(262,126,o),
(208,178,o),
(138,178,cs),
(68,178,o),
(34,132,o),
(34,87,cs),
(34,42,o),
(67,-2,o),
(130,-2,cs),
(166,-2,o),
(205,13,o),
(216,36,c),
(218,28,o),
(218,17,o),
(218,14,cs,{name = hr01;}),
(218,-44,o),
(189,-105,o),
(130,-136,c)
);
}
);
width = 296;
}
);
unicode = 8218;
},
{
glyphname = quotedblbase;
layers = (
{
layerId = "656B38CD-A67B-4E9F-B73E-02DBA5E1D64F";
shapes = (
{
closed = 1;
nodes = (
(117,-135,l),
(155,-106,o),
(177,-55,o),
(177,-16,cs),
(177,22,o),
(160,48,o),
(129,48,cs),
(112,48,o),
(100,36,o),
(100,22,cs),
(100,10,o),
(108,-2,o),
(126,-2,cs),
(138,-2,o),
(148,5,o),
(152,16,c),
(163,6,o),
(165,-7,o),
(165,-26,cs),
(165,-54,o),
(156,-97,o),
(114,-135,c)
);
},
{
closed = 1;
nodes = (
(247,-135,l),
(285,-106,o),
(307,-55,o),
(307,-16,cs),
(307,22,o),
(290,48,o),
(259,48,cs),
(242,48,o),
(230,36,o),
(230,22,cs),
(230,10,o),
(238,-2,o),
(256,-2,cs),
(268,-2,o),
(278,5,o),
(282,16,c),
(293,6,o),
(295,-7,o),
(295,-26,cs),
(295,-54,o),
(286,-97,o),
(244,-135,c)
);
}
);
width = 407;
},
{
layerId = "7832CF62-1B68-483E-9BF5-FE7E7BF8962B";
shapes = (
{
closed = 1;
nodes = (
(177,-143,l),
(258,-105,o),
(301,-30,o),
(301,45,cs),
(301,126,o),
(247,178,o),
(177,178,cs),
(107,178,o),
(73,132,o),
(73,87,cs),
(73,42,o),
(106,-2,o),
(169,-2,cs),
(205,-2,o),
(244,13,o),
(255,36,c),
(257,28,o),
(257,17,o),
(257,14,cs),
(257,-44,o),
(228,-105,o),
(169,-136,c)
);
},
{
closed = 1;
nodes = (
(437,-143,l),
(518,-105,o),
(561,-30,o),
(561,45,cs),
(561,126,o),
(507,178,o),
(437,178,cs),
(367,178,o),
(333,132,o),
(333,87,cs),
(333,42,o),
(366,-2,o),
(429,-2,cs),
(465,-2,o),
(504,13,o),
(515,36,c),
(517,28,o),
(517,17,o),
(517,14,cs),
(517,-44,o),
(488,-105,o),
(429,-136,c)
);
}
);
width = 634;
}
);
unicode = 8222;
},
{
glyphname = bullet;
layers = (
{
layerId = "656B38CD-A67B-4E9F-B73E-02DBA5E1D64F";
shapes = (
{
closed = 1;
nodes = (
(160,384,l),
(170,352,l),
(206,343,l),
(170,334,l),
(160,302,l),
(151,334,l),
(114,343,l),
(151,352,l)
);
},
{
closed = 1;
nodes = (
(99,312,o),
(125,288,o),
(160,288,cs),
(195,288,o),
(221,312,o),
(221,343,cs),
(221,374,o),
(195,398,o),
(160,398,cs),
(125,398,o),
(99,374,o),
(99,343,cs)
);
}
);
width = 320;
},
{
layerId = "7832CF62-1B68-483E-9BF5-FE7E7BF8962B";
shapes = (
{
closed = 1;
nodes = (
(160,409,l),
(171,353,l),
(234,343,l),
(171,333,l),
(160,276,l),
(150,333,l),
(86,343,l),
(150,353,l)
);
},
{
closed = 1;
nodes = (
(40,283,o),
(92,236,o),
(160,236,cs),
(228,236,o),
(280,283,o),
(280,343,cs),
(280,403,o),
(228,450,o),
(160,450,cs),
(92,450,o),
(40,403,o),
(40,343,cs)
);
}
);
width = 320;
}
);
unicode = 8226;
},
{
glyphname = underscore;
layers = (
{
layerId = "656B38CD-A67B-4E9F-B73E-02DBA5E1D64F";
shapes = (
{
closed = 1;
nodes = (
(557,-30,l,{name = hr01;}),
(557,-17,l,{name = hr02;}),
(73,-17,l),
(73,-30,l,{name = hr03;})
);
}
);
width = 630;
},
{
layerId = "7832CF62-1B68-483E-9BF5-FE7E7BF8962B";
shapes = (
{
closed = 1;
nodes = (
(557,-30,l,{name = hr01;}),
(557,-17,l,{name = hr02;}),
(73,-17,l),
(73,-30,l,{name = hr03;})
);
}
);
width = 630;
}
);
unicode = 95;
},
{
glyphname = endash;
layers = (
{
layerId = "656B38CD-A67B-4E9F-B73E-02DBA5E1D64F";
shapes = (
{
closed = 1;
nodes = (
(421,323,l,{name = hr01;}),
(421,336,l,{name = hr02;}),
(55,336,l),
(55,323,l,{name = hr03;})
);
}
);
width = 476;
},
{
layerId = "7832CF62-1B68-483E-9BF5-FE7E7BF8962B";
shapes = (
{
closed = 1;
nodes = (
(421,323,l,{name = hr01;}),
(421,336,l,{name = hr02;}),
(55,336,l),
(55,323,l,{name = hr03;})
);
}
);
width = 476;
}
);
unicode = 8211;
},
{
glyphname = emdash;
layers = (
{
layerId = "656B38CD-A67B-4E9F-B73E-02DBA5E1D64F";
shapes = (
{
closed = 1;
nodes = (
(576,323,l,{name = hr01;}),
(576,336,l,{name = hr02;}),
(75,336,l),
(75,323,l,{name = hr03;})
);
}
);
width = 651;
},
{
layerId = "7832CF62-1B68-483E-9BF5-FE7E7BF8962B";
shapes = (
{
closed = 1;
nodes = (
(576,323,l,{name = hr01;}),
(576,336,l,{name = hr02;}),
(75,336,l),
(75,323,l,{name = hr03;})
);
}
);
width = 651;
}
);
unicode = 8212;
},
{
glyphname = macron;
layers = (
{
layerId = "656B38CD-A67B-4E9F-B73E-02DBA5E1D64F";
shapes = (
{
closed = 1;
nodes = (
(55,772,l),
(423,772,l),
(423,785,l),
(55,785,l)
);
}
);
width = 478;
},
{
layerId = "7832CF62-1B68-483E-9BF5-FE7E7BF8962B";
shapes = (
{
closed = 1;
nodes = (
(55,772,l),
(423,772,l),
(423,785,l),
(55,785,l)
);
}
);
width = 478;
}
);
unicode = 175;
},
{
glyphname = logicalnot;
layers = (
{
layerId = "656B38CD-A67B-4E9F-B73E-02DBA5E1D64F";
shapes = (
{
closed = 1;
nodes = (
(55,345,l),
(55,332,l,{name = hr03;}),
(409,332,l,{name = hr01;}),
(409,238,l),
(421,238,l),
(421,345,l,{name = hr02;})
);
}
);
width = 476;
},
{
layerId = "7832CF62-1B68-483E-9BF5-FE7E7BF8962B";
shapes = (
{
closed = 1;
nodes = (
(55,345,l),
(55,332,l,{name = hr03;}),
(409,332,l,{name = hr01;}),
(409,238,l),
(421,238,l),
(421,345,l,{name = hr02;})
);
}
);
width = 476;
}
);
unicode = 172;
},
{
glyphname = trademark;
layers = (
{
layerId = "656B38CD-A67B-4E9F-B73E-02DBA5E1D64F";
shapes = (
{
closed = 1;
nodes = (
(610,341,l),
(628,341,l),
(765,685,ls),
(769,694,o),
(770,699,o),
(774,708,c),
(774,380,ls),
(774,348,o),
(758,353,o),
(714,349,c),
(714,346,l),
(856,346,l),
(856,349,l),
(812,353,o),
(798,348,o),
(798,380,cs),
(798,687,ls),
(798,719,o),
(812,714,o),
(856,718,c),
(856,721,l),
(774,721,l),
(633,366,ls),
(630,359,o),
(629,362,o),
(627,366,cs),
(475,721,l),
(384,721,l),
(384,718,l),
(454,712,o),
(451,713,o),
(463,686,cs)
);
},
{
closed = 1;
nodes = (
(384,346,l),
(529,346,l),
(529,349,l),
(463,352,o),
(456,346,o),
(456,410,cs),
(456,717,l),
(452,718,l),
(452,410,ls),
(452,346,o),
(442,352,o),
(384,349,c)
);
},
{
closed = 1;
nodes = (
(158,346,l),
(303,346,l),
(303,349,l),
(258,353,o),
(243,348,o),
(243,380,cs),
(243,717,l),
(258,717,l),
(366,717,o),
(366,720,o),
(369,644,c),
(372,644,l),
(372,721,l),
(89,721,l),
(89,644,l),
(92,644,l),
(96,720,o),
(96,717,o),
(204,717,c),
(218,717,l),
(218,380,ls),
(218,348,o),
(204,353,o),
(158,349,c)
);
}
);
width = 1149;
},
{
layerId = "7832CF62-1B68-483E-9BF5-FE7E7BF8962B";
shapes = (
{
closed = 1;
nodes = (
(673,336,l),
(679,336,l),
(801,658,ls),
(808,676,o),
(813,687,o),
(818,697,c),
(818,401,ls),
(818,368,o),
(802,352,o),
(758,352,c),
(758,345,l),
(999,345,l),
(999,352,l),
(954,352,o),
(939,368,o),
(939,401,cs),
(939,653,ls),
(939,713,o),
(954,714,o),
(999,714,c),
(999,721,l),
(815,721,l),
(734,503,ls),
(732,497,o),
(738,497,o),
(736,502,cs),
(647,721,l),
(428,721,l),
(428,714,l),
(506,714,o),
(515,709,o),
(544,640,cs)
);
},
{
closed = 1;
nodes = (
(428,345,l),
(605,345,l),
(605,352,l),
(528,352,o),
(515,446,o),
(515,549,cs),
(515,709,l),
(507,711,l),
(507,549,ls),
(507,486,o),
(519,352,o),
(428,352,c)
);
},
{
closed = 1;
nodes = (
(125,345,l),
(364,345,l),
(364,352,l),
(319,352,o),
(305,368,o),
(305,401,cs),
(305,716,l),
(311,716,ls),
(365,716,o),
(432,632,o),
(432,573,c),
(439,573,l),
(439,721,l),
(50,721,l),
(50,573,l),
(56,573,l),
(56,632,o),
(124,716,o),
(178,716,cs),
(184,716,l),
(184,401,ls),
(184,368,o),
(170,352,o),
(125,352,c)
);
}
);
width = 1049;
}
);
unicode = 8482;
},
{
glyphname = registered;
layers = (
{
layerId = "656B38CD-A67B-4E9F-B73E-02DBA5E1D64F";
shapes = (
{
closed = 1;
nodes = (
(50,140,o),
(219,-29,o),
(427,-29,cs),
(635,-29,o),
(805,140,o),
(805,348,cs),
(805,556,o),
(635,726,o),
(427,726,cs),
(219,726,o),
(50,556,o),
(50,348,cs)
);
},
{
closed = 1;
nodes = (
(58,552,o),
(223,718,o),
(427,718,cs),
(631,718,o),
(797,552,o),
(797,348,cs),
(797,144,o),
(631,-21,o),
(427,-21,cs),
(223,-21,o),
(58,144,o),
(58,348,cs)
);
},
{
closed = 1;
nodes = (
(271,138,l),
(431,138,l),
(431,142,l),
(381,147,o),
(364,141,o),
(364,178,cs),
(364,574,l),
(416,574,ls),
(479,574,o),
(535,545,o),
(535,474,cs),
(535,416,o),
(478,361,o),
(421,361,c),
(421,355,l),
(434,355,ls),
(462,355,o),
(479,304,o),
(498,229,cs),
(515,165,o),
(551,130,o),
(591,130,cs,{name = hr01;}),
(605,130,o),
(619,134,o),
(631,139,c),
(630,142,l),
(623,140,o),
(617,139,o),
(609,139,cs),
(568,139,o),
(543,178,o),
(521,247,cs),
(499,314,o),
(461,355,o),
(443,359,c),
(495,363,o),
(563,408,o),
(563,474,cs),
(563,544,o),
(499,580,o),
(428,580,cs),
(271,580,l),
(271,576,l),
(322,572,o),
(339,578,o),
(339,541,cs),
(339,178,ls),
(339,141,o),
(322,147,o),
(271,142,c)
);
}
);
width = 855;
},
{
layerId = "7832CF62-1B68-483E-9BF5-FE7E7BF8962B";
shapes = (
{
closed = 1;
nodes = (
(113,140,o),
(282,-29,o),
(490,-29,cs),
(698,-29,o),
(868,140,o),
(868,348,cs),
(868,556,o),
(698,726,o),
(490,726,cs),
(282,726,o),
(113,556,o),
(113,348,cs)
);
},
{
closed = 1;
nodes = (
(121,552,o),
(286,718,o),
(490,718,cs),
(694,718,o),
(860,552,o),
(860,348,cs),
(860,144,o),
(694,-21,o),
(490,-21,cs),
(286,-21,o),
(121,144,o),
(121,348,cs)
);
},
{
closed = 1;
nodes = (
(255,138,l),
(537,138,l),
(537,143,l),
(484,143,o),
(467,162,o),
(467,200,cs),
(467,574,l),
(479,574,ls),
(534,574,o),
(563,525,o),
(563,473,cs),
(563,418,o),
(545,345,o),
(482,345,c),
(482,339,l),
(493,339,ls),
(543,339,o),
(546,299,o),
(553,236,cs),
(561,164,o),
(616,131,o),
(677,131,cs),
(733,131,o),
(773,158,o),
(791,175,c),
(788,179,l),
(777,168,o),
(767,162,o),
(753,162,cs),
(715,162,o),
(718,211,o),
(706,255,cs),
(688,321,o),
(640,345,o),
(579,353,c),
(645,363,o),
(706,404,o),
(706,467,cs),
(706,528,o),
(647,580,o),
(538,580,cs),
(255,580,l),
(255,575,l),
(307,575,o),
(325,556,o),
(325,518,cs),
(325,200,ls),
(325,162,o),
(307,143,o),
(255,143,c)
);
}
);
width = 981;
}
);
unicode = 174;
},
{
glyphname = copyright;
layers = (
{
layerId = "656B38CD-A67B-4E9F-B73E-02DBA5E1D64F";
shapes = (
{
closed = 1;
nodes = (
(236,231,o),
(304,129,o),
(434,129,cs),
(494,129,o),
(544,151,o),
(573,186,c),
(571,194,l),
(541,156,o),
(496,136,o),
(441,136,cs),
(360,136,o),
(266,180,o),
(266,352,cs),
(266,522,o),
(357,571,o),
(448,571,cs),
(485,571,o),
(521,563,o),
(542,541,c),
(522,541,o),
(514,526,o),
(514,514,cs),
(514,502,o),
(522,490,o),
(536,490,cs),
(552,490,o),
(562,504,o),
(562,518,cs),
(562,547,o),
(516,578,o),
(447,578,cs),
(327,578,o),
(236,483,o),
(236,348,cs)
);
},
{
closed = 1;
nodes = (
(50,140,o),
(219,-29,o),
(427,-29,cs),
(635,-29,o),
(805,140,o),
(805,348,cs),
(805,556,o),
(635,726,o),
(427,726,cs),
(219,726,o),
(50,556,o),
(50,348,cs)
);
},
{
closed = 1;
nodes = (
(58,552,o),
(223,718,o),
(427,718,cs),
(631,718,o),
(797,552,o),
(797,348,cs),
(797,144,o),
(631,-21,o),
(427,-21,cs),
(223,-21,o),
(58,144,o),
(58,348,cs)
);
}
);
width = 855;
},
{
layerId = "7832CF62-1B68-483E-9BF5-FE7E7BF8962B";
shapes = (
{
closed = 1;
nodes = (
(264,239,o),
(350,131,o),
(500,131,cs),
(589,131,o),
(651,174,o),
(669,236,c),
(666,240,l),
(646,185,o),
(612,162,o),
(555,162,cs),
(481,162,o),
(425,209,o),
(425,371,cs),
(425,533,o),
(468,579,o),
(535,579,cs),
(556,579,o),
(580,570,o),
(587,563,c),
(553,541,o),
(538,513,o),
(538,486,cs),
(538,454,o),
(563,426,o),
(599,426,cs),
(631,426,o),
(664,447,o),
(664,492,cs),
(664,551,o),
(609,586,o),
(525,586,cs),
(377,586,o),
(264,491,o),
(264,356,cs)
);
},
{
closed = 1;
nodes = (
(113,140,o),
(282,-29,o),
(490,-29,cs),
(698,-29,o),
(868,140,o),
(868,348,cs),
(868,556,o),
(698,726,o),
(490,726,cs),
(282,726,o),
(113,556,o),
(113,348,cs)
);
},
{
closed = 1;
nodes = (
(121,552,o),
(286,718,o),
(490,718,cs),
(694,718,o),
(860,552,o),
(860,348,cs),
(860,144,o),
(694,-21,o),
(490,-21,cs),
(286,-21,o),
(121,144,o),
(121,348,cs)
);
}
);
width = 981;
}
);
unicode = 169;
},
{
glyphname = currency;
layers = (
{
layerId = "656B38CD-A67B-4E9F-B73E-02DBA5E1D64F";
shapes = (
{
closed = 1;
nodes = (
(87,242,o),
(172,157,o),
(278,157,cs),
(384,157,o),
(470,242,o),
(470,348,cs),
(470,454,o),
(384,540,o),
(278,540,cs),
(172,540,o),
(87,454,o),
(87,348,cs)
);
},
{
closed = 1;
nodes = (
(105,443,o),
(183,523,o),
(278,523,cs),
(373,523,o),
(451,443,o),
(451,348,cs),
(451,253,o),
(373,174,o),
(278,174,cs),
(183,174,o),
(105,253,o),
(105,348,cs)
);
},
{
closed = 1;
nodes = (
(416,472,l),
(498,554,l),
(484,567,l),
(402,485,l)
);
},
{
closed = 1;
nodes = (
(144,227,l),
(65,148,l),
(78,134,l),
(158,214,l)
);
},
{
closed = 1;
nodes = (
(404,215,l),
(484,134,l),
(498,148,l),
(416,230,l)
);
},
{
closed = 1;
nodes = (
(160,485,l),
(78,567,l),
(65,554,l),
(146,473,l)
);
}
);
width = 563;
},
{
layerId = "7832CF62-1B68-483E-9BF5-FE7E7BF8962B";
shapes = (
{
closed = 1;
nodes = (
(87,242,o),
(172,157,o),
(278,157,cs),
(384,157,o),
(470,242,o),
(470,348,cs),
(470,454,o),
(384,540,o),
(278,540,cs),
(172,540,o),
(87,454,o),
(87,348,cs)
);
},
{
closed = 1;
nodes = (
(105,443,o),
(183,523,o),
(278,523,cs),
(373,523,o),
(451,443,o),
(451,348,cs),
(451,253,o),
(373,174,o),
(278,174,cs),
(183,174,o),
(105,253,o),
(105,348,cs)
);
},
{
closed = 1;
nodes = (
(416,472,l),
(498,554,l),
(484,567,l),
(402,485,l)
);
},
{
closed = 1;
nodes = (
(144,227,l),
(65,148,l),
(78,134,l),
(158,214,l)
);
},
{
closed = 1;
nodes = (
(404,215,l),
(484,134,l),
(498,148,l),
(416,230,l)
);
},
{
closed = 1;
nodes = (
(160,485,l),
(78,567,l),
(65,554,l),
(146,473,l)
);
}
);
width = 563;
}
);
unicode = 164;
},
{
glyphname = cent;
layers = (
{
background = {
shapes = (
{
closed = 1;
nodes = (
(557,174,l),
(530,107,o),
(484,81,o),
(413,81,cs),
(302,81,o),
(242,144,o),
(242,358,cs),
(242,565,o),
(298,633,o),
(381,633,cs),
(456,633,o),
(543,578,o),
(543,459,cs),
(543,452,ls),
(543,447,o),
(545,445,o),
(548,445,c),
(550,445,o),
(553,447,o),
(553,452,cs),
(553,645,ls),
(553,649,o),
(550,651,o),
(548,651,c),
(538,651,o),
(548,617,o),
(514,617,cs),
(486,617,o),
(448,641,o),
(366,641,cs),
(179,641,o),
(28,514,o),
(28,336,cs),
(28,180,o),
(144,37,o),
(339,37,cs),
(460,37,o),
(540,92,o),
(565,174,c)
);
}
);
};
layerId = "656B38CD-A67B-4E9F-B73E-02DBA5E1D64F";
shapes = (
{
closed = 1;
nodes = (
(342,-101,l),
(352,-101,l),
(352,746,l),
(342,746,l)
);
},
{
closed = 1;
nodes = (
(543,126,l),
(507,75,o),
(428,44,o),
(358,44,cs),
(171,44,o),
(99,201,o),
(99,341,cs),
(99,470,o),
(170,632,o),
(368,632,cs),
(450,632,o),
(536,598,o),
(536,515,c),
(536,511,l),
(536,509,o),
(537,508,o),
(538,508,cs),
(540,508,o),
(540,510,o),
(540,511,cs),
(540,635,ls),
(540,638,o),
(539,640,o),
(537,640,c),
(531,640,o),
(538,603,o),
(522,603,cs),
(508,603,o),
(448,639,o),
(368,639,cs),
(193,639,o),
(71,513,o),
(71,339,cs),
(71,155,o),
(199,37,o),
(348,37,cs),
(434,37,o),
(505,70,o),
(543,115,c)
);
}
);
width = 646;
},
{
layerId = "7832CF62-1B68-483E-9BF5-FE7E7BF8962B";
shapes = (
{
closed = 1;
nodes = (
(395,-101,l),
(405,-101,l),
(405,746,l),
(395,746,l)
);
},
{
closed = 1;
nodes = (
(610,174,l),
(583,107,o),
(537,81,o),
(466,81,cs),
(355,81,o),
(295,144,o),
(295,358,cs),
(295,565,o),
(351,633,o),
(434,633,cs),
(509,633,o),
(596,578,o),
(596,459,cs),
(596,452,ls),
(596,447,o),
(598,445,o),
(601,445,cs),
(603,445,o),
(606,447,o),
(606,452,cs),
(606,645,ls),
(606,649,o),
(603,651,o),
(601,651,c),
(591,651,o),
(601,617,o),
(567,617,cs),
(539,617,o),
(501,641,o),
(419,641,cs),
(232,641,o),
(81,514,o),
(81,336,cs),
(81,180,o),
(197,37,o),
(392,37,cs),
(513,37,o),
(593,92,o),
(618,174,c)
);
}
);
width = 699;
}
);
unicode = 162;
},
{
glyphname = sterling;
layers = (
{
layerId = "656B38CD-A67B-4E9F-B73E-02DBA5E1D64F";
shapes = (
{
closed = 1;
nodes = (
(185,44,l),
(295,44,o),
(332,135,o),
(332,266,cs),
(332,503,ls),
(332,598,o),
(372,636,o),
(424,636,cs),
(450,636,o),
(471,629,o),
(487,609,c),
(467,609,o),
(459,594,o),
(459,582,cs),
(459,570,o),
(467,558,o),
(483,558,cs),
(497,558,o),
(507,572,o),
(507,586,cs),
(507,614,o),
(471,642,o),
(425,642,cs),
(358,642,o),
(296,588,o),
(296,474,cs,{name = hr01;}),
(296,400,o),
(321,339,o),
(321,218,cs),
(321,141,o),
(287,49,o),
(185,49,c)
);
},
{
closed = 1;
nodes = (
(185,49,l),
(162,49,o),
(149,62,o),
(149,75,cs),
(149,89,o),
(161,102,o),
(186,102,cs),
(261,102,o),
(305,13,o),
(424,13,cs),
(528,13,o),
(581,77,o),
(598,150,c),
(594,151,l),
(577,77,o),
(520,46,o),
(449,46,cs),
(355,46,o),
(255,110,o),
(190,110,cs),
(159,110,o),
(143,92,o),
(143,76,cs),
(143,60,o),
(158,44,o),
(185,44,c)
);
},
{
closed = 1;
nodes = (
(162,330,l),
(162,324,l),
(460,324,l),
(460,330,l)
);
}
);
width = 661;
},
{
layerId = "7832CF62-1B68-483E-9BF5-FE7E7BF8962B";
shapes = (
{
closed = 1;
nodes = (
(177,11,l),
(297,11,o),
(331,135,o),
(331,266,cs),
(331,501,ls),
(331,591,o),
(371,632,o),
(417,632,cs),
(429,632,o),
(453,629,o),
(459,614,c),
(426,599,o),
(410,565,o),
(410,531,cs),
(410,486,o),
(436,443,o),
(489,443,cs),
(538,443,o),
(566,480,o),
(566,529,cs),
(566,587,o),
(528,642,o),
(396,642,cs),
(287,642,o),
(137,585,o),
(137,446,cs,{name = hr01;}),
(137,310,o),
(299,305,o),
(315,226,cs),
(330,150,o),
(284,20,o),
(177,20,c)
);
},
{
closed = 1;
nodes = (
(177,20,l),
(148,20,o),
(133,35,o),
(133,49,cs),
(133,64,o),
(148,78,o),
(179,78,cs),
(256,78,o),
(279,-9,o),
(413,-9,cs),
(611,-9,o),
(624,182,o),
(624,281,c),
(616,281,l),
(616,213,o),
(557,178,o),
(475,178,cs),
(384,178,o),
(276,221,o),
(203,221,cs),
(120,221,o),
(81,165,o),
(81,111,cs),
(81,60,o),
(116,11,o),
(177,11,c)
);
},
{
closed = 1;
nodes = (
(99,330,l),
(99,320,l),
(459,320,l),
(459,330,l)
);
}
);
width = 705;
}
);
unicode = 163;
},
{
glyphname = yen;
layers = (
{
layerId = "656B38CD-A67B-4E9F-B73E-02DBA5E1D64F";
shapes = (
{
closed = 1;
nodes = (
(70,628,l),
(167,621,o),
(165,619,o),
(203,545,cs),
(335,291,l),
(335,105,ls),
(335,47,o),
(308,55,o),
(228,48,c),
(228,43,l),
(467,43,l),
(467,48,l),
(387,55,o),
(360,47,o),
(360,105,cs),
(360,296,l),
(481,521,ls),
(534,620,o),
(541,628,o),
(615,628,cs),
(622,628,l),
(622,633,l),
(398,633,l),
(398,628,l),
(407,627,l),
(491,622,o),
(533,630,o),
(468,511,cs),
(356,304,l),
(228,549,ls),
(193,618,o),
(212,621,o),
(317,628,c),
(323,628,l),
(323,633,l),
(70,633,l)
);
},
{
closed = 1;
nodes = (
(558,281,l),
(558,287,l),
(117,287,l),
(117,281,l)
);
},
{
closed = 1;
nodes = (
(558,189,l),
(558,195,l),
(117,195,l),
(117,189,l)
);
}
);
width = 692;
},
{
layerId = "7832CF62-1B68-483E-9BF5-FE7E7BF8962B";
shapes = (
{
closed = 1;
nodes = (
(101,625,l),
(142,625,o),
(165,601,o),
(181,574,cs),
(333,312,l),
(333,127,ls),
(333,76,o),
(310,51,o),
(240,51,c),
(240,43,l),
(615,43,l),
(615,51,l),
(546,51,o),
(522,76,o),
(522,127,cs),
(522,332,l),
(629,507,ls),
(654,548,o),
(710,625,o),
(772,625,c),
(774,625,l),
(774,633,l),
(541,633,l),
(541,625,l),
(576,625,ls),
(660,625,o),
(615,507,o),
(595,474,cs),
(517,346,l),
(407,561,ls),
(378,617,o),
(402,625,o),
(429,625,cs),
(439,625,l),
(439,633,l),
(101,633,l)
);
},
{
closed = 1;
nodes = (
(651,322,l),
(651,335,l),
(198,335,l),
(198,322,l)
);
},
{
closed = 1;
nodes = (
(651,237,l),
(651,250,l),
(198,250,l),
(198,237,l)
);
}
);
width = 875;
}
);
unicode = 165;
},
{
glyphname = florin;
layers = (
{
background = {
shapes = (
{
closed = 1;
nodes = (
(137,66,o),
(153,100,o),
(153,134,cs),
(153,179,o),
(127,222,o),
(74,222,cs),
(25,222,o),
(-3,184,o),
(-3,139,cs),
(-3,78,o),
(47,24,o),
(134,24,cs),
(256,24,o),
(314,130,o),
(332,266,cs),
(363,501,ls),
(375,593,o),
(405,632,o),
(450,632,cs),
(474,632,o),
(485,621,o),
(488,614,c),
(455,599,o),
(439,565,o),
(439,531,cs),
(439,486,o),
(465,443,o),
(518,443,cs),
(567,443,o),
(595,480,o),
(595,528,cs),
(595,587,o),
(553,642,o),
(432,642,cs),
(299,642,o),
(160,575,o),
(160,407,cs),
(160,322,o),
(196,192,o),
(196,113,cs),
(196,65,o),
(183,33,o),
(142,33,cs,{name = hr01;}),
(118,33,o),
(107,44,o),
(104,51,c)
);
}
);
};
layerId = "656B38CD-A67B-4E9F-B73E-02DBA5E1D64F";
shapes = (
{
closed = 1;
nodes = (
(70,53,o),
(102,24,o),
(147,24,cs),
(260,24,o),
(313,130,o),
(331,266,cs),
(356,455,ls),
(375,600,o),
(422,636,o),
(467,636,cs),
(491,636,o),
(510,627,o),
(523,609,c),
(503,609,o),
(495,594,o),
(495,582,cs),
(495,570,o),
(503,558,o),
(519,558,cs),
(533,558,o),
(543,572,o),
(543,586,cs),
(543,613,o),
(510,642,o),
(465,642,cs),
(411,642,o),
(349,605,o),
(331,501,cs),
(314,399,o),
(336,246,o),
(283,124,cs),
(267,87,o),
(227,30,o),
(147,30,cs,{name = hr01;}),
(123,30,o),
(105,39,o),
(90,57,c),
(110,57,o),
(118,72,o),
(118,84,cs),
(118,96,o),
(110,108,o),
(94,108,cs),
(80,108,o),
(70,94,o),
(70,80,cs)
);
},
{
closed = 1;
nodes = (
(164,330,l),
(164,324,l),
(487,324,l),
(487,330,l)
);
}
);
width = 613;
},
{
layerId = "7832CF62-1B68-483E-9BF5-FE7E7BF8962B";
shapes = (
{
closed = 1;
nodes = (
(90,78,o),
(140,24,o),
(227,24,cs),
(349,24,o),
(407,130,o),
(425,266,cs),
(456,501,ls),
(468,593,o),
(498,632,o),
(543,632,cs),
(567,632,o),
(578,621,o),
(581,614,c),
(548,599,o),
(532,565,o),
(532,531,cs),
(532,486,o),
(558,443,o),
(611,443,cs),
(660,443,o),
(688,480,o),
(688,528,cs),
(688,587,o),
(646,642,o),
(525,642,cs),
(392,642,o),
(253,575,o),
(253,407,cs),
(253,322,o),
(289,192,o),
(289,113,cs),
(289,65,o),
(276,33,o),
(235,33,cs,{name = hr01;}),
(211,33,o),
(200,44,o),
(197,51,c),
(230,66,o),
(246,100,o),
(246,134,cs),
(246,179,o),
(220,222,o),
(167,222,cs),
(118,222,o),
(90,184,o),
(90,139,cs)
);
},
{
closed = 1;
nodes = (
(221,330,l),
(221,320,l),
(581,320,l),
(581,330,l)
);
}
);
width = 778;
}
);
unicode = 402;
},
{
glyphname = comma;
layers = (
{
background = {
shapes = (
{
closed = 1;
nodes = (
(-1,12,o),
(22,-9,o),
(53,-9,cs),
(83,-9,o),
(106,12,o),
(106,39,cs),
(106,66,o),
(83,87,o),
(53,87,cs),
(22,87,o),
(-1,66,o),
(-1,39,cs)
);
}
);
};
layerId = "656B38CD-A67B-4E9F-B73E-02DBA5E1D64F";
shapes = (
{
closed = 1;
nodes = (
(68,-135,l),
(106,-106,o),
(128,-55,o),
(128,-16,cs),
(128,22,o),
(111,48,o),
(80,48,cs),
(63,48,o),
(51,36,o),
(51,22,cs),
(51,10,o),
(59,-2,o),
(77,-2,cs),
(89,-2,o),
(99,5,o),
(103,16,c),
(114,6,o),
(116,-7,o),
(116,-26,cs),
(116,-54,o),
(107,-97,o),
(65,-135,c)
);
}
);
width = 177;
},
{
layerId = "7832CF62-1B68-483E-9BF5-FE7E7BF8962B";
shapes = (
{
closed = 1;
nodes = (
(145,-143,l),
(226,-105,o),
(269,-30,o),
(269,45,cs),
(269,126,o),
(215,178,o),
(145,178,cs),
(75,178,o),
(41,132,o),
(41,87,cs),
(41,42,o),
(74,-2,o),
(137,-2,cs),
(173,-2,o),
(212,13,o),
(223,36,c),
(225,28,o),
(225,17,o),
(225,14,cs,{name = hr01;}),
(225,-44,o),
(196,-105,o),
(137,-136,c)
);
}
);
width = 301;
}
);
unicode = 44;
},
{
color = (154, 153, 255, 255);
glyphname = comma.swsh;
layers = (
{
layerId = "656B38CD-A67B-4E9F-B73E-02DBA5E1D64F";
shapes = (
{
closed = 1;
nodes = (
(1110,764,l),
(1215,852,o),
(1351,906,o),
(1499,906,cs),
(1832,906,o),
(2104,644,o),
(2104,326,cs),
(2104,8,o),
(1832,-254,o),
(1499,-254,cs),
(899,-254,o),
(476,585,o),
(-75,585,cs),
(-335,585,o),
(-556,391,o),
(-556,145,cs),
(-556,-115,o),
(-381,-278,o),
(-123,-278,cs),
(126,-278,o),
(222,-123,o),
(222,-30,cs),
(222,1,o),
(213,48,o),
(173,48,cs),
(156,48,o),
(144,36,o),
(144,22,cs),
(144,10,o),
(152,-2,o),
(170,-2,cs),
(182,-2,o),
(192,5,o),
(196,16,c),
(252,-91,o),
(135,-272,o),
(-123,-272,cs),
(-380,-272,o),
(-550,-108,o),
(-550,145,cs),
(-550,388,o),
(-332,579,o),
(-75,579,cs),
(473,579,o),
(892,-260,o),
(1499,-260,cs),
(1836,-260,o),
(2110,4,o),
(2110,326,cs),
(2110,648,o),
(1836,912,o),
(1499,912,cs),
(1350,912,o),
(1213,858,o),
(1106,768,c)
);
}
);
width = 301;
},
{
layerId = "7832CF62-1B68-483E-9BF5-FE7E7BF8962B";
shapes = (
{
closed = 1;
nodes = (
(1110,764,l),
(1215,852,o),
(1351,906,o),
(1499,906,cs),
(1832,906,o),
(2104,644,o),
(2104,326,cs),
(2104,8,o),
(1832,-254,o),
(1499,-254,cs),
(899,-254,o),
(476,585,o),
(-75,585,cs),
(-335,585,o),
(-556,391,o),
(-556,145,cs),
(-556,-115,o),
(-381,-278,o),
(-123,-278,cs),
(80,-278,o),
(269,-144,o),
(269,34,cs),
(269,126,o),
(215,178,o),
(143,178,cs),
(75,178,o),
(41,132,o),
(41,87,cs),
(41,42,o),
(74,-2,o),
(137,-2,cs),
(172,-2,o),
(210,12,o),
(222,34,c),
(221,-137,o),
(64,-272,o),
(-130,-272,cs),
(-383,-272,o),
(-550,-108,o),
(-550,145,cs),
(-550,388,o),
(-332,579,o),
(-75,579,cs),
(473,579,o),
(892,-260,o),
(1499,-260,cs),
(1836,-260,o),
(2110,4,o),
(2110,326,cs),
(2110,648,o),
(1836,912,o),
(1499,912,cs),
(1350,912,o),
(1213,858,o),
(1106,768,c)
);
}
);
width = 301;
}
);
},
{
glyphname = zero;
layers = (
{
guides = (
{
angle = 90;
position = "{325, 0}";
},
{
angle = 90;
position = "{142, 0}";
}
);
hints = (
{
horizontal = 1;
place = (-14,21);
target = up;
type = BottomGhost;
},
{
horizontal = 1;
place = (387,167);
type = Stem;
},
{
horizontal = 1;
place = (722,-20);
target = down;
type = TopGhost;
},
{
place = (-44,248);
type = Stem;
},
{
place = (437,243);
type = Stem;
}
);
layerId = "656B38CD-A67B-4E9F-B73E-02DBA5E1D64F";
shapes = (
{
closed = 1;
nodes = (
(600,586,o),
(456,685,o),
(325,685,cs),
(194,685,o),
(50,586,o),
(50,339,cs),
(50,91,o),
(197,-9,o),
(325,-9,cs),
(453,-9,o),
(600,91,o),
(600,339,cs)
);
},
{
closed = 1;
nodes = (
(570,153,o),
(501,-1,o),
(325,-1,cs),
(149,-1,o),
(80,153,o),
(80,339,cs),
(80,523,o),
(149,677,o),
(325,677,cs),
(501,677,o),
(570,523,o),
(570,339,cs)
);
}
);
width = 650;
},
{
layerId = "7832CF62-1B68-483E-9BF5-FE7E7BF8962B";
shapes = (
{
closed = 1;
nodes = (
(720,586,o),
(531,685,o),
(375,685,cs),
(219,685,o),
(30,586,o),
(30,339,cs),
(30,91,o),
(219,-9,o),
(375,-9,cs),
(531,-9,o),
(720,91,o),
(720,339,cs)
);
},
{
closed = 1;
nodes = (
(493,156,o),
(465,0,o),
(375,0,cs),
(285,0,o),
(257,156,o),
(257,339,cs),
(257,521,o),
(285,676,o),
(375,676,cs),
(465,676,o),
(493,521,o),
(493,339,cs)
);
}
);
width = 750;
}
);
unicode = 48;
},
{
glyphname = one;
layers = (
{
hints = (
{
horizontal = 1;
place = (0,21);
target = up;
type = BottomGhost;
},
{
place = (57,217);
type = Stem;
}
);
layerId = "656B38CD-A67B-4E9F-B73E-02DBA5E1D64F";
shapes = (
{
closed = 1;
nodes = (
(52,647,l),
(118,657,o),
(147,659,o),
(147,617,cs),
(147,62,ls),
(147,4,o),
(120,12,o),
(40,5,c),
(40,0,l),
(279,0,l),
(279,5,l),
(199,12,o),
(172,4,o),
(172,62,cs),
(172,676,l),
(52,653,l)
);
}
);
width = 309;
},
{
layerId = "7832CF62-1B68-483E-9BF5-FE7E7BF8962B";
shapes = (
{
closed = 1;
nodes = (
(-10,626,l),
(72,626,o),
(102,595,o),
(102,539,cs),
(102,95,ls),
(102,37,o),
(74,8,o),
(-10,8,c),
(-10,0,l),
(421,0,l),
(421,8,l),
(337,8,o),
(309,37,o),
(309,95,cs),
(309,676,l),
(-10,634,l)
);
}
);
width = 401;
}
);
unicode = 49;
},
{
glyphname = two;
layers = (
{
background = {
shapes = (
{
closed = 0;
nodes = (
(35,517,ls),
(35,467,o),
(73,439,o),
(115,439,cs),
(157,439,o),
(182,469,o),
(182,500,cs),
(182,530,o),
(157,560,o),
(115,560,cs),
(96,560,o),
(71,549,o),
(62,536,c)
);
}
);
};
hints = (
{
horizontal = 1;
place = (-5,217);
type = Stem;
},
{
horizontal = 1;
place = (-9,21);
target = up;
type = BottomGhost;
},
{
horizontal = 1;
place = (87,138);
type = Stem;
},
{
horizontal = 1;
place = (400,164);
type = Stem;
},
{
horizontal = 1;
place = (722,-20);
target = down;
type = TopGhost;
},
{
place = (-35,153);
type = Stem;
},
{
place = (313,225);
type = Stem;
},
{
place = (313,238);
type = Stem;
}
);
layerId = "656B38CD-A67B-4E9F-B73E-02DBA5E1D64F";
shapes = (
{
closed = 1;
nodes = (
(81,83,o),
(58,68,o),
(50,50,cs),
(48,45,o),
(48,56,o),
(51,68,cs),
(109,318,o),
(415,356,o),
(415,537,cs),
(415,626,o),
(334,685,o),
(240,685,cs),
(147,685,o),
(64,627,o),
(64,532,cs),
(64,504,o),
(76,477,o),
(103,477,cs),
(123,477,o),
(134,492,o),
(134,507,cs),
(134,521,o),
(123,536,o),
(105,536,cs),
(94,536,o),
(84,530,o),
(78,521,c),
(62,617,o),
(150,678,o),
(236,678,cs),
(311,678,o),
(384,625,o),
(384,541,cs),
(384,344,o),
(34,298,o),
(40,-9,c,{name = hr01;}),
(44,-9,l),
(44,8,ls),
(44,51,o),
(70,75,o),
(102,75,cs),
(165,75,o),
(192,-4,o),
(297,-4,cs),
(410,-4,o),
(438,80,o),
(443,151,c),
(439,152,l),
(433,60,o),
(394,26,o),
(311,26,cs),
(221,26,o),
(187,83,o),
(108,83,cs)
);
}
);
width = 468;
},
{
background = {
shapes = (
{
closed = 1;
nodes = (
(551,79,o),
(557,216,o),
(554,281,c),
(554,213,o),
(500,197,o),
(425,197,cs),
(367,197,o),
(293,209,o),
(225,209,cs),
(134,209,o),
(72,164,o),
(35,108,c),
(107,186,o),
(253,79,o),
(378,79,cs)
);
}
);
};
layerId = "7832CF62-1B68-483E-9BF5-FE7E7BF8962B";
shapes = (
{
closed = 1;
nodes = (
(138,209,o),
(76,164,o),
(39,108,cs),
(37,105,o),
(35,105,o),
(35,108,c),
(126,386,o),
(553,256,o),
(553,513,cs),
(553,643,o),
(394,685,o),
(279,685,cs),
(164,685,o),
(26,633,o),
(26,505,cs),
(26,435,o),
(76,395,o),
(140,395,cs),
(197,395,o),
(235,439,o),
(235,484,cs),
(235,541,o),
(188,568,o),
(142,568,cs),
(118,568,o),
(94,560,o),
(75,548,c),
(75,602,o),
(134,667,o),
(223,667,cs),
(290,667,o),
(329,625,o),
(329,566,cs),
(329,351,o),
(10,308,o),
(10,-9,c,{name = hr01;}),
(19,-9,l),
(19,8,ls),
(19,51,o),
(48,78,o),
(88,78,cs),
(163,78,o),
(221,-9,o),
(350,-9,cs),
(553,-9,o),
(566,182,o),
(566,281,c),
(558,281,l),
(558,213,o),
(504,197,o),
(429,197,cs),
(371,197,o),
(297,209,o),
(229,209,cs)
);
}
);
width = 596;
}
);
unicode = 50;
},
{
glyphname = three;
layers = (
{
background = {
shapes = (
{
closed = 0;
nodes = (
(221,15,l),
(131,15,o),
(73,73,o),
(73,125,c),
(93,114,o),
(116,105,o),
(140,105,cs),
(205,105,o),
(238,148,o),
(238,190,cs),
(238,232,o),
(205,274,o),
(138,274,cs),
(74,274,o),
(23,235,o),
(23,166,cs),
(23,42,o),
(163,-9,o),
(278,-9,c)
);
},
{
closed = 1;
nodes = (
(213,426,o),
(243,465,o),
(243,506,cs),
(243,530,o),
(227,540,o),
(205,540,cs),
(155,540,o),
(154,480,o),
(100,480,cs),
(77,480,o),
(61,506,o),
(61,536,cs),
(61,587,o),
(103,631,o),
(134,651,c),
(90,630,o),
(50,587,o),
(50,523,cs),
(50,475,o),
(84,426,o),
(155,426,cs)
);
}
);
};
hints = (
{
horizontal = 1;
place = (164,167);
type = Stem;
},
{
horizontal = 1;
place = (164,249);
type = Stem;
},
{
horizontal = 1;
place = (398,167);
type = Stem;
},
{
horizontal = 1;
place = (423,142);
type = Stem;
},
{
horizontal = 1;
place = (723,-20);
target = down;
type = TopGhost;
},
{
place = (0,162);
type = Stem;
},
{
place = (37,246);
type = Stem;
},
{
place = (374,209);
type = Stem;
}
);
layerId = "656B38CD-A67B-4E9F-B73E-02DBA5E1D64F";
shapes = (
{
closed = 1;
nodes = (
(178,356,l),
(288,356,o),
(402,309,o),
(402,183,cs),
(402,62,o),
(327,-1,o),
(207,-1,cs),
(115,-1,o),
(29,56,o),
(43,140,c),
(51,135,o),
(60,130,o),
(69,130,cs),
(84,130,o),
(100,139,o),
(100,158,cs),
(100,172,o),
(89,188,o),
(68,188,cs),
(38,188,o),
(30,163,o),
(30,139,cs),
(30,35,o),
(127,-9,o),
(226,-9,cs),
(313,-9,o),
(432,36,o),
(432,177,cs),
(432,305,o),
(297,360,o),
(190,360,cs),
(178,360,l)
);
},
{
closed = 1;
nodes = (
(178,357,l),
(209,356,l),
(250,363,o),
(399,395,o),
(399,534,cs),
(399,640,o),
(308,685,o),
(225,685,cs),
(141,685,o),
(60,636,o),
(60,548,cs),
(60,520,o),
(73,494,o),
(98,494,cs),
(118,494,o),
(130,508,o),
(130,523,cs),
(130,537,o),
(118,552,o),
(100,552,cs),
(90,552,o),
(80,546,o),
(75,537,c),
(59,624,o),
(142,678,o),
(218,678,cs),
(342,678,o),
(371,602,o),
(371,542,cs),
(371,450,o),
(302,360,o),
(178,360,c)
);
}
);
width = 462;
},
{
layerId = "7832CF62-1B68-483E-9BF5-FE7E7BF8962B";
shapes = (
{
closed = 1;
nodes = (
(210,350,l),
(301,350,o),
(345,287,o),
(345,183,cs),
(345,112,o),
(324,10,o),
(222,10,cs),
(132,10,o),
(73,73,o),
(73,125,c),
(93,114,o),
(116,105,o),
(140,105,cs),
(205,105,o),
(238,153,o),
(238,195,cs),
(238,236,o),
(202,274,o),
(138,274,cs),
(74,274,o),
(23,235,o),
(23,166,cs),
(23,42,o),
(163,-9,o),
(278,-9,cs),
(403,-9,o),
(576,35,o),
(576,170,cs),
(576,322,o),
(382,356,o),
(233,356,cs),
(210,356,l)
);
},
{
closed = 1;
nodes = (
(220,351,l),
(241,351,l),
(303,362,o),
(554,384,o),
(554,531,cs),
(554,648,o),
(398,685,o),
(284,685,cs),
(178,685,o),
(50,638,o),
(50,525,cs),
(50,461,o),
(97,426,o),
(155,426,cs),
(214,426,o),
(243,465,o),
(243,505,cs),
(243,556,o),
(200,581,o),
(157,581,cs),
(135,581,o),
(114,573,o),
(96,563,c),
(96,610,o),
(151,669,o),
(233,669,cs),
(318,669,o),
(345,597,o),
(345,539,cs),
(345,445,o),
(301,356,o),
(220,356,c)
);
}
);
width = 607;
}
);
unicode = 51;
},
{
glyphname = four;
layers = (
{
background = {
shapes = (
{
closed = 1;
nodes = (
(168,653,l),
(168,645,l),
(222,645,o),
(256,639,o),
(256,564,cs),
(256,95,ls),
(256,37,o),
(233,8,o),
(164,8,c),
(164,0,l),
(415,0,l),
(415,8,l),
(346,8,o),
(323,37,o),
(323,95,cs),
(323,676,l)
);
}
);
};
guides = (
{
position = "{0, 158}";
},
{
position = "{0, 165}";
}
);
hints = (
{
horizontal = 1;
place = (0,230);
type = Stem;
},
{
horizontal = 1;
place = (221,23);
type = Stem;
},
{
horizontal = 1;
place = (721,-20);
target = down;
type = TopGhost;
},
{
place = (181,213);
type = Stem;
},
{
horizontal = 1;
place = (0,21);
target = up;
type = BottomGhost;
},
{
place = (174,217);
type = Stem;
}
);
layerId = "656B38CD-A67B-4E9F-B73E-02DBA5E1D64F";
shapes = (
{
closed = 1;
nodes = (
(486,169,l),
(341,169,l),
(341,689,l),
(335,689,l),
(11,165,l),
(11,152,l),
(316,152,l),
(316,62,ls),
(316,4,o),
(289,12,o),
(209,5,c),
(209,0,l),
(448,0,l),
(448,5,l),
(368,12,o),
(341,4,o),
(341,62,cs),
(341,152,l),
(479,152,l)
);
},
{
closed = 1;
nodes = (
(316,642,l),
(316,595,l),
(316,169,l),
(23,169,l)
);
}
);
width = 496;
},
{
layerId = "7832CF62-1B68-483E-9BF5-FE7E7BF8962B";
shapes = (
{
closed = 1;
nodes = (
(565,183,l),
(453,183,l),
(453,676,l),
(379,676,l),
(0,165,l),
(0,140,l),
(246,140,l),
(246,95,ls),
(246,37,o),
(218,8,o),
(134,8,c),
(134,0,l),
(565,0,l),
(565,8,l),
(481,8,o),
(453,37,o),
(453,95,cs),
(453,140,l),
(550,140,l)
);
},
{
closed = 1;
nodes = (
(246,466,l),
(246,439,l),
(246,183,l),
(30,183,l)
);
}
);
width = 605;
}
);
unicode = 52;
},
{
glyphname = five;
layers = (
{
background = {
shapes = (
{
closed = 1;
nodes = (
(54,360,l),
(84,369,o),
(108,376,o),
(142,376,cs),
(257,376,o),
(305,297,o),
(305,191,cs),
(305,120,o),
(283,10,o),
(169,10,cs),
(83,10,o),
(23,73,o),
(23,125,c),
(44,114,o),
(65,105,o),
(91,105,cs),
(136,105,o),
(184,132,o),
(184,187,cs),
(184,231,o),
(152,274,o),
(86,274,cs),
(24,274,o),
(-27,236,o),
(-27,163,cs),
(-27,45,o),
(105,-9,o),
(238,-9,cs),
(358,-9,o),
(536,35,o),
(536,188,cs),
(536,340,o),
(359,393,o),
(218,393,cs),
(151,393,o),
(89,381,o),
(59,368,c)
);
},
{
closed = 0;
nodes = (
(99,632,ls),
(105,614,o),
(125,599,o),
(150,599,cs),
(220,599,o),
(251,657,o),
(331,657,cs),
(405,657,o),
(441,622,o),
(445,528,c),
(449,529,l),
(444,602,o),
(420,688,o),
(319,688,cs),
(226,688,o),
(201,607,o),
(145,607,cs),
(116,607,o),
(93,631,o),
(93,675,cs)
);
}
);
};
guides = (
{
position = "{0, 692}";
}
);
hints = (
{
horizontal = 1;
place = (-8,21);
target = up;
type = BottomGhost;
},
{
horizontal = 1;
place = (164,167);
type = Stem;
},
{
horizontal = 1;
place = (426,211);
type = Stem;
},
{
horizontal = 1;
place = (519,118);
type = Stem;
},
{
horizontal = 1;
place = (544,183);
type = Stem;
},
{
place = (-74,163);
type = Stem;
},
{
place = (485,67);
type = Stem;
}
);
layerId = "656B38CD-A67B-4E9F-B73E-02DBA5E1D64F";
shapes = (
{
closed = 1;
nodes = (
(102,692,l),
(102,358,l),
(108,363,l),
(108,633,ls),
(108,643,o),
(110,646,o),
(114,638,cs),
(120,627,o),
(137,611,o),
(169,611,cs),
(227,611,o),
(247,652,o),
(330,652,cs),
(392,652,o),
(437,610,o),
(439,539,cs),
(440,495,l),
(446,495,l),
(446,672,l),
(440,672,l),
(440,580,ls),
(440,578,o),
(440,571,o),
(439,580,cs),
(428,656,o),
(387,682,o),
(333,682,cs),
(261,682,o),
(233,617,o),
(160,617,cs),
(131,617,o),
(108,640,o),
(108,683,cs),
(108,692,l)
);
},
{
closed = 1;
nodes = (
(368,397,o),
(457,308,o),
(457,201,cs),
(457,126,o),
(413,-2,o),
(240,-2,cs),
(158,-2,o),
(49,41,o),
(54,141,c),
(62,135,o),
(70,130,o),
(80,130,cs),
(100,130,o),
(109,144,o),
(109,159,cs),
(109,173,o),
(100,188,o),
(79,188,cs),
(49,188,o),
(40,163,o),
(40,140,cs),
(40,25,o),
(163,-9,o),
(257,-9,cs),
(380,-9,o),
(492,68,o),
(492,196,cs),
(492,339,o),
(365,405,o),
(258,405,cs),
(207,405,o),
(138,393,o),
(102,360,c),
(102,356,l),
(138,383,o),
(192,397,o),
(243,397,cs)
);
}
);
width = 537;
},
{
background = {
shapes = (
{
closed = 0;
nodes = (
(144,10,l),
(58,10,o),
(-2,73,o),
(-2,125,c),
(19,114,o),
(40,105,o),
(66,105,cs),
(111,105,o),
(159,132,o),
(159,187,cs),
(159,231,o),
(127,274,o),
(61,274,cs),
(-1,274,o),
(-52,236,o),
(-52,163,cs),
(-52,45,o),
(80,-9,o),
(213,-9,c)
);
}
);
};
layerId = "7832CF62-1B68-483E-9BF5-FE7E7BF8962B";
shapes = (
{
closed = 1;
nodes = (
(81,676,l),
(81,360,l),
(90,368,l),
(90,552,ls),
(90,560,o),
(95,562,o),
(98,555,cs),
(119,504,o),
(149,479,o),
(218,479,cs),
(286,479,o),
(379,504,o),
(421,504,cs),
(474,504,o),
(515,465,o),
(515,416,cs),
(515,385,l),
(523,385,l),
(523,651,l),
(515,651,l),
(515,512,ls),
(515,503,o),
(509,503,o),
(509,512,cs),
(509,596,o),
(454,688,o),
(352,688,cs),
(255,688,o),
(215,597,o),
(157,597,cs),
(106,597,o),
(91,626,o),
(89,665,c),
(89,676,l)
);
},
{
closed = 1;
nodes = (
(284,376,o),
(332,297,o),
(332,191,cs),
(332,120,o),
(310,10,o),
(196,10,cs),
(110,10,o),
(50,73,o),
(50,125,c),
(71,114,o),
(92,105,o),
(118,105,cs),
(163,105,o),
(211,132,o),
(211,187,cs),
(211,231,o),
(179,274,o),
(113,274,cs),
(51,274,o),
(0,236,o),
(0,163,cs),
(0,45,o),
(132,-9,o),
(265,-9,cs),
(385,-9,o),
(563,35,o),
(563,188,cs),
(563,340,o),
(386,394,o),
(245,394,cs),
(178,394,o),
(116,382,o),
(86,369,c),
(81,360,l),
(111,369,o),
(135,376,o),
(169,376,cs)
);
}
);
width = 593;
}
);
unicode = 53;
},
{
glyphname = six;
layers = (
{
background = {
shapes = (
{
closed = 1;
nodes = (
(56,250,l),
(78,335,o),
(163,414,o),
(277,414,cs),
(384,414,o),
(458,336,o),
(458,224,cs),
(458,102,o),
(386,1,o),
(260,1,cs),
(128,1,o),
(57,118,o),
(57,266,cs),
(57,503,o),
(229,668,o),
(383,678,c),
(383,683,l),
(238,683,o),
(27,520,o),
(27,261,cs),
(27,92,o),
(126,-5,o),
(251,-5,cs),
(376,-5,o),
(490,80,o),
(490,217,cs),
(490,340,o),
(388,421,o),
(279,421,cs),
(166,421,o),
(78,346,o),
(56,266,c)
);
},
{
closed = 1;
nodes = (
(56,250,l),
(78,335,o),
(163,414,o),
(277,414,cs),
(384,414,o),
(458,336,o),
(458,224,cs),
(458,102,o),
(386,1,o),
(260,1,cs),
(128,1,o),
(57,118,o),
(57,266,cs),
(57,503,o),
(229,668,o),
(383,678,c),
(383,683,l),
(238,683,o),
(27,520,o),
(27,261,cs),
(27,92,o),
(126,-5,o),
(251,-5,cs),
(376,-5,o),
(490,80,o),
(490,217,cs),
(490,340,o),
(388,421,o),
(279,421,cs),
(166,421,o),
(78,346,o),
(56,266,c)
);
}
);
};
hints = (
{
horizontal = 1;
place = (-13,21);
target = up;
type = BottomGhost;
},
{
horizontal = 1;
place = (394,36);
type = Stem;
},
{
horizontal = 1;
place = (458,110);
type = Stem;
},
{
horizontal = 1;
place = (717,-20);
target = down;
type = TopGhost;
},
{
place = (305,227);
type = Stem;
},
{
place = (349,237);
type = Stem;
}
);
layerId = "656B38CD-A67B-4E9F-B73E-02DBA5E1D64F";
shapes = (
{
closed = 1;
nodes = (
(76,193,l),
(63,300,o),
(159,404,o),
(277,404,cs),
(370,404,o),
(443,339,o),
(443,222,cs),
(443,103,o),
(381,2,o),
(262,2,cs),
(159,2,o),
(73,79,o),
(75,253,cs),
(77,491,o),
(238,670,o),
(365,680,c),
(365,685,l),
(243,685,o),
(47,522,o),
(45,272,cs),
(43,79,o),
(154,-5,o),
(262,-5,cs),
(374,-5,o),
(473,84,o),
(473,217,cs),
(473,346,o),
(372,412,o),
(278,412,cs),
(160,412,o),
(60,308,o),
(73,206,c)
);
}
);
width = 503;
},
{
layerId = "7832CF62-1B68-483E-9BF5-FE7E7BF8962B";
shapes = (
{
closed = 1;
nodes = (
(251,345,l),
(274,365,o),
(306,378,o),
(337,378,cs),
(377,378,o),
(405,347,o),
(405,203,cs),
(405,81,o),
(385,2,o),
(337,2,cs),
(284,2,o),
(261,106,o),
(261,226,cs),
(261,492,o),
(400,652,o),
(516,678,c),
(516,685,l),
(281,685,o),
(26,529,o),
(26,278,cs),
(26,99,o),
(138,-9,o),
(323,-9,cs),
(480,-9,o),
(632,65,o),
(632,221,cs),
(632,343,o),
(528,414,o),
(415,414,cs),
(339,414,o),
(284,385,o),
(250,354,c)
);
}
);
width = 654;
}
);
unicode = 54;
},
{
color = (153, 255, 154, 255);
glyphname = seven;
layers = (
{
hints = (
{
horizontal = 1;
place = (-15,21);
target = up;
type = BottomGhost;
},
{
horizontal = 1;
place = (510,120);
type = Stem;
},
{
horizontal = 1;
place = (535,188);
type = Stem;
},
{
place = (-23,249);
type = Stem;
}
);
layerId = "656B38CD-A67B-4E9F-B73E-02DBA5E1D64F";
shapes = (
{
closed = 1;
nodes = (
(379,601,o),
(397,614,o),
(411,633,cs),
(415,639,o),
(414,634,o),
(410,613,cs),
(358,362,o),
(145,246,o),
(132,19,cs),
(131,2,o),
(137,-8,o),
(150,-8,cs),
(160,-8,o),
(168,1,o),
(169,17,cs),
(175,119,o),
(208,198,o),
(248,270,cs),
(319,398,o),
(421,510,o),
(421,685,c,{name = hr01;}),
(416,685,l),
(416,668,ls),
(416,636,o),
(394,611,o),
(360,611,cs),
(285,611,o),
(252,681,o),
(153,681,cs),
(69,681,o),
(34,626,o),
(23,567,cs),
(22,564,o),
(21,564,o),
(21,569,cs),
(21,658,l),
(15,658,l),
(15,495,l),
(21,495,l),
(21,527,o),
(19,654,o),
(136,654,cs),
(211,654,o),
(258,601,o),
(339,601,cs)
);
}
);
width = 456;
},
{
layerId = "7832CF62-1B68-483E-9BF5-FE7E7BF8962B";
shapes = (
{
closed = 1;
nodes = (
(434,476,o),
(512,520,o),
(550,578,cs),
(558,591,o),
(564,587,o),
(560,577,cs),
(473,369,o),
(138,350,o),
(119,122,cs),
(113,45,o),
(156,-11,o),
(223,-11,cs),
(278,-11,o),
(315,12,o),
(335,50,cs),
(367,109,o),
(342,180,o),
(386,276,cs),
(449,410,o),
(586,503,o),
(586,676,c),
(577,676,l),
(577,661,ls),
(577,620,o),
(540,591,o),
(500,591,cs),
(417,591,o),
(354,684,o),
(241,684,cs),
(117,684,o),
(61,605,o),
(37,521,cs),
(34,510,o),
(28,504,o),
(28,519,cs),
(28,651,l),
(20,651,l),
(20,387,l),
(28,387,l),
(28,466,o),
(64,494,o),
(141,496,cs),
(199,497,o),
(259,465,o),
(351,471,cs)
);
}
);
width = 596;
}
);
unicode = 55;
},
{
color = (153, 255, 154, 255);
glyphname = eight;
layers = (
{
background = {
shapes = (
{
closed = 1;
nodes = (
(408,485,l),
(459,473,o),
(489,522,o),
(489,571,cs),
(489,641,o),
(424,675,o),
(356,675,cs),
(307,675,o),
(272,657,o),
(272,617,cs),
(272,484,o),
(624,482,o),
(624,246,cs),
(624,108,o),
(502,-9,o),
(294,-9,cs),
(114,-9,o),
(30,79,o),
(30,173,cs),
(30,276,o),
(131,355,o),
(221,323,c),
(247,309,l),
(201,333,o),
(112,267,o),
(112,159,cs),
(112,59,o),
(185,1,o),
(273,1,cs),
(362,1,o),
(401,60,o),
(401,122,cs),
(401,307,o),
(74,312,o),
(74,499,cs),
(74,618,o),
(211,685,o),
(348,685,cs),
(474,685,o),
(551,629,o),
(551,566,cs),
(551,504,o),
(473,455,o),
(425,476,c)
);
}
);
};
guides = (
{
angle = 90;
position = "{260, 0}";
},
{
angle = 90;
position = "{99, 0}";
},
{
angle = 90;
position = "{417, 0}";
}
);
hints = (
{
horizontal = 1;
place = (-19,21);
target = up;
type = BottomGhost;
},
{
horizontal = 1;
place = (715,-20);
target = down;
type = TopGhost;
},
{
place = (-56,85);
type = Stem;
},
{
place = (-15,44);
type = Stem;
},
{
place = (-15,206);
type = Stem;
},
{
place = (330,232);
type = Stem;
},
{
place = (416,65);
type = Stem;
}
);
layerId = "656B38CD-A67B-4E9F-B73E-02DBA5E1D64F";
shapes = (
{
closed = 1;
nodes = (
(247,375,l),
(161,332,o),
(42,272,o),
(42,159,cs),
(42,65,o),
(110,-9,o),
(252,-9,cs),
(355,-9,o),
(469,39,o),
(469,164,cs),
(469,247,o),
(416,304,o),
(272,381,cs),
(197,421,o),
(121,463,o),
(121,559,cs),
(121,650,o),
(201,679,o),
(260,679,cs),
(338,679,o),
(393,643,o),
(393,555,cs),
(393,451,o),
(316,409,o),
(259,378,c),
(269,375,l),
(297,391,o),
(417,443,o),
(417,552,cs),
(417,632,o),
(353,684,o),
(260,684,cs),
(175,684,o),
(99,630,o),
(99,544,cs),
(99,447,o),
(179,396,o),
(256,357,cs),
(389,290,o),
(438,241,o),
(438,158,cs),
(438,42,o),
(348,-4,o),
(253,-4,cs),
(145,-4,o),
(71,50,o),
(71,155,cs),
(71,285,o),
(184,334,o),
(256,371,c)
);
}
);
width = 511;
},
{
guides = (
{
angle = 90;
position = "{51, 0}";
},
{
angle = 90;
position = "{524, 0}";
}
);
layerId = "7832CF62-1B68-483E-9BF5-FE7E7BF8962B";
shapes = (
{
closed = 1;
nodes = (
(187,305,l),
(111,306,o),
(20,255,o),
(20,158,cs),
(20,40,o),
(157,-12,o),
(291,-12,cs),
(477,-12,o),
(582,95,o),
(582,217,cs),
(582,339,o),
(476,392,o),
(373,455,cs),
(297,501,o),
(205,541,o),
(205,606,cs),
(205,655,o),
(258,677,o),
(311,677,cs),
(403,677,o),
(460,623,o),
(460,541,cs),
(460,494,o),
(447,450,o),
(394,435,c),
(392,431,l),
(466,435,o),
(524,477,o),
(524,541,cs),
(524,609,o),
(458,685,o),
(311,685,cs),
(168,685,o),
(60,608,o),
(60,477,cs),
(60,355,o),
(155,309,o),
(267,242,cs),
(343,196,o),
(413,150,o),
(413,85,cs),
(413,36,o),
(375,-2,o),
(299,-2,cs),
(182,-2,o),
(111,73,o),
(111,166,cs),
(111,236,o),
(151,284,o),
(187,298,c)
);
}
);
width = 602;
}
);
unicode = 56;
},
{
glyphname = nine;
layers = (
{
guides = (
{
position = "{0, 685}";
}
);
hints = (
{
horizontal = 1;
place = (-13,21);
target = up;
type = BottomGhost;
},
{
horizontal = 1;
place = (136,110);
type = Stem;
},
{
horizontal = 1;
place = (274,36);
type = Stem;
},
{
horizontal = 1;
place = (717,-20);
target = down;
type = TopGhost;
},
{
place = (-43,237);
type = Stem;
},
{
place = (11,227);
type = Stem;
}
);
layerId = "656B38CD-A67B-4E9F-B73E-02DBA5E1D64F";
shapes = (
{
closed = 1;
nodes = (
(426,462,l),
(436,363,o),
(340,263,o),
(230,263,cs),
(120,263,o),
(60,341,o),
(60,454,cs),
(60,577,o),
(122,678,o),
(242,678,cs),
(344,678,o),
(426,603,o),
(426,412,cs),
(426,189,o),
(276,10,o),
(149,0,c),
(149,-5,l),
(271,-5,o),
(456,158,o),
(456,402,cs),
(456,603,o),
(343,685,o),
(242,685,cs),
(123,685,o),
(30,596,o),
(30,454,cs),
(30,334,o),
(118,255,o),
(230,255,cs),
(339,255,o),
(439,357,o),
(429,451,c)
);
}
);
width = 506;
},
{
layerId = "7832CF62-1B68-483E-9BF5-FE7E7BF8962B";
shapes = (
{
closed = 1;
nodes = (
(396,328,l),
(373,310,o),
(341,298,o),
(313,298,cs),
(271,298,o),
(243,328,o),
(243,472,cs),
(243,594,o),
(263,674,o),
(310,674,cs),
(364,674,o),
(387,569,o),
(387,456,cs),
(387,181,o),
(250,26,o),
(132,-2,c),
(132,-9,l),
(367,-9,o),
(622,144,o),
(622,403,cs),
(622,575,o),
(510,685,o),
(323,685,cs),
(168,685,o),
(16,609,o),
(16,457,cs),
(16,331,o),
(120,262,o),
(234,262,cs),
(307,262,o),
(363,289,o),
(397,319,c)
);
}
);
width = 652;
}
);
unicode = 57;
},
{
glyphname = hyphen;
layers = (
{
layerId = "656B38CD-A67B-4E9F-B73E-02DBA5E1D64F";
shapes = (
{
closed = 1;
nodes = (
(426,333,l,{name = hr01;}),
(426,346,l,{name = hr02;}),
(60,346,l),
(60,333,l,{name = hr03;})
);
}
);
width = 486;
},
{
layerId = "7832CF62-1B68-483E-9BF5-FE7E7BF8962B";
shapes = (
{
closed = 1;
nodes = (
(426,333,l,{name = hr01;}),
(426,346,l,{name = hr02;}),
(60,346,l),
(60,333,l,{name = hr03;})
);
}
);
width = 486;
}
);
unicode = 45;
},
{
glyphname = plus;
layers = (
{
layerId = "656B38CD-A67B-4E9F-B73E-02DBA5E1D64F";
shapes = (
{
closed = 1;
nodes = (
(601,351,l),
(601,364,l),
(316,364,l),
(316,643,l),
(303,643,l),
(303,364,l),
(18,364,l),
(18,351,l),
(303,351,l),
(303,60,l),
(316,60,l),
(316,351,l)
);
}
);
width = 622;
},
{
layerId = "7832CF62-1B68-483E-9BF5-FE7E7BF8962B";
shapes = (
{
closed = 1;
nodes = (
(601,351,l),
(601,364,l),
(316,364,l),
(316,643,l),
(303,643,l),
(303,364,l),
(18,364,l),
(18,351,l),
(303,351,l),
(303,60,l),
(316,60,l),
(316,351,l)
);
}
);
width = 622;
}
);
unicode = 43;
},
{
glyphname = asterisk;
layers = (
{
guides = (
{
position = "{0, 574}";
},
{
angle = 90;
position = "{59, 0}";
},
{
position = "{0, 417}";
}
);
layerId = "656B38CD-A67B-4E9F-B73E-02DBA5E1D64F";
shapes = (
{
closed = 1;
nodes = (
(191,571,l,{name = hr01;}),
(212,585,o),
(248,585,o),
(267,596,cs),
(279,602,o),
(283,612,o),
(276,623,cs),
(270,634,o),
(258,637,o),
(246,630,cs),
(229,620,o),
(209,588,o),
(188,577,c),
(182,573,l),
(182,576,l),
(181,601,o),
(198,638,o),
(198,659,cs,{name = hr02;}),
(198,673,o),
(191,682,o),
(178,682,cs),
(166,682,o),
(159,673,o),
(159,659,cs,{name = hr03;}),
(159,638,o),
(176,601,o),
(176,576,c,{name = hr04;}),
(176,573,l),
(171,576,l),
(149,587,o),
(130,619,o),
(111,630,cs),
(99,637,o),
(87,634,o),
(81,624,cs),
(75,613,o),
(79,602,o),
(90,595,cs),
(108,583,o),
(146,584,o),
(166,571,c),
(172,568,l),
(167,565,ls),
(145,552,o),
(109,551,o),
(90,540,cs),
(79,534,o),
(75,523,o),
(81,513,cs),
(88,503,o),
(98,500,o),
(110,507,cs),
(128,518,o),
(149,548,o),
(170,559,c),
(176,562,l),
(176,560,l),
(176,535,o),
(159,498,o),
(159,477,cs,{name = hr05;}),
(159,463,o),
(166,454,o),
(179,454,cs),
(191,454,o),
(198,463,o),
(198,477,cs,{name = hr06;}),
(198,498,o),
(181,535,o),
(182,560,c,{name = hr07;}),
(182,562,l),
(187,560,ls),
(209,551,o),
(229,519,o),
(247,507,cs),
(258,499,o),
(270,503,o),
(275,513,cs),
(281,523,o),
(278,533,o),
(266,540,cs),
(248,550,o),
(211,552,o),
(191,565,c),
(185,568,l)
);
}
);
width = 357;
},
{
guides = (
{
angle = 90;
position = "{50, 0}";
}
);
layerId = "7832CF62-1B68-483E-9BF5-FE7E7BF8962B";
shapes = (
{
closed = 1;
nodes = (
(247,499,ls,{name = hr01;}),
(288,523,o),
(353,506,o),
(383,524,c),
(414,541,o),
(423,570,o),
(407,596,cs),
(392,622,o),
(363,629,o),
(333,611,cs),
(303,594,o),
(284,529,o),
(244,506,c),
(236,501,l),
(236,504,ls),
(236,551,o),
(283,605,o),
(283,640,cs,{name = hr02;}),
(283,675,o),
(263,697,o),
(232,697,cs),
(202,697,o),
(182,675,o),
(182,640,cs,{name = hr03;}),
(182,605,o),
(229,551,o),
(229,504,cs,{name = hr04;}),
(229,501,l),
(223,505,l),
(182,528,o),
(163,593,o),
(132,611,cs),
(102,628,o),
(72,622,o),
(58,596,cs),
(43,570,o),
(51,541,o),
(82,524,cs),
(112,507,o),
(178,522,o),
(218,499,cs),
(225,495,l),
(219,491,l),
(178,467,o),
(112,484,o),
(82,466,c),
(51,449,o),
(42,420,o),
(58,394,cs),
(73,368,o),
(102,361,o),
(132,379,cs),
(162,396,o),
(182,461,o),
(222,484,cs),
(229,488,l),
(229,486,l),
(229,439,o),
(182,385,o),
(182,350,cs,{name = hr05;}),
(182,315,o),
(202,293,o),
(233,293,cs),
(263,293,o),
(283,315,o),
(283,350,cs,{name = hr06;}),
(283,385,o),
(236,439,o),
(236,486,c,{name = hr07;}),
(236,488,l),
(242,485,l),
(283,462,o),
(302,396,o),
(333,379,c),
(363,361,o),
(393,368,o),
(407,394,cs),
(422,420,o),
(414,449,o),
(383,466,cs),
(353,483,o),
(287,468,o),
(247,491,cs),
(240,495,l)
);
}
);
width = 465;
}
);
unicode = 42;
},
{
glyphname = asciicircum;
layers = (
{
layerId = "656B38CD-A67B-4E9F-B73E-02DBA5E1D64F";
shapes = (
{
closed = 1;
nodes = (
(50,354,l),
(61,349,l),
(359,714,l),
(658,349,l),
(669,354,l),
(364,727,l),
(355,727,l)
);
}
);
width = 719;
},
{
layerId = "7832CF62-1B68-483E-9BF5-FE7E7BF8962B";
shapes = (
{
closed = 1;
nodes = (
(50,354,l),
(61,349,l),
(359,714,l),
(658,349,l),
(669,354,l),
(364,727,l),
(355,727,l)
);
}
);
width = 719;
}
);
unicode = 94;
},
{
glyphname = tilde;
layers = (
{
anchors = (
{
name = _top;
position = "{207, 750}";
}
);
layerId = "656B38CD-A67B-4E9F-B73E-02DBA5E1D64F";
shapes = (
{
closed = 1;
nodes = (
(398,896,l,{name = hr01;}),
(398,837,o),
(355,810,o),
(317,810,cs),
(252,810,o),
(187,891,o),
(117,891,cs,{name = hr02;}),
(51,891,o),
(24,824,o),
(40,781,c),
(45,781,l),
(32,839,o),
(76,862,o),
(111,862,cs),
(171,862,o),
(237,783,o),
(309,783,cs,{name = hr03;}),
(370,783,o),
(406,841,o),
(404,896,c,{name = hr04;})
);
}
);
width = 433;
},
{
anchors = (
{
name = _top;
position = "{182, 750}";
}
);
layerId = "7832CF62-1B68-483E-9BF5-FE7E7BF8962B";
shapes = (
{
closed = 1;
nodes = (
(388,919,l,{name = hr01;}),
(388,886,o),
(352,872,o),
(319,872,cs),
(262,872,o),
(200,914,o),
(141,914,cs,{name = hr02;}),
(51,914,o),
(19,815,o),
(37,751,c),
(44,751,l),
(43,779,o),
(72,796,o),
(107,796,cs),
(159,796,o),
(207,758,o),
(262,758,cs,{name = hr03;}),
(347,758,o),
(392,849,o),
(394,919,c,{name = hr04;})
);
}
);
width = 433;
}
);
unicode = 732;
},
{
glyphname = slash;
layers = (
{
layerId = "656B38CD-A67B-4E9F-B73E-02DBA5E1D64F";
shapes = (
{
closed = 1;
nodes = (
(53,0,l),
(61,0,l),
(325,721,l,{name = hr01;}),
(317,721,l)
);
}
);
width = 377;
},
{
layerId = "7832CF62-1B68-483E-9BF5-FE7E7BF8962B";
shapes = (
{
closed = 1;
nodes = (
(50,0,l),
(63,0,l),
(327,721,l),
(314,721,l)
);
}
);
width = 377;
}
);
unicode = 47;
},
{
glyphname = backslash;
layers = (
{
layerId = "656B38CD-A67B-4E9F-B73E-02DBA5E1D64F";
shapes = (
{
closed = 1;
nodes = (
(63,721,l),
(53,721,l),
(317,0,l),
(327,0,l)
);
}
);
width = 377;
},
{
layerId = "7832CF62-1B68-483E-9BF5-FE7E7BF8962B";
shapes = (
{
closed = 1;
nodes = (
(63,721,l),
(50,721,l),
(314,0,l),
(327,0,l)
);
}
);
width = 377;
}
);
unicode = 92;
},
{
glyphname = colon;
layers = (
{
background = {
shapes = (
{
closed = 1;
nodes = (
(80,11,o),
(92,0,o),
(108,0,cs),
(124,0,o),
(136,11,o),
(136,25,cs),
(136,39,o),
(124,50,o),
(108,50,cs),
(92,50,o),
(80,39,o),
(80,25,cs)
);
},
{
closed = 1;
nodes = (
(80,272,o),
(92,261,o),
(108,261,cs),
(124,261,o),
(136,272,o),
(136,286,cs),
(136,300,o),
(124,311,o),
(108,311,cs),
(92,311,o),
(80,300,o),
(80,286,cs)
);
}
);
};
guides = (
{
position = "{0, 381}";
}
);
layerId = "656B38CD-A67B-4E9F-B73E-02DBA5E1D64F";
shapes = (
{
closed = 1;
nodes = (
(80,186,o),
(92,175,o),
(108,175,cs),
(124,175,o),
(136,186,o),
(136,200,cs),
(136,214,o),
(124,225,o),
(108,225,cs),
(92,225,o),
(80,214,o),
(80,200,cs)
);
},
{
closed = 1;
nodes = (
(80,447,o),
(92,436,o),
(108,436,cs),
(124,436,o),
(136,447,o),
(136,461,cs),
(136,475,o),
(124,486,o),
(108,486,cs),
(92,486,o),
(80,475,o),
(80,461,cs)
);
}
);
width = 216;
},
{
layerId = "7832CF62-1B68-483E-9BF5-FE7E7BF8962B";
shapes = (
{
closed = 1;
nodes = (
(40,133,o),
(88,90,o),
(150,90,cs),
(212,90,o),
(260,133,o),
(260,188,cs),
(260,243,o),
(212,286,o),
(150,286,cs),
(88,286,o),
(40,243,o),
(40,188,cs)
);
},
{
closed = 1;
nodes = (
(40,446,o),
(88,403,o),
(150,403,cs),
(212,403,o),
(260,446,o),
(260,501,cs),
(260,556,o),
(212,599,o),
(150,599,cs),
(88,599,o),
(40,556,o),
(40,501,cs)
);
}
);
width = 300;
}
);
unicode = 58;
},
{
glyphname = semicolon;
layers = (
{
layerId = "656B38CD-A67B-4E9F-B73E-02DBA5E1D64F";
shapes = (
{
closed = 1;
nodes = (
(76,-135,l),
(114,-106,o),
(136,-55,o),
(136,-16,cs),
(136,22,o),
(119,48,o),
(88,48,cs),
(71,48,o),
(59,36,o),
(59,22,cs),
(59,10,o),
(67,-2,o),
(85,-2,cs),
(97,-2,o),
(107,5,o),
(111,16,c),
(122,6,o),
(124,-7,o),
(124,-26,cs),
(124,-54,o),
(115,-97,o),
(73,-135,c)
);
},
{
closed = 1;
nodes = (
(61,271,o),
(73,260,o),
(89,260,cs),
(105,260,o),
(117,271,o),
(117,285,cs),
(117,299,o),
(105,310,o),
(89,310,cs),
(73,310,o),
(61,299,o),
(61,285,cs)
);
}
);
width = 177;
},
{
layerId = "7832CF62-1B68-483E-9BF5-FE7E7BF8962B";
shapes = (
{
closed = 1;
nodes = (
(145,-143,l),
(226,-105,o),
(269,-30,o),
(269,45,cs),
(269,126,o),
(215,178,o),
(145,178,cs),
(75,178,o),
(41,132,o),
(41,87,cs),
(41,42,o),
(74,-2,o),
(137,-2,cs),
(173,-2,o),
(212,13,o),
(223,36,c),
(225,28,o),
(225,17,o),
(225,14,cs,{name = hr01;}),
(225,-44,o),
(196,-105,o),
(137,-136,c)
);
},
{
closed = 1;
nodes = (
(40,347,o),
(88,304,o),
(150,304,cs),
(212,304,o),
(260,347,o),
(260,402,cs),
(260,457,o),
(212,500,o),
(150,500,cs),
(88,500,o),
(40,457,o),
(40,402,cs)
);
}
);
width = 301;
}
);
unicode = 59;
},
{
glyphname = less;
layers = (
{
layerId = "656B38CD-A67B-4E9F-B73E-02DBA5E1D64F";
shapes = (
{
closed = 1;
nodes = (
(664,26,l),
(669,37,l),
(111,335,l),
(669,634,l),
(664,645,l),
(94,340,l),
(94,331,l)
);
}
);
width = 768;
},
{
layerId = "7832CF62-1B68-483E-9BF5-FE7E7BF8962B";
shapes = (
{
closed = 1;
nodes = (
(664,26,l),
(669,37,l),
(111,335,l),
(669,634,l),
(664,645,l),
(94,340,l),
(94,331,l)
);
}
);
width = 768;
}
);
unicode = 60;
},
{
glyphname = equal;
layers = (
{
layerId = "656B38CD-A67B-4E9F-B73E-02DBA5E1D64F";
shapes = (
{
closed = 1;
nodes = (
(612,501,l),
(612,514,l),
(70,514,l),
(70,501,l)
);
},
{
closed = 1;
nodes = (
(612,163,l),
(612,176,l),
(70,176,l),
(70,163,l)
);
}
);
width = 682;
},
{
layerId = "7832CF62-1B68-483E-9BF5-FE7E7BF8962B";
shapes = (
{
closed = 1;
nodes = (
(612,501,l),
(612,514,l),
(70,514,l),
(70,501,l)
);
},
{
closed = 1;
nodes = (
(612,163,l),
(612,176,l),
(70,176,l),
(70,163,l)
);
}
);
width = 682;
}
);
unicode = 61;
},
{
glyphname = greater;
layers = (
{
layerId = "656B38CD-A67B-4E9F-B73E-02DBA5E1D64F";
shapes = (
{
closed = 1;
nodes = (
(145,645,l),
(140,634,l),
(698,335,l),
(140,37,l),
(145,26,l),
(715,331,l),
(715,340,l)
);
}
);
width = 780;
},
{
layerId = "7832CF62-1B68-483E-9BF5-FE7E7BF8962B";
shapes = (
{
closed = 1;
nodes = (
(145,645,l),
(140,634,l),
(698,335,l),
(140,37,l),
(145,26,l),
(715,331,l),
(715,340,l)
);
}
);
width = 780;
}
);
unicode = 62;
},
{
glyphname = questiondown;
layers = (
{
background = {
shapes = (
{
closed = 1;
nodes = (
(153,34,o),
(201,-9,o),
(263,-9,cs),
(325,-9,o),
(373,34,o),
(373,89,cs),
(373,144,o),
(325,187,o),
(263,187,cs),
(201,187,o),
(153,144,o),
(153,89,cs)
);
},
{
closed = 1;
nodes = (
(260,217,l),
(255,314,o),
(328,355,o),
(404,388,cs),
(496,428,o),
(572,472,o),
(572,567,cs),
(572,703,o),
(404,740,o),
(296,740,cs),
(169,740,o),
(35,683,o),
(35,561,cs),
(35,486,o),
(85,447,o),
(147,447,cs),
(213,447,o),
(244,491,o),
(244,536,cs),
(244,593,o),
(197,620,o),
(151,620,cs),
(127,620,o),
(103,612,o),
(84,600,c),
(84,654,o),
(145,722,o),
(228,722,cs),
(326,722,o),
(363,655,o),
(363,573,cs),
(363,441,o),
(246,350,o),
(251,217,c)
);
}
);
};
layerId = "656B38CD-A67B-4E9F-B73E-02DBA5E1D64F";
shapes = (
{
closed = 1;
nodes = (
(372,675,o),
(360,686,o),
(344,686,cs),
(328,686,o),
(316,675,o),
(316,661,cs),
(316,647,o),
(328,636,o),
(344,636,cs),
(360,636,o),
(372,647,o),
(372,661,cs)
);
},
{
closed = 1;
nodes = (
(347,530,l),
(344,457,o),
(316,424,o),
(279,372,cs),
(215,283,o),
(113,227,o),
(113,109,cs),
(113,-2,o),
(195,-62,o),
(302,-62,cs),
(404,-62,o),
(504,-1,o),
(504,102,cs),
(504,130,o),
(497,157,o),
(463,157,cs),
(442,157,o),
(430,142,o),
(430,127,cs),
(430,113,o),
(442,98,o),
(461,98,cs),
(472,98,o),
(483,104,o),
(489,113,c),
(507,12,o),
(407,-51,o),
(322,-51,cs),
(201,-51,o),
(143,18,o),
(143,110,cs),
(143,266,o),
(352,374,o),
(352,530,c)
);
}
);
width = 584;
},
{
layerId = "7832CF62-1B68-483E-9BF5-FE7E7BF8962B";
shapes = (
{
closed = 1;
nodes = (
(454,643,o),
(406,686,o),
(344,686,cs),
(282,686,o),
(234,643,o),
(234,588,cs),
(234,533,o),
(282,490,o),
(344,490,cs),
(406,490,o),
(454,533,o),
(454,588,cs)
);
},
{
closed = 1;
nodes = (
(347,460,l),
(352,363,o),
(279,322,o),
(203,289,cs),
(111,249,o),
(35,205,o),
(35,110,cs),
(35,-26,o),
(203,-63,o),
(311,-63,cs),
(438,-63,o),
(572,-6,o),
(572,116,cs),
(572,191,o),
(522,230,o),
(460,230,cs),
(394,230,o),
(363,186,o),
(363,141,cs),
(363,84,o),
(410,57,o),
(456,57,cs),
(480,57,o),
(504,65,o),
(523,77,c),
(523,23,o),
(462,-45,o),
(379,-45,cs),
(281,-45,o),
(244,22,o),
(244,104,cs),
(244,236,o),
(361,327,o),
(356,460,c)
);
}
);
width = 584;
}
);
unicode = 191;
},
{
glyphname = Ntilde;
layers = (
{
layerId = "656B38CD-A67B-4E9F-B73E-02DBA5E1D64F";
leftMetricsKey = N;
rightMetricsKey = N;
shapes = (
{
closed = 1;
nodes = (
(591,-2,l,{name = hr01;}),
(604,-2,l),
(596,47,l),
(596,43,o),
(596,40,o),
(593,44,cs),
(168,676,l),
(30,676,l),
(30,671,l),
(125,664,o),
(143,664,o),
(158,642,cs)
);
},
{
closed = 1;
nodes = (
(465,676,l),
(465,671,l),
(583,666,o),
(596,676,o),
(596,560,cs),
(596,-2,l),
(604,-2,l),
(604,560,ls),
(604,676,o),
(622,666,o),
(725,671,c),
(725,676,l)
);
},
{
closed = 1;
nodes = (
(151,116,ls),
(151,0,o),
(133,10,o),
(30,5,c),
(30,0,l),
(290,0,l),
(290,5,l),
(172,10,o),
(159,0,o),
(159,116,cs),
(159,668,l),
(151,671,l)
);
},
{
closed = 1;
nodes = (
(568,896,l,{name = hr01;}),
(568,837,o),
(525,810,o),
(487,810,cs),
(422,810,o),
(357,891,o),
(287,891,cs,{name = hr02;}),
(221,891,o),
(194,824,o),
(210,781,c),
(215,781,l),
(202,839,o),
(246,862,o),
(281,862,cs),
(341,862,o),
(407,783,o),
(479,783,cs,{name = hr03;}),
(540,783,o),
(576,841,o),
(574,896,c,{name = hr04;})
);
}
);
width = 735;
},
{
layerId = "7832CF62-1B68-483E-9BF5-FE7E7BF8962B";
shapes = (
{
closed = 1;
nodes = (
(510,0,l,{name = hr01;}),
(638,0,l),
(628,238,l),
(628,228,o),
(622,227,o),
(617,234,cs),
(314,676,l),
(-20,676,l),
(-20,668,l),
(66,668,o),
(111,594,o),
(152,530,c)
);
},
{
closed = 1;
nodes = (
(467,676,l),
(467,668,l),
(605,668,o),
(628,468,o),
(628,316,cs),
(628,0,l),
(638,0,l),
(638,356,ls),
(638,489,o),
(672,668,o),
(786,668,c),
(786,676,l)
);
},
{
closed = 1;
nodes = (
(138,361,ls),
(138,227,o),
(141,8,o),
(-10,8,c),
(-10,0,l),
(309,0,l),
(309,8,l),
(171,8,o),
(148,297,o),
(148,449,cs),
(148,625,l),
(138,625,l)
);
},
{
closed = 1;
nodes = (
(586,919,l,{name = hr01;}),
(586,886,o),
(550,872,o),
(517,872,cs),
(460,872,o),
(398,914,o),
(339,914,cs,{name = hr02;}),
(249,914,o),
(217,815,o),
(235,751,c),
(242,751,l),
(241,779,o),
(270,795,o),
(305,795,cs),
(357,795,o),
(405,757,o),
(460,757,cs,{name = hr03;}),
(545,757,o),
(590,849,o),
(592,919,c,{name = hr04;})
);
}
);
width = 754;
}
);
unicode = 209;
},
{
glyphname = degree;
layers = (
{
layerId = "656B38CD-A67B-4E9F-B73E-02DBA5E1D64F";
shapes = (
{
closed = 1;
nodes = (
(70,511,o),
(137,449,o),
(221,449,cs),
(304,449,o),
(372,511,o),
(372,591,cs),
(372,670,o),
(304,733,o),
(221,733,cs),
(137,733,o),
(70,670,o),
(70,591,cs)
);
},
{
closed = 1;
nodes = (
(307,725,o),
(344,659,o),
(344,594,cs),
(344,525,o),
(302,457,o),
(221,457,cs),
(138,457,o),
(98,523,o),
(98,591,cs),
(98,659,o),
(138,725,o),
(221,725,cs)
);
}
);
width = 442;
},
{
layerId = "7832CF62-1B68-483E-9BF5-FE7E7BF8962B";
shapes = (
{
closed = 1;
nodes = (
(50,480,o),
(135,405,o),
(242,405,cs),
(347,405,o),
(434,480,o),
(434,576,cs),
(434,670,o),
(347,747,o),
(242,747,cs),
(135,747,o),
(50,670,o),
(50,576,cs)
);
},
{
closed = 1;
nodes = (
(298,738,o),
(322,658,o),
(322,579,cs),
(322,496,o),
(294,414,o),
(242,414,cs),
(188,414,o),
(162,494,o),
(162,576,cs),
(162,658,o),
(188,738,o),
(242,738,cs)
);
}
);
width = 484;
}
);
unicode = 176;
},
{
glyphname = ordfeminine;
layers = (
{
layerId = "01C08534-D445-49A6-949A-C4861B4FF32A";
name = img;
width = 475;
},
{
layerId = "656B38CD-A67B-4E9F-B73E-02DBA5E1D64F";
shapes = (
{
closed = 1;
nodes = (
(327,635,l),
(257,589,o),
(93,574,o),
(93,479,cs),
(93,429,o),
(132,407,o),
(171,407,cs),
(241,407,o),
(305,468,o),
(323,551,c),
(321,563,l),
(321,559,o),
(321,498,o),
(321,498,cs),
(321,429,o),
(341,404,o),
(380,404,cs),
(404,404,o),
(425,413,o),
(432,430,c),
(429,433,l),
(422,421,o),
(413,415,o),
(396,415,cs),
(367,415,o),
(353,433,o),
(353,492,cs),
(353,669,ls),
(353,737,o),
(324,789,o),
(240,789,cs),
(159,789,o),
(124,735,o),
(124,690,cs),
(124,673,o),
(130,659,o),
(147,659,cs),
(164,659,o),
(173,672,o),
(173,688,cs),
(173,705,o),
(163,721,o),
(150,728,c),
(161,761,o),
(194,783,o),
(239,783,cs),
(305,783,o),
(323,744,o),
(323,697,cs),
(323,600,ls),
(323,523,o),
(268,421,o),
(186,421,cs),
(138,421,o),
(124,460,o),
(124,490,cs),
(124,570,o),
(260,590,o),
(331,628,c)
);
}
);
width = 475;
},
{
layerId = "7832CF62-1B68-483E-9BF5-FE7E7BF8962B";
shapes = (
{
closed = 1;
nodes = (
(280,652,l),
(194,597,o),
(30,587,o),
(30,487,cs),
(30,428,o),
(88,406,o),
(131,406,cs),
(211,406,o),
(251,455,o),
(267,537,c),
(270,537,l),
(270,533,o),
(270,533,o),
(270,530,cs),
(270,445,o),
(297,406,o),
(362,406,cs),
(395,406,o),
(431,416,o),
(445,446,c),
(441,451,l),
(438,442,o),
(433,440,o),
(429,440,cs),
(420,440,o),
(416,453,o),
(416,498,cs),
(416,620,ls),
(416,720,o),
(385,799,o),
(242,799,cs),
(113,799,o),
(61,737,o),
(61,683,cs),
(61,643,o),
(83,618,o),
(120,618,cs),
(162,618,o),
(181,652,o),
(181,686,cs),
(181,712,o),
(169,739,o),
(143,750,c),
(153,771,o),
(179,789,o),
(209,789,cs),
(255,789,o),
(269,748,o),
(269,711,cs),
(269,624,ls),
(269,518,o),
(235,451,o),
(201,451,cs),
(180,451,o),
(171,477,o),
(171,504,cs),
(171,574,o),
(230,618,o),
(284,642,c)
);
}
);
width = 475;
}
);
unicode = 170;
},
{
glyphname = ordmasculine;
layers = (
{
layerId = "01C08534-D445-49A6-949A-C4861B4FF32A";
name = img;
width = 488;
},
{
layerId = "656B38CD-A67B-4E9F-B73E-02DBA5E1D64F";
shapes = (
{
closed = 1;
nodes = (
(71,473,o),
(148,406,o),
(243,406,cs),
(340,406,o),
(417,473,o),
(417,602,cs),
(417,721,o),
(352,799,o),
(243,799,cs),
(148,799,o),
(71,733,o),
(71,602,cs)
);
},
{
closed = 1;
nodes = (
(101,735,o),
(165,793,o),
(243,793,cs),
(322,793,o),
(387,735,o),
(387,602,cs),
(387,463,o),
(322,412,o),
(243,412,cs),
(165,412,o),
(101,463,o),
(101,602,cs)
);
}
);
width = 488;
},
{
layerId = "7832CF62-1B68-483E-9BF5-FE7E7BF8962B";
shapes = (
{
closed = 1;
nodes = (
(25,473,o),
(122,406,o),
(243,406,cs),
(366,406,o),
(463,473,o),
(463,602,cs),
(463,733,o),
(366,799,o),
(243,799,cs),
(122,799,o),
(25,733,o),
(25,602,cs)
);
},
{
closed = 1;
nodes = (
(175,735,o),
(206,790,o),
(243,790,cs),
(281,790,o),
(313,735,o),
(313,602,cs),
(313,463,o),
(281,415,o),
(243,415,cs),
(206,415,o),
(175,463,o),
(175,602,cs)
);
}
);
width = 488;
}
);
unicode = 186;
},
{
glyphname = onesuperior;
layers = (
{
layerId = "01C08534-D445-49A6-949A-C4861B4FF32A";
name = img;
width = 340;
},
{
layerId = "656B38CD-A67B-4E9F-B73E-02DBA5E1D64F";
shapes = (
{
closed = 1;
nodes = (
(71,418,l),
(270,418,l),
(270,422,l),
(205,429,o),
(183,422,o),
(183,460,cs),
(183,796,l),
(83,771,l),
(83,767,l),
(154,781,o),
(158,779,o),
(158,737,cs),
(158,460,ls),
(158,422,o),
(136,429,o),
(71,422,c)
);
}
);
width = 340;
},
{
layerId = "7832CF62-1B68-483E-9BF5-FE7E7BF8962B";
shapes = (
{
closed = 1;
nodes = (
(50,417,l),
(290,417,l),
(290,426,l),
(243,426,o),
(228,442,o),
(228,475,cs),
(228,798,l),
(50,775,l),
(50,765,l),
(97,765,o),
(112,749,o),
(112,717,cs,{name = hr01;}),
(112,475,ls),
(112,442,o),
(97,426,o),
(50,426,c)
);
}
);
width = 340;
}
);
unicode = 185;
},
{
glyphname = twosuperior;
layers = (
{
layerId = "01C08534-D445-49A6-949A-C4861B4FF32A";
name = img;
width = 373;
},
{
layerId = "656B38CD-A67B-4E9F-B73E-02DBA5E1D64F";
shapes = (
{
closed = 1;
nodes = (
(73,405,l),
(73,416,ls),
(73,440,o),
(87,453,o),
(106,453,cs),
(143,453,o),
(160,408,o),
(221,408,cs),
(288,408,o),
(305,456,o),
(308,497,c),
(303,497,l),
(300,451,o),
(279,434,o),
(230,434,cs),
(176,434,o),
(156,460,o),
(109,460,cs),
(94,460,o),
(81,451,o),
(76,440,cs),
(75,437,o),
(75,443,o),
(76,449,cs),
(112,591,o),
(296,611,o),
(296,714,cs),
(296,764,o),
(246,798,o),
(185,798,cs),
(132,798,o),
(81,768,o),
(81,714,cs),
(81,692,o),
(94,676,o),
(110,676,cs),
(125,676,o),
(132,685,o),
(132,695,cs),
(132,705,o),
(125,716,o),
(112,716,cs),
(104,716,o),
(96,711,o),
(92,705,c),
(83,761,o),
(132,793,o),
(181,793,cs),
(225,793,o),
(266,765,o),
(266,716,cs),
(266,604,o),
(65,580,o),
(68,405,c,{name = hr01;})
);
}
);
width = 373;
},
{
layerId = "7832CF62-1B68-483E-9BF5-FE7E7BF8962B";
shapes = (
{
closed = 1;
nodes = (
(33,406,l),
(33,416,ls),
(33,440,o),
(47,455,o),
(69,455,cs),
(112,455,o),
(144,406,o),
(218,406,cs),
(332,406,o),
(340,514,o),
(340,570,c),
(332,570,l),
(332,532,o),
(305,523,o),
(262,523,cs),
(229,523,o),
(188,529,o),
(149,529,cs),
(97,529,o),
(65,504,o),
(44,472,c),
(43,471,o),
(42,471,o),
(42,472,c),
(94,630,o),
(336,556,o),
(336,702,cs),
(336,775,o),
(246,799,o),
(181,799,cs),
(116,799,o),
(37,770,o),
(37,697,cs),
(37,657,o),
(66,635,o),
(102,635,cs),
(138,635,o),
(156,660,o),
(156,685,cs),
(156,717,o),
(129,733,o),
(103,733,cs),
(90,733,o),
(76,728,o),
(65,721,c,{name = hr01;}),
(65,750,o),
(99,784,o),
(149,784,cs),
(187,784,o),
(209,762,o),
(209,732,cs),
(209,610,o),
(25,586,o),
(25,406,c)
);
}
);
width = 373;
}
);
unicode = 178;
},
{
glyphname = threesuperior;
layers = (
{
layerId = "01C08534-D445-49A6-949A-C4861B4FF32A";
name = img;
width = 373;
},
{
layerId = "656B38CD-A67B-4E9F-B73E-02DBA5E1D64F";
shapes = (
{
closed = 1;
nodes = (
(153,606,l),
(232,606,o),
(277,572,o),
(277,513,cs),
(277,471,o),
(258,414,o),
(163,414,cs),
(110,414,o),
(72,445,o),
(78,490,c),
(84,487,o),
(90,483,o),
(96,483,cs),
(107,483,o),
(118,489,o),
(118,503,cs),
(118,513,o),
(110,524,o),
(96,524,cs),
(75,524,o),
(69,506,o),
(69,489,cs),
(69,430,o),
(124,405,o),
(180,405,cs),
(232,405,o),
(304,429,o),
(304,507,cs),
(304,583,o),
(224,610,o),
(160,610,cs),
(153,610,l)
);
},
{
closed = 1;
nodes = (
(153,610,l),
(173,607,l),
(198,613,o),
(293,628,o),
(293,712,cs),
(293,773,o),
(236,798,o),
(182,798,cs),
(132,798,o),
(81,770,o),
(81,717,cs),
(81,700,o),
(89,682,o),
(108,682,cs),
(122,682,o),
(130,693,o),
(130,702,cs),
(130,711,o),
(122,722,o),
(109,722,cs),
(102,722,o),
(95,717,o),
(90,711,c),
(80,758,o),
(131,793,o),
(176,793,cs),
(250,793,o),
(266,751,o),
(266,716,cs),
(266,663,o),
(227,611,o),
(153,611,c)
);
}
);
width = 373;
},
{
layerId = "7832CF62-1B68-483E-9BF5-FE7E7BF8962B";
shapes = (
{
closed = 1;
nodes = (
(134,605,l),
(187,605,o),
(211,571,o),
(211,514,cs),
(211,477,o),
(200,422,o),
(142,422,cs),
(90,422,o),
(58,454,o),
(58,482,c),
(69,476,o),
(81,470,o),
(95,470,cs),
(122,470,o),
(149,486,o),
(149,516,cs),
(149,542,o),
(129,567,o),
(94,567,cs),
(58,567,o),
(29,544,o),
(29,505,cs),
(29,435,o),
(108,406,o),
(173,406,cs),
(244,406,o),
(342,431,o),
(342,507,cs),
(342,593,o),
(233,613,o),
(148,613,cs),
(134,613,l)
);
},
{
closed = 1;
nodes = (
(146,610,l),
(158,610,l),
(193,616,o),
(335,628,o),
(335,712,cs),
(335,778,o),
(246,799,o),
(181,799,cs),
(122,799,o),
(49,772,o),
(49,708,cs),
(49,672,o),
(76,653,o),
(109,653,cs),
(143,653,o),
(159,674,o),
(159,696,cs),
(159,726,o),
(134,739,o),
(110,739,cs),
(98,739,o),
(85,735,o),
(75,730,c),
(75,755,o),
(107,785,o),
(153,785,cs),
(201,785,o),
(216,747,o),
(216,716,cs),
(216,663,o),
(192,613,o),
(146,613,c)
);
}
);
width = 373;
}
);
unicode = 179;
},
{
glyphname = fraction;
layers = (
{
layerId = "656B38CD-A67B-4E9F-B73E-02DBA5E1D64F";
shapes = (
{
closed = 1;
nodes = (
(50,0,l),
(63,0,l),
(327,721,l),
(314,721,l)
);
}
);
width = 377;
},
{
layerId = "7832CF62-1B68-483E-9BF5-FE7E7BF8962B";
shapes = (
{
closed = 1;
nodes = (
(50,0,l),
(63,0,l),
(327,721,l),
(314,721,l)
);
}
);
width = 377;
}
);
unicode = 8260;
},
{
glyphname = onequarter;
layers = (
{
layerId = "01C08534-D445-49A6-949A-C4861B4FF32A";
name = img;
width = 685;
},
{
background = {
shapes = (
{
closed = 1;
nodes = (
(457,102,l),
(457,259,l),
(340,102,l),
(429,102,l),
(426,78,l),
(321,78,l),
(321,92,l),
(532,376,l),
(573,376,l),
(573,102,l),
(635,102,l),
(627,78,l),
(573,78,l),
(573,69,l),
(457,69,l),
(457,78,l)
);
}
);
};
layerId = "656B38CD-A67B-4E9F-B73E-02DBA5E1D64F";
shapes = (
{
closed = 1;
nodes = (
(482,721,l),
(218,0,l),
(226,0,l),
(490,721,l,{name = hr01;})
);
},
{
closed = 1;
nodes = (
(70,295,l),
(269,295,l),
(269,299,l),
(204,306,o),
(182,299,o),
(182,337,cs),
(182,673,l),
(82,648,l),
(82,644,l),
(153,658,o),
(157,656,o),
(157,614,cs),
(157,337,ls),
(157,299,o),
(135,306,o),
(70,299,c)
);
},
{
closed = 1;
nodes = (
(327,92,l),
(327,89,l),
(627,89,l),
(635,102,l),
(340,102,l),
(500,362,l),
(500,49,ls),
(500,11,o),
(478,18,o),
(413,11,c),
(413,7,l),
(612,7,l),
(612,11,l),
(547,18,o),
(525,11,o),
(525,49,cs),
(525,376,l),
(501,376,l)
);
}
);
width = 685;
},
{
layerId = "7832CF62-1B68-483E-9BF5-FE7E7BF8962B";
shapes = (
{
closed = 1;
nodes = (
(482,721,l),
(218,0,l),
(231,0,l),
(495,721,l,{name = hr01;})
);
},
{
closed = 1;
nodes = (
(50,295,l),
(290,295,l),
(290,304,l),
(243,304,o),
(228,320,o),
(228,353,cs),
(228,676,l),
(50,653,l),
(50,643,l),
(97,643,o),
(112,627,o),
(112,595,cs),
(112,353,ls),
(112,320,o),
(97,304,o),
(50,304,c)
);
},
{
closed = 1;
nodes = (
(321,92,l),
(321,78,l),
(627,78,l),
(635,102,l),
(340,102,l),
(457,259,l),
(457,53,ls),
(457,20,o),
(442,4,o),
(395,4,c),
(395,-5,l),
(635,-5,l),
(635,4,l),
(588,4,o),
(573,20,o),
(573,53,cs),
(573,376,l),
(532,376,l)
);
}
);
width = 685;
}
);
unicode = 188;
},
{
glyphname = onehalf;
layers = (
{
layerId = "01C08534-D445-49A6-949A-C4861B4FF32A";
name = img;
width = 737;
},
{
background = {
shapes = (
{
closed = 1;
nodes = (
(377,242,o),
(406,220,o),
(442,220,cs),
(478,220,o),
(496,245,o),
(496,270,cs),
(496,302,o),
(469,318,o),
(443,318,cs),
(430,318,o),
(416,313,o),
(405,306,c),
(405,335,o),
(439,369,o),
(489,369,cs),
(527,369,o),
(549,347,o),
(549,317,cs),
(549,195,o),
(365,171,o),
(365,-9,c),
(373,-9,l),
(373,1,ls),
(373,25,o),
(387,40,o),
(409,40,cs),
(452,40,o),
(484,-9,o),
(558,-9,cs),
(672,-9,o),
(680,99,o),
(680,155,c),
(672,155,l),
(672,117,o),
(645,108,o),
(602,108,cs),
(569,108,o),
(528,114,o),
(489,114,cs),
(437,114,o),
(405,89,o),
(384,57,c),
(383,56,o),
(382,56,o),
(382,57,c),
(434,215,o),
(676,141,o),
(676,287,cs),
(676,360,o),
(586,384,o),
(521,384,cs),
(456,384,o),
(377,355,o),
(377,282,cs)
);
}
);
};
layerId = "656B38CD-A67B-4E9F-B73E-02DBA5E1D64F";
shapes = (
{
closed = 1;
nodes = (
(218,0,l),
(227,0,l),
(491,721,l,{name = hr01;}),
(482,721,l)
);
},
{
closed = 1;
nodes = (
(70,295,l),
(269,295,l),
(269,298,l),
(204,305,o),
(182,298,o),
(182,336,cs),
(182,673,l),
(82,648,l),
(82,645,l),
(153,659,o),
(157,657,o),
(157,615,cs),
(157,336,ls),
(157,298,o),
(135,305,o),
(70,298,c)
);
},
{
closed = 1;
nodes = (
(410,-8,l),
(410,3,ls),
(410,27,o),
(424,40,o),
(443,40,cs),
(480,40,o),
(497,-5,o),
(558,-5,cs),
(625,-5,o),
(642,43,o),
(645,84,c),
(640,84,l),
(637,38,o),
(616,21,o),
(567,21,cs),
(513,21,o),
(493,47,o),
(446,47,cs),
(431,47,o),
(418,39,o),
(413,28,cs),
(412,25,o),
(412,30,o),
(413,36,cs),
(447,170,o),
(633,198,o),
(633,301,cs),
(633,351,o),
(583,385,o),
(522,385,cs),
(469,385,o),
(418,355,o),
(418,301,cs),
(418,279,o),
(431,263,o),
(447,263,cs),
(462,263,o),
(469,272,o),
(469,282,cs),
(469,292,o),
(462,303,o),
(449,303,cs),
(441,303,o),
(433,298,o),
(429,292,c),
(420,348,o),
(469,379,o),
(518,379,cs),
(562,379,o),
(603,352,o),
(603,303,cs),
(603,191,o),
(402,167,o),
(405,-8,c,{name = hr01;})
);
}
);
width = 737;
},
{
layerId = "7832CF62-1B68-483E-9BF5-FE7E7BF8962B";
shapes = (
{
closed = 1;
nodes = (
(218,0,l),
(231,0,l),
(495,721,l,{name = hr01;}),
(482,721,l)
);
},
{
closed = 1;
nodes = (
(50,295,l),
(290,295,l),
(290,304,l),
(243,304,o),
(228,320,o),
(228,353,cs),
(228,676,l),
(50,653,l),
(50,643,l),
(97,643,o),
(112,627,o),
(112,595,cs),
(112,353,ls),
(112,320,o),
(97,304,o),
(50,304,c)
);
},
{
closed = 1;
nodes = (
(373,-9,l),
(373,1,ls),
(373,25,o),
(387,40,o),
(409,40,cs),
(452,40,o),
(484,-9,o),
(558,-9,cs),
(672,-9,o),
(680,99,o),
(680,155,c),
(672,155,l),
(672,117,o),
(645,108,o),
(602,108,cs),
(569,108,o),
(528,114,o),
(489,114,cs),
(437,114,o),
(405,89,o),
(384,57,cs),
(383,55,o),
(381,54,o),
(382,57,cs),
(434,215,o),
(676,141,o),
(676,287,cs),
(676,360,o),
(586,384,o),
(521,384,cs),
(456,384,o),
(377,355,o),
(377,282,cs),
(377,242,o),
(406,220,o),
(442,220,cs),
(478,220,o),
(496,245,o),
(496,270,cs),
(496,302,o),
(469,318,o),
(443,318,cs),
(430,318,o),
(416,313,o),
(405,306,c),
(405,335,o),
(439,369,o),
(489,369,cs),
(527,369,o),
(549,347,o),
(549,317,cs),
(549,195,o),
(365,171,o),
(365,-9,c)
);
}
);
width = 737;
}
);
unicode = 189;
},
{
glyphname = threequarters;
layers = (
{
layerId = "01C08534-D445-49A6-949A-C4861B4FF32A";
name = img;
width = 730;
},
{
layerId = "656B38CD-A67B-4E9F-B73E-02DBA5E1D64F";
shapes = (
{
closed = 1;
nodes = (
(263,0,l),
(272,0,l),
(536,721,l,{name = hr01;}),
(527,721,l)
);
},
{
closed = 1;
nodes = (
(557,376,l),
(383,92,l),
(383,89,l),
(683,89,l),
(691,102,l),
(396,102,l),
(556,362,l),
(556,49,ls),
(556,11,o),
(534,18,o),
(469,11,c),
(469,7,l),
(668,7,l),
(668,11,l),
(603,18,o),
(581,11,o),
(581,49,cs),
(581,376,l)
);
},
{
closed = 1;
nodes = (
(173,485,l),
(252,485,o),
(297,451,o),
(297,392,cs),
(297,350,o),
(278,293,o),
(183,293,cs),
(130,293,o),
(92,324,o),
(98,369,c),
(104,366,o),
(110,362,o),
(116,362,cs),
(127,362,o),
(138,368,o),
(138,382,cs),
(138,392,o),
(130,403,o),
(116,403,cs),
(95,403,o),
(89,385,o),
(89,368,cs),
(89,309,o),
(144,284,o),
(200,284,cs),
(252,284,o),
(324,308,o),
(324,386,cs),
(324,462,o),
(244,489,o),
(180,489,cs),
(173,489,l)
);
},
{
closed = 1;
nodes = (
(173,489,l),
(193,486,l),
(218,492,o),
(313,507,o),
(313,591,cs),
(313,652,o),
(256,677,o),
(202,677,cs),
(152,677,o),
(101,649,o),
(101,596,cs),
(101,579,o),
(109,561,o),
(128,561,cs),
(142,561,o),
(150,572,o),
(150,581,cs),
(150,590,o),
(142,601,o),
(129,601,cs),
(122,601,o),
(115,596,o),
(110,590,c),
(100,637,o),
(151,672,o),
(196,672,cs),
(270,672,o),
(286,630,o),
(286,595,cs),
(286,542,o),
(247,490,o),
(173,490,c)
);
}
);
width = 730;
},
{
layerId = "7832CF62-1B68-483E-9BF5-FE7E7BF8962B";
shapes = (
{
closed = 1;
nodes = (
(263,0,l),
(276,0,l),
(540,721,l,{name = hr01;}),
(527,721,l)
);
},
{
closed = 1;
nodes = (
(574,376,l),
(363,92,l),
(363,78,l),
(669,78,l),
(677,102,l),
(382,102,l),
(499,259,l),
(499,53,ls),
(499,20,o),
(484,4,o),
(437,4,c),
(437,-5,l),
(677,-5,l),
(677,4,l),
(630,4,o),
(615,20,o),
(615,53,cs),
(615,376,l)
);
},
{
closed = 1;
nodes = (
(155,483,l),
(208,483,o),
(232,449,o),
(232,392,cs),
(232,355,o),
(221,300,o),
(163,300,cs),
(111,300,o),
(79,332,o),
(79,360,c),
(90,354,o),
(102,348,o),
(116,348,cs),
(143,348,o),
(170,364,o),
(170,394,cs),
(170,420,o),
(150,445,o),
(115,445,cs),
(79,445,o),
(50,422,o),
(50,383,cs),
(50,313,o),
(129,284,o),
(194,284,cs),
(265,284,o),
(363,309,o),
(363,385,cs),
(363,471,o),
(254,491,o),
(169,491,cs),
(155,491,l)
);
},
{
closed = 1;
nodes = (
(167,488,l),
(179,488,l),
(214,494,o),
(356,506,o),
(356,590,cs),
(356,656,o),
(267,677,o),
(202,677,cs),
(143,677,o),
(70,650,o),
(70,586,cs),
(70,550,o),
(97,531,o),
(130,531,cs),
(164,531,o),
(180,552,o),
(180,574,cs),
(180,604,o),
(155,617,o),
(131,617,cs),
(119,617,o),
(106,613,o),
(96,608,c),
(96,633,o),
(128,663,o),
(174,663,cs),
(222,663,o),
(237,625,o),
(237,594,cs),
(237,541,o),
(213,491,o),
(167,491,c)
);
}
);
width = 730;
}
);
unicode = 190;
},
{
glyphname = perthousand;
layers = (
{
background = {
shapes = (
{
closed = 1;
nodes = (
(169,574,l),
(149,574,o),
(121,542,o),
(121,509,cs),
(121,473,o),
(154,435,o),
(264,435,cs),
(365,435,o),
(485,472,o),
(538,559,cs),
(552,582,o),
(539,600,o),
(519,600,cs),
(512,600,o),
(502,596,o),
(494,586,cs),
(410,479,o),
(349,444,o),
(254,444,cs),
(64,444,o),
(135,568,o),
(169,568,c)
);
},
{
closed = 1;
nodes = (
(457,320,o),
(471,267,o),
(471,213,cs),
(471,156,o),
(456,98,o),
(426,98,cs),
(394,98,o),
(379,154,o),
(379,210,cs),
(379,265,o),
(394,320,o),
(426,320,cs)
);
},
{
closed = 1;
nodes = (
(293,143,o),
(353,92,o),
(426,92,cs),
(498,92,o),
(558,143,o),
(558,209,cs),
(558,273,o),
(498,326,o),
(426,326,cs),
(353,326,o),
(293,273,o),
(293,209,cs)
);
},
{
closed = 1;
nodes = (
(494,586,l),
(88,88,l),
(97,88,l),
(504,586,l)
);
},
{
closed = 1;
nodes = (
(200,568,o),
(214,515,o),
(214,461,cs),
(214,404,o),
(199,346,o),
(169,346,cs),
(137,346,o),
(122,402,o),
(122,458,cs),
(122,513,o),
(137,568,o),
(169,568,cs)
);
},
{
closed = 1;
nodes = (
(36,391,o),
(96,340,o),
(169,340,cs),
(241,340,o),
(301,391,o),
(301,457,cs),
(301,521,o),
(241,574,o),
(169,574,cs),
(96,574,o),
(36,521,o),
(36,457,cs)
);
},
{
closed = 1;
nodes = (
(639,320,o),
(653,267,o),
(653,213,cs),
(653,156,o),
(638,98,o),
(608,98,cs),
(576,98,o),
(561,154,o),
(561,210,cs),
(561,265,o),
(576,320,o),
(608,320,cs)
);
},
{
closed = 1;
nodes = (
(475,143,o),
(535,92,o),
(608,92,cs),
(680,92,o),
(740,143,o),
(740,209,cs),
(740,273,o),
(680,326,o),
(608,326,cs),
(535,326,o),
(475,273,o),
(475,209,cs)
);
}
);
};
layerId = "656B38CD-A67B-4E9F-B73E-02DBA5E1D64F";
shapes = (
{
closed = 1;
nodes = (
(196,574,l),
(157,574,o),
(138,541,o),
(138,509,cs),
(138,473,o),
(165,419,o),
(269,419,cs),
(385,419,o),
(491,487,o),
(526,552,cs),
(531,562,o),
(526,568,o),
(518,568,cs),
(514,568,o),
(510,566,o),
(506,561,cs),
(446,476,o),
(372,426,o),
(268,426,cs),
(167,426,o),
(144,476,o),
(144,509,cs),
(144,538,o),
(161,568,o),
(196,568,c)
);
},
{
closed = 1;
nodes = (
(512,320,o),
(538,267,o),
(538,213,cs),
(538,156,o),
(510,98,o),
(453,98,cs),
(393,98,o),
(366,154,o),
(366,210,cs),
(366,265,o),
(393,320,o),
(453,320,cs)
);
},
{
closed = 1;
nodes = (
(337,143,o),
(389,92,o),
(453,92,cs),
(516,92,o),
(568,143,o),
(568,209,cs),
(568,273,o),
(516,326,o),
(453,326,cs),
(389,326,o),
(337,273,o),
(337,209,cs)
);
},
{
closed = 1;
nodes = (
(506,561,l),
(120,88,l),
(129,88,l),
(516,561,l)
);
},
{
closed = 1;
nodes = (
(255,568,o),
(281,515,o),
(281,461,cs),
(281,404,o),
(252,346,o),
(196,346,cs),
(136,346,o),
(109,402,o),
(109,458,cs),
(109,513,o),
(136,568,o),
(196,568,cs)
);
},
{
closed = 1;
nodes = (
(80,391,o),
(132,340,o),
(196,340,cs),
(259,340,o),
(311,391,o),
(311,457,cs),
(311,521,o),
(259,574,o),
(196,574,cs),
(132,574,o),
(80,521,o),
(80,457,cs)
);
},
{
closed = 1;
nodes = (
(716,320,o),
(742,267,o),
(742,213,cs),
(742,156,o),
(714,98,o),
(657,98,cs),
(597,98,o),
(570,154,o),
(570,210,cs),
(570,265,o),
(597,320,o),
(657,320,cs)
);
},
{
closed = 1;
nodes = (
(541,143,o),
(593,92,o),
(657,92,cs),
(720,92,o),
(772,143,o),
(772,209,cs),
(772,273,o),
(720,326,o),
(657,326,cs),
(593,326,o),
(541,273,o),
(541,209,cs)
);
}
);
width = 812;
},
{
layerId = "7832CF62-1B68-483E-9BF5-FE7E7BF8962B";
shapes = (
{
closed = 1;
nodes = (
(169,574,l),
(149,574,o),
(121,542,o),
(121,509,cs),
(121,473,o),
(154,435,o),
(264,435,cs),
(365,435,o),
(485,472,o),
(538,559,cs),
(552,582,o),
(539,600,o),
(519,600,cs),
(512,600,o),
(502,596,o),
(494,586,cs),
(410,479,o),
(349,444,o),
(254,444,cs),
(156,444,o),
(128,477,o),
(127,509,c),
(127,539,o),
(152,568,o),
(169,568,c)
);
},
{
closed = 1;
nodes = (
(457,320,o),
(471,267,o),
(471,213,cs),
(471,156,o),
(456,98,o),
(426,98,cs),
(394,98,o),
(379,154,o),
(379,210,cs),
(379,265,o),
(394,320,o),
(426,320,cs)
);
},
{
closed = 1;
nodes = (
(293,143,o),
(353,92,o),
(426,92,cs),
(498,92,o),
(558,143,o),
(558,209,cs),
(558,273,o),
(498,326,o),
(426,326,cs),
(353,326,o),
(293,273,o),
(293,209,cs)
);
},
{
closed = 1;
nodes = (
(494,586,l),
(88,88,l),
(97,88,l),
(504,586,l)
);
},
{
closed = 1;
nodes = (
(200,568,o),
(214,515,o),
(214,461,cs),
(214,404,o),
(199,346,o),
(169,346,cs),
(137,346,o),
(122,402,o),
(122,458,cs),
(122,513,o),
(137,568,o),
(169,568,cs)
);
},
{
closed = 1;
nodes = (
(36,391,o),
(96,340,o),
(169,340,cs),
(241,340,o),
(301,391,o),
(301,457,cs),
(301,521,o),
(241,574,o),
(169,574,cs),
(96,574,o),
(36,521,o),
(36,457,cs)
);
},
{
closed = 1;
nodes = (
(639,320,o),
(653,267,o),
(653,213,cs),
(653,156,o),
(638,98,o),
(608,98,cs),
(576,98,o),
(561,154,o),
(561,210,cs),
(561,265,o),
(576,320,o),
(608,320,cs)
);
},
{
closed = 1;
nodes = (
(475,143,o),
(535,92,o),
(608,92,cs),
(680,92,o),
(740,143,o),
(740,209,cs),
(740,273,o),
(680,326,o),
(608,326,cs),
(535,326,o),
(475,273,o),
(475,209,cs)
);
}
);
width = 781;
}
);
unicode = 8240;
},
{
glyphname = mu;
leftMetricsKey = u;
layers = (
{
layerId = "656B38CD-A67B-4E9F-B73E-02DBA5E1D64F";
shapes = (
{
closed = 1;
nodes = (
(408,101,ls),
(408,14,o),
(428,-9,o),
(463,-9,cs),
(500,-9,o),
(515,11,o),
(524,35,c),
(521,37,l),
(511,15,o),
(497,3,o),
(478,3,cs),
(444,3,o),
(435,37,o),
(435,85,cs),
(435,472,l),
(429,462,o),
(415,458,o),
(408,458,c)
);
},
{
closed = 1;
nodes = (
(107,244,l),
(107,-240,l),
(134,-240,l),
(134,212,l)
);
},
{
closed = 1;
nodes = (
(134,472,l),
(106,459,o),
(61,453,o),
(20,453,c),
(20,449,l),
(87,449,o),
(107,449,o),
(107,410,cs),
(107,147,ls),
(107,28,o),
(158,-7,o),
(230,-7,cs,{name = hr01;}),
(339,-7,o),
(412,109,o),
(412,223,c),
(408,228,l),
(408,157,o),
(369,4,o),
(231,4,cs),
(174,4,o),
(134,46,o),
(134,118,cs)
);
}
);
width = 594;
},
{
layerId = "7832CF62-1B68-483E-9BF5-FE7E7BF8962B";
shapes = (
{
closed = 1;
nodes = (
(386,184,ls),
(386,47,o),
(434,-9,o),
(529,-9,cs),
(590,-9,o),
(618,14,o),
(630,47,c),
(625,54,l),
(620,37,o),
(611,32,o),
(604,32,cs),
(590,32,o),
(587,60,o),
(587,106,cs),
(587,500,l),
(513,481,o),
(464,473,o),
(386,467,c)
);
},
{
closed = 1;
nodes = (
(77,244,l),
(77,-240,l),
(266,-240,l),
(266,212,l)
);
},
{
closed = 1;
nodes = (
(268,500,l),
(193,487,o),
(104,481,o),
(0,481,c),
(0,473,l),
(56,473,o),
(77,468,o),
(77,416,cs),
(77,200,ls),
(77,57,o),
(98,-6,o),
(218,-6,cs,{name = hr01;}),
(289,-6,o),
(390,45,o),
(390,159,c),
(386,184,l),
(386,126,o),
(359,42,o),
(309,42,cs),
(282,42,o),
(268,65,o),
(268,118,cs)
);
}
);
width = 654;
}
);
unicode = (956,181);
},
{
glyphname = paragraph;
layers = (
{
layerId = "01C08534-D445-49A6-949A-C4861B4FF32A";
name = img;
width = 478;
},
{
layerId = "656B38CD-A67B-4E9F-B73E-02DBA5E1D64F";
shapes = (
{
closed = 1;
nodes = (
(413,621,l),
(235,621,l),
(194,621,o),
(144,593,o),
(144,537,cs),
(144,481,o),
(194,453,o),
(235,453,c),
(235,73,l),
(246,73,l),
(246,597,ls),
(246,606,o),
(249,611,o),
(259,611,cs),
(345,611,l),
(345,73,l),
(356,73,l),
(356,611,l),
(413,611,l)
);
}
);
width = 478;
},
{
layerId = "7832CF62-1B68-483E-9BF5-FE7E7BF8962B";
shapes = (
{
closed = 1;
nodes = (
(413,621,l),
(235,621,ls),
(154,621,o),
(57,566,o),
(57,457,cs),
(57,348,o),
(154,292,o),
(235,292,c),
(235,73,l),
(246,73,l),
(246,597,ls),
(246,606,o),
(249,611,o),
(259,611,cs),
(345,611,l),
(345,73,l),
(356,73,l),
(356,611,l),
(413,611,l)
);
}
);
width = 478;
}
);
unicode = 182;
},
{
glyphname = section;
layers = (
{
layerId = "656B38CD-A67B-4E9F-B73E-02DBA5E1D64F";
shapes = (
{
closed = 1;
nodes = (
(343,631,l),
(343,616,o),
(337,609,o),
(325,609,cs),
(307,609,o),
(288,624,o),
(251,624,cs),
(184,624,o),
(144,586,o),
(144,531,cs),
(144,470,o),
(203,441,o),
(257,410,c),
(252,410,o),
(248,411,o),
(242,411,cs),
(176,411,o),
(129,370,o),
(129,318,cs),
(129,206,o),
(331,212,o),
(331,112,cs),
(331,67,o),
(291,30,o),
(231,30,cs),
(189,30,o),
(162,53,o),
(157,74,c),
(166,83,o),
(175,96,o),
(175,112,cs),
(175,130,o),
(162,146,o),
(142,146,cs),
(119,146,o),
(108,129,o),
(108,110,cs),
(108,62,o),
(152,26,o),
(231,26,cs),
(297,26,o),
(371,56,o),
(371,135,cs),
(371,192,o),
(321,220,o),
(269,246,c),
(274,246,o),
(279,246,o),
(284,247,cs),
(337,252,o),
(375,288,o),
(375,346,cs),
(375,464,o),
(171,460,o),
(171,562,cs),
(171,609,o),
(224,619,o),
(250,619,cs),
(299,619,o),
(342,582,o),
(343,524,c),
(343,522,o),
(344,521,o),
(345,521,c),
(348,521,o),
(348,521,o),
(348,525,cs),
(348,631,l)
);
},
{
closed = 1;
nodes = (
(203,279,o),
(159,303,o),
(159,348,cs),
(159,397,o),
(217,404,o),
(242,404,cs),
(262,404,o),
(277,399,o),
(294,387,cs),
(319,369,o),
(335,348,o),
(335,316,cs),
(335,272,o),
(307,253,o),
(273,253,cs),
(266,253,o),
(258,254,o),
(251,255,c)
);
}
);
width = 489;
},
{
layerId = "7832CF62-1B68-483E-9BF5-FE7E7BF8962B";
shapes = (
{
closed = 1;
nodes = (
(418,673,l),
(418,668,o),
(418,650,o),
(392,650,cs),
(369,650,o),
(330,666,o),
(273,666,cs),
(173,666,o),
(99,617,o),
(99,546,cs),
(99,465,o),
(195,435,o),
(266,401,c),
(261,401,o),
(257,401,o),
(252,400,cs),
(162,394,o),
(99,348,o),
(99,281,cs),
(99,154,o),
(331,158,o),
(331,67,cs),
(331,33,o),
(300,4,o),
(256,4,cs),
(226,4,o),
(186,18,o),
(177,37,c,{name = hr01;}),
(194,54,o),
(209,75,o),
(209,100,cs),
(209,130,o),
(188,157,o),
(153,157,cs),
(116,157,o),
(92,129,o),
(92,94,cs),
(92,33,o),
(167,-3,o),
(260,-3,cs),
(355,-3,o),
(460,35,o),
(460,135,cs,{name = hr02;}),
(460,222,o),
(381,255,o),
(315,284,c),
(320,284,o),
(324,284,o),
(328,284,cs),
(400,284,o),
(460,322,o),
(460,399,cs),
(460,551,o),
(226,540,o),
(226,624,cs),
(226,643,o),
(239,659,o),
(283,659,cs),
(371,659,o),
(402,595,o),
(418,529,c),
(418,528,o),
(419,527,o),
(421,527,c),
(422,527,o),
(425,527,o),
(425,530,cs),
(425,673,l)
);
},
{
closed = 1;
nodes = (
(255,312,o),
(226,330,o),
(226,360,cs),
(226,384,o),
(245,393,o),
(265,393,cs),
(279,393,o),
(296,385,o),
(305,379,cs),
(325,365,o),
(338,349,o),
(338,327,cs),
(338,305,o),
(325,293,o),
(305,293,cs),
(301,293,o),
(297,293,o),
(293,294,c)
);
}
);
width = 534;
}
);
unicode = 167;
},
{
glyphname = dagger;
layers = (
{
layerId = "01C08534-D445-49A6-949A-C4861B4FF32A";
name = img;
width = 562;
},
{
layerId = "656B38CD-A67B-4E9F-B73E-02DBA5E1D64F";
shapes = (
{
closed = 1;
nodes = (
(284,-141,l),
(282,-58,l),
(282,79,o),
(241,150,o),
(165,150,cs),
(132,150,o),
(107,126,o),
(107,94,cs),
(107,62,o),
(128,46,o),
(151,46,cs),
(178,46,o),
(191,68,o),
(191,88,cs),
(191,103,o),
(181,123,o),
(162,127,c),
(167,131,o),
(174,132,o),
(180,132,cs),
(237,132,o),
(278,48,o),
(278,-50,c)
);
},
{
closed = 1;
nodes = (
(317,-185,l),
(292,-155,o),
(284,-104,o),
(284,-50,cs),
(284,86,o),
(283,126,o),
(295,190,c),
(284,734,l),
(278,734,l),
(267,190,l),
(279,126,o),
(278,86,o),
(278,-50,cs),
(278,-104,o),
(270,-155,o),
(245,-185,c)
);
},
{
closed = 1;
nodes = (
(278,-141,l),
(284,-50,l),
(284,48,o),
(325,132,o),
(382,132,cs),
(388,132,o),
(395,131,o),
(400,127,c),
(381,123,o),
(371,103,o),
(371,88,cs),
(371,68,o),
(384,46,o),
(411,46,cs),
(434,46,o),
(455,62,o),
(455,94,cs),
(455,126,o),
(430,150,o),
(397,150,cs),
(321,150,o),
(280,79,o),
(280,-58,c)
);
}
);
width = 562;
},
{
layerId = "7832CF62-1B68-483E-9BF5-FE7E7BF8962B";
shapes = (
{
closed = 1;
nodes = (
(284,-141,l),
(282,-58,l),
(282,79,o),
(224,150,o),
(148,150,cs),
(88,150,o),
(50,110,o),
(50,57,cs),
(50,3,o),
(86,-23,o),
(125,-23,cs),
(169,-23,o),
(191,13,o),
(191,46,cs),
(191,72,o),
(177,103,o),
(153,110,c),
(159,112,o),
(167,112,o),
(169,112,c),
(222,112,o),
(278,48,o),
(278,-50,c)
);
},
{
closed = 1;
nodes = (
(317,-185,l),
(292,-155,o),
(284,-104,o),
(284,-50,cs),
(284,86,o),
(289,126,o),
(301,190,c),
(284,734,l),
(278,734,l),
(261,190,l),
(273,126,o),
(278,86,o),
(278,-50,cs),
(278,-104,o),
(270,-155,o),
(245,-185,c)
);
},
{
closed = 1;
nodes = (
(278,-141,l),
(284,-50,l),
(284,48,o),
(340,112,o),
(393,112,c),
(395,112,o),
(403,112,o),
(409,110,c),
(385,103,o),
(371,72,o),
(371,46,cs),
(371,13,o),
(393,-23,o),
(437,-23,cs),
(476,-23,o),
(512,3,o),
(512,57,cs),
(512,110,o),
(474,150,o),
(414,150,cs),
(338,150,o),
(280,79,o),
(280,-58,c)
);
}
);
width = 562;
}
);
unicode = 8224;
},
{
glyphname = daggerdbl;
layers = (
{
layerId = "01C08534-D445-49A6-949A-C4861B4FF32A";
name = img;
width = 935;
},
{
background = {
shapes = (
{
closed = 1;
nodes = (
(114,623,l),
(583,129,l),
(636,93,o),
(668,68,o),
(764,-28,cs),
(803,-67,o),
(833,-108,o),
(837,-147,c),
(887,-96,l),
(849,-93,o),
(807,-62,o),
(769,-24,cs),
(672,72,o),
(648,104,o),
(611,158,c),
(118,627,l)
);
}
);
};
layerId = "656B38CD-A67B-4E9F-B73E-02DBA5E1D64F";
shapes = (
{
closed = 1;
nodes = (
(109,-93,l),
(166,-33,l),
(263,64,o),
(285,143,o),
(231,197,cs),
(207,221,o),
(173,221,o),
(150,198,cs),
(127,175,o),
(131,149,o),
(147,133,cs),
(166,114,o),
(191,120,o),
(205,134,cs),
(216,145,o),
(223,166,o),
(212,183,c),
(219,182,o),
(223,178,o),
(228,173,cs),
(269,132,o),
(238,45,o),
(169,-25,c)
);
},
{
closed = 1;
nodes = (
(101,-148,l),
(105,-109,o),
(135,-67,o),
(173,-29,cs),
(270,67,o),
(297,96,o),
(351,133,c),
(824,621,l),
(819,626,l),
(331,153,l),
(294,99,o),
(265,72,o),
(169,-25,cs),
(131,-63,o),
(89,-93,o),
(50,-97,c)
);
},
{
closed = 1;
nodes = (
(105,-89,l),
(173,-29,l),
(243,40,o),
(331,71,o),
(371,31,cs),
(376,26,o),
(380,21,o),
(381,14,c),
(364,25,o),
(343,18,o),
(332,7,cs),
(318,-7,o),
(312,-32,o),
(331,-51,cs),
(347,-67,o),
(373,-71,o),
(396,-48,cs),
(419,-25,o),
(419,9,o),
(395,33,cs),
(341,87,o),
(262,65,o),
(165,-32,c)
);
},
{
closed = 1;
nodes = (
(827,-93,l),
(767,-25,l),
(698,45,o),
(667,132,o),
(708,173,cs),
(713,178,o),
(717,182,o),
(724,183,c),
(713,166,o),
(720,145,o),
(731,134,cs),
(745,120,o),
(770,114,o),
(789,133,cs),
(797,141,o),
(802,152,o),
(802,163,cs),
(802,175,o),
(797,187,o),
(786,198,cs),
(763,221,o),
(729,221,o),
(705,197,cs),
(651,143,o),
(673,64,o),
(770,-33,c)
);
},
{
closed = 1;
nodes = (
(585,133,l),
(639,96,o),
(666,67,o),
(763,-29,cs),
(801,-67,o),
(831,-109,o),
(835,-148,c),
(886,-97,l),
(847,-93,o),
(805,-63,o),
(767,-25,cs),
(671,72,o),
(642,99,o),
(605,153,c),
(117,626,l),
(112,621,l)
);
},
{
closed = 1;
nodes = (
(831,-89,l),
(771,-32,l),
(674,65,o),
(595,87,o),
(541,33,cs),
(517,9,o),
(517,-25,o),
(540,-48,cs),
(563,-71,o),
(589,-67,o),
(605,-51,cs),
(624,-32,o),
(618,-7,o),
(604,7,cs),
(593,18,o),
(572,25,o),
(555,14,c),
(556,21,o),
(560,26,o),
(565,31,cs),
(605,71,o),
(693,40,o),
(763,-29,c)
);
}
);
width = 936;
},
{
layerId = "7832CF62-1B68-483E-9BF5-FE7E7BF8962B";
shapes = (
{
closed = 1;
nodes = (
(124,-76,l),
(176,-23,ls),
(260,62,o),
(269,143,o),
(221,190,cs),
(183,228,o),
(135,226,o),
(102,194,c),
(69,160,o),
(75,121,o),
(99,97,cs),
(126,69,o),
(162,78,o),
(183,98,c),
(199,115,o),
(210,143,o),
(199,162,c),
(205,160,o),
(209,155,o),
(211,154,c),
(243,120,o),
(239,46,o),
(177,-15,c)
);
},
{
closed = 1;
nodes = (
(100,-147,l),
(104,-108,o),
(134,-67,o),
(173,-28,cs),
(269,68,o),
(301,93,o),
(354,129,c),
(823,623,l),
(819,627,l),
(326,158,l),
(289,104,o),
(265,72,o),
(168,-24,cs),
(130,-62,o),
(88,-93,o),
(50,-96,c)
);
},
{
closed = 1;
nodes = (
(121,-72,l),
(182,-19,l),
(242,42,o),
(317,47,o),
(350,14,c),
(352,13,o),
(356,8,o),
(359,2,c),
(339,13,o),
(311,2,o),
(295,-13,c),
(275,-34,o),
(266,-70,o),
(294,-97,c),
(317,-122,o),
(356,-128,o),
(390,-95,c),
(423,-61,o),
(424,-13,o),
(387,24,cs),
(339,72,o),
(259,64,o),
(174,-21,c)
);
},
{
closed = 1;
nodes = (
(811,-76,l),
(758,-15,l),
(696,46,o),
(691,121,o),
(724,154,cs),
(726,156,o),
(730,160,o),
(736,162,c),
(725,143,o),
(735,115,o),
(752,98,cs),
(773,77,o),
(809,69,o),
(836,97,cs),
(848,109,o),
(856,126,o),
(856,144,cs),
(856,183,o),
(815,219,o),
(777,219,cs),
(726,219,o),
(685,169,o),
(685,120,cs),
(685,78,o),
(708,28,o),
(759,-23,cs)
);
},
{
closed = 1;
nodes = (
(581,129,l),
(634,93,o),
(666,68,o),
(762,-28,cs),
(801,-67,o),
(831,-108,o),
(835,-147,c),
(885,-96,l),
(847,-93,o),
(805,-62,o),
(767,-24,cs),
(670,72,o),
(646,104,o),
(609,158,c),
(116,627,l),
(112,623,l)
);
},
{
closed = 1;
nodes = (
(814,-72,l),
(761,-21,l),
(676,64,o),
(596,72,o),
(548,24,cs),
(511,-13,o),
(512,-61,o),
(545,-95,c),
(579,-128,o),
(618,-122,o),
(641,-97,c),
(669,-70,o),
(660,-34,o),
(640,-13,c),
(624,2,o),
(596,13,o),
(576,2,c),
(579,8,o),
(583,13,o),
(585,14,c),
(618,47,o),
(693,42,o),
(753,-19,c)
);
}
);
width = 935;
}
);
unicode = 8225;
},
{
glyphname = asciitilde;
layers = (
{
layerId = "01C08534-D445-49A6-949A-C4861B4FF32A";
name = img;
width = 728;
},
{
layerId = "656B38CD-A67B-4E9F-B73E-02DBA5E1D64F";
shapes = (
{
closed = 1;
nodes = (
(74,256,l),
(70,268,o),
(68,281,o),
(68,293,cs),
(68,353,o),
(117,404,o),
(192,404,cs),
(327,404,o),
(398,244,o),
(537,244,cs),
(621,244,o),
(668,304,o),
(668,348,cs),
(668,361,o),
(664,374,o),
(657,383,c),
(651,379,l),
(656,372,o),
(660,360,o),
(660,348,cs),
(660,308,o),
(615,252,o),
(536,252,cs),
(398,252,o),
(330,412,o),
(192,412,cs),
(113,412,o),
(60,357,o),
(60,292,cs),
(60,279,o),
(62,266,o),
(66,254,c)
);
}
);
width = 728;
},
{
layerId = "7832CF62-1B68-483E-9BF5-FE7E7BF8962B";
shapes = (
{
closed = 1;
nodes = (
(74,256,l),
(70,268,o),
(68,281,o),
(68,293,cs),
(68,353,o),
(117,404,o),
(192,404,cs),
(327,404,o),
(398,244,o),
(537,244,cs),
(621,244,o),
(668,304,o),
(668,348,cs),
(668,361,o),
(664,374,o),
(657,383,c),
(651,379,l),
(656,372,o),
(660,360,o),
(660,348,cs),
(660,308,o),
(615,252,o),
(536,252,cs),
(398,252,o),
(330,412,o),
(192,412,cs),
(113,412,o),
(60,357,o),
(60,292,cs),
(60,279,o),
(62,266,o),
(66,254,c)
);
}
);
width = 728;
}
);
unicode = 126;
},
{
glyphname = guilsinglleft;
layers = (
{
layerId = "01C08534-D445-49A6-949A-C4861B4FF32A";
name = img;
width = 314;
},
{
layerId = "656B38CD-A67B-4E9F-B73E-02DBA5E1D64F";
shapes = (
{
closed = 1;
nodes = (
(234,445,l),
(228,451,l),
(80,326,l),
(80,322,l),
(228,197,l),
(234,203,l),
(112,324,l)
);
}
);
width = 314;
},
{
layerId = "7832CF62-1B68-483E-9BF5-FE7E7BF8962B";
shapes = (
{
closed = 1;
nodes = (
(234,445,l),
(228,451,l),
(50,326,l),
(50,322,l),
(228,197,l),
(234,203,l),
(142,324,l)
);
}
);
width = 314;
}
);
unicode = 8249;
},
{
glyphname = guilsinglright;
layers = (
{
layerId = "01C08534-D445-49A6-949A-C4861B4FF32A";
name = img;
width = 314;
},
{
layerId = "656B38CD-A67B-4E9F-B73E-02DBA5E1D64F";
shapes = (
{
closed = 1;
nodes = (
(80,203,l),
(86,197,l),
(234,322,l),
(234,326,l),
(86,451,l),
(80,445,l),
(202,324,l)
);
}
);
width = 314;
},
{
layerId = "7832CF62-1B68-483E-9BF5-FE7E7BF8962B";
shapes = (
{
closed = 1;
nodes = (
(80,203,l),
(86,197,l),
(264,322,l),
(264,326,l),
(86,451,l),
(80,445,l),
(172,324,l)
);
}
);
width = 314;
}
);
unicode = 8250;
},
{
glyphname = guillemotleft;
layers = (
{
layerId = "01C08534-D445-49A6-949A-C4861B4FF32A";
name = img;
width = 465;
},
{
layerId = "656B38CD-A67B-4E9F-B73E-02DBA5E1D64F";
shapes = (
{
closed = 1;
nodes = (
(80,322,l),
(228,197,l),
(234,203,l),
(112,324,l),
(234,445,l),
(228,451,l),
(80,326,l)
);
},
{
closed = 1;
nodes = (
(231,322,l),
(379,197,l),
(385,203,l),
(263,324,l),
(385,445,l),
(379,451,l),
(231,326,l)
);
}
);
width = 465;
},
{
layerId = "7832CF62-1B68-483E-9BF5-FE7E7BF8962B";
shapes = (
{
closed = 1;
nodes = (
(50,322,l),
(228,197,l),
(234,203,l),
(142,324,l),
(234,445,l),
(228,451,l),
(50,326,l)
);
},
{
closed = 1;
nodes = (
(201,322,l),
(379,197,l),
(385,203,l),
(293,324,l),
(385,445,l),
(379,451,l),
(201,326,l)
);
}
);
width = 465;
}
);
unicode = 171;
},
{
glyphname = guillemotright;
layers = (
{
layerId = "01C08534-D445-49A6-949A-C4861B4FF32A";
name = img;
width = 465;
},
{
layerId = "656B38CD-A67B-4E9F-B73E-02DBA5E1D64F";
shapes = (
{
closed = 1;
nodes = (
(231,203,l),
(237,197,l),
(385,322,l),
(385,326,l),
(237,451,l),
(231,445,l),
(353,324,l)
);
},
{
closed = 1;
nodes = (
(80,203,l),
(86,197,l),
(234,322,l),
(234,326,l),
(86,451,l),
(80,445,l),
(202,324,l)
);
}
);
width = 465;
},
{
layerId = "7832CF62-1B68-483E-9BF5-FE7E7BF8962B";
shapes = (
{
closed = 1;
nodes = (
(231,203,l),
(237,197,l),
(415,322,l),
(415,326,l),
(237,451,l),
(231,445,l),
(323,324,l)
);
},
{
closed = 1;
nodes = (
(80,203,l),
(86,197,l),
(264,322,l),
(264,326,l),
(86,451,l),
(80,445,l),
(172,324,l)
);
}
);
width = 465;
}
);
unicode = 187;
},
{
glyphname = breve;
layers = (
{
layerId = "01C08534-D445-49A6-949A-C4861B4FF32A";
name = img;
width = 376;
},
{
layerId = "656B38CD-A67B-4E9F-B73E-02DBA5E1D64F";
shapes = (
{
closed = 1;
nodes = (
(289,876,l),
(276,829,o),
(231,802,o),
(189,802,cs),
(146,802,o),
(99,829,o),
(86,876,c),
(80,866,l),
(89,819,o),
(134,772,o),
(188,772,cs),
(242,772,o),
(287,817,o),
(296,866,c)
);
}
);
width = 376;
},
{
layerId = "7832CF62-1B68-483E-9BF5-FE7E7BF8962B";
shapes = (
{
closed = 1;
nodes = (
(289,876,l),
(276,849,o),
(231,834,o),
(189,834,cs),
(146,834,o),
(99,849,o),
(86,876,c),
(80,866,l),
(89,819,o),
(134,772,o),
(188,772,cs),
(242,772,o),
(287,817,o),
(296,866,c)
);
}
);
width = 376;
}
);
unicode = 728;
},
{
glyphname = dotaccent;
layers = (
{
layerId = "656B38CD-A67B-4E9F-B73E-02DBA5E1D64F";
shapes = (
{
closed = 1;
nodes = (
(132,783,o),
(144,772,o),
(160,772,cs),
(176,772,o),
(188,783,o),
(188,797,cs),
(188,811,o),
(176,822,o),
(160,822,cs),
(144,822,o),
(132,811,o),
(132,797,cs)
);
}
);
width = 320;
},
{
layerId = "7832CF62-1B68-483E-9BF5-FE7E7BF8962B";
shapes = (
{
closed = 1;
nodes = (
(50,815,o),
(98,772,o),
(160,772,cs),
(222,772,o),
(270,815,o),
(270,870,cs),
(270,925,o),
(222,968,o),
(160,968,cs),
(98,968,o),
(50,925,o),
(50,870,cs)
);
}
);
width = 320;
}
);
unicode = 729;
},
{
glyphname = ring;
layers = (
{
layerId = "656B38CD-A67B-4E9F-B73E-02DBA5E1D64F";
shapes = (
{
closed = 1;
nodes = (
(56,815,o),
(102,772,o),
(160,772,cs),
(217,772,o),
(264,815,o),
(264,870,cs),
(264,924,o),
(217,968,o),
(160,968,cs),
(102,968,o),
(56,924,o),
(56,870,cs)
);
},
{
closed = 1;
nodes = (
(213,960,o),
(236,916,o),
(236,872,cs),
(236,826,o),
(210,780,o),
(160,780,cs),
(109,780,o),
(84,825,o),
(84,870,cs),
(84,915,o),
(109,960,o),
(160,960,cs)
);
}
);
width = 320;
},
{
layerId = "7832CF62-1B68-483E-9BF5-FE7E7BF8962B";
shapes = (
{
closed = 1;
nodes = (
(50,815,o),
(99,772,o),
(160,772,cs),
(220,772,o),
(270,815,o),
(270,870,cs),
(270,924,o),
(220,968,o),
(160,968,cs),
(99,968,o),
(50,924,o),
(50,870,cs)
);
},
{
closed = 1;
nodes = (
(192,960,o),
(206,916,o),
(206,872,cs),
(206,826,o),
(190,780,o),
(160,780,cs),
(129,780,o),
(114,825,o),
(114,870,cs),
(114,915,o),
(129,960,o),
(160,960,cs)
);
}
);
width = 320;
}
);
unicode = 730;
},
{
glyphname = hungarumlaut;
layers = (
{
layerId = "01C08534-D445-49A6-949A-C4861B4FF32A";
name = img;
width = 680;
},
{
layerId = "656B38CD-A67B-4E9F-B73E-02DBA5E1D64F";
shapes = (
{
closed = 1;
nodes = (
(148,789,l),
(152,789,l),
(167,796,o),
(308,880,o),
(330,895,cs),
(339,901,o),
(344,908,o),
(344,914,cs),
(344,921,o),
(338,926,o),
(331,926,cs),
(322,926,o),
(313,920,o),
(302,912,cs)
);
},
{
closed = 1;
nodes = (
(332,789,l),
(336,789,l),
(351,796,o),
(492,880,o),
(514,895,cs),
(523,901,o),
(528,908,o),
(528,914,cs),
(528,921,o),
(522,926,o),
(515,926,cs),
(506,926,o),
(496,920,o),
(486,912,cs)
);
}
);
width = 680;
},
{
layerId = "7832CF62-1B68-483E-9BF5-FE7E7BF8962B";
shapes = (
{
closed = 1;
nodes = (
(120,772,l),
(133,772,l),
(181,788,o),
(274,804,o),
(330,838,cs),
(357,855,o),
(375,875,o),
(375,901,cs),
(375,930,o),
(353,952,o),
(315,952,cs),
(277,952,o),
(244,921,o),
(216,887,cs)
);
},
{
closed = 1;
nodes = (
(339,772,l),
(352,772,l),
(400,788,o),
(494,804,o),
(549,838,cs),
(577,855,o),
(594,875,o),
(594,901,cs),
(594,930,o),
(572,952,o),
(534,952,cs),
(496,952,o),
(463,921,o),
(435,887,cs)
);
}
);
width = 680;
}
);
unicode = 733;
},
{
glyphname = ogonek;
layers = (
{
layerId = "01C08534-D445-49A6-949A-C4861B4FF32A";
name = img;
width = 251;
},
{
layerId = "656B38CD-A67B-4E9F-B73E-02DBA5E1D64F";
shapes = (
{
closed = 1;
nodes = (
(137,9,l),
(82,-24,o),
(16,-69,o),
(16,-122,cs),
(16,-162,o),
(38,-192,o),
(84,-192,cs),
(127,-192,o),
(155,-169,o),
(176,-145,c),
(172,-141,l),
(155,-163,o),
(128,-182,o),
(100,-182,cs),
(74,-182,o),
(46,-166,o),
(46,-116,cs),
(46,-63,o),
(97,-17,o),
(146,5,c)
);
}
);
width = 251;
},
{
layerId = "7832CF62-1B68-483E-9BF5-FE7E7BF8962B";
shapes = (
{
closed = 1;
nodes = (
(137,9,l),
(77,-24,o),
(4,-64,o),
(4,-115,cs),
(4,-159,o),
(31,-192,o),
(84,-192,cs),
(127,-192,o),
(155,-169,o),
(176,-145,c),
(170,-139,l),
(159,-153,o),
(143,-163,o),
(125,-163,cs),
(103,-163,o),
(78,-147,o),
(78,-95,cs),
(78,-52,o),
(113,-13,o),
(146,5,c)
);
}
);
width = 251;
}
);
unicode = 731;
},
{
glyphname = caron;
layers = (
{
layerId = "01C08534-D445-49A6-949A-C4861B4FF32A";
name = img;
width = 366;
},
{
layerId = "656B38CD-A67B-4E9F-B73E-02DBA5E1D64F";
shapes = (
{
closed = 1;
nodes = (
(42,937,ls),
(34,945,o),
(26,941,o),
(31,935,cs),
(178,772,l),
(191,772,l),
(335,936,l),
(337,941,o),
(332,945,o),
(325,938,cs),
(183,794,l)
);
}
);
width = 366;
},
{
layerId = "7832CF62-1B68-483E-9BF5-FE7E7BF8962B";
shapes = (
{
closed = 1;
nodes = (
(45,937,l),
(36,944,o),
(27,942,o),
(31,935,c),
(172,772,l),
(197,772,l),
(335,936,l),
(337,941,o),
(330,944,o),
(322,938,c),
(183,855,l)
);
}
);
width = 366;
}
);
unicode = 711;
},
{
glyphname = grave;
layers = (
{
layerId = "01C08534-D445-49A6-949A-C4861B4FF32A";
name = img;
width = 442;
},
{
anchors = (
{
name = _top;
position = "{246, 750}";
}
);
layerId = "656B38CD-A67B-4E9F-B73E-02DBA5E1D64F";
shapes = (
{
closed = 1;
nodes = (
(344,789,l),
(190,912,ls),
(179,920,o),
(170,926,o),
(161,926,cs),
(154,926,o),
(148,921,o),
(148,914,cs),
(148,908,o),
(153,901,o),
(162,895,cs),
(184,880,o),
(325,796,o),
(340,789,c)
);
}
);
width = 442;
},
{
anchors = (
{
name = _top;
position = "{247, 751}";
}
);
layerId = "7832CF62-1B68-483E-9BF5-FE7E7BF8962B";
shapes = (
{
closed = 1;
nodes = (
(375,772,l),
(279,887,ls),
(251,921,o),
(219,952,o),
(178,952,cs),
(143,952,o),
(120,930,o),
(120,901,cs),
(120,878,o),
(134,859,o),
(156,844,cs),
(210,806,o),
(311,788,o),
(362,772,c)
);
}
);
width = 442;
}
);
unicode = 96;
},
{
glyphname = circumflex;
layers = (
{
layerId = "01C08534-D445-49A6-949A-C4861B4FF32A";
name = img;
width = 366;
},
{
anchors = (
{
name = _top;
position = "{182, 750}";
}
);
layerId = "656B38CD-A67B-4E9F-B73E-02DBA5E1D64F";
shapes = (
{
closed = 1;
nodes = (
(31,775,ls),
(26,769,o),
(34,765,o),
(42,773,cs),
(183,916,l),
(325,772,ls),
(332,765,o),
(337,769,o),
(335,774,c),
(191,938,l),
(178,938,l)
);
}
);
width = 366;
},
{
anchors = (
{
name = _top;
position = "{183, 752}";
}
);
guides = (
{
angle = 90;
position = "{183, 0}";
}
);
layerId = "7832CF62-1B68-483E-9BF5-FE7E7BF8962B";
shapes = (
{
closed = 1;
nodes = (
(31,775,ls),
(26,769,o),
(35,767,o),
(45,773,cs),
(183,855,l),
(322,772,ls),
(331,767,o),
(338,770,o),
(335,774,cs),
(197,938,l),
(172,938,l)
);
}
);
width = 366;
}
);
unicode = 710;
},
{
glyphname = dieresis;
layers = (
{
anchors = (
{
name = _top;
position = "{269, 750}";
}
);
layerId = "656B38CD-A67B-4E9F-B73E-02DBA5E1D64F";
shapes = (
{
closed = 1;
nodes = (
(147,783,o),
(159,772,o),
(175,772,cs),
(191,772,o),
(203,783,o),
(203,797,cs),
(203,811,o),
(191,822,o),
(175,822,cs),
(159,822,o),
(147,811,o),
(147,797,cs)
);
},
{
closed = 1;
nodes = (
(335,783,o),
(347,772,o),
(363,772,cs),
(379,772,o),
(391,783,o),
(391,797,cs),
(391,811,o),
(379,822,o),
(363,822,cs),
(347,822,o),
(335,811,o),
(335,797,cs)
);
}
);
width = 538;
},
{
anchors = (
{
name = _top;
position = "{291, 751}";
}
);
guides = (
{
angle = 90;
position = "{291, 0}";
}
);
layerId = "7832CF62-1B68-483E-9BF5-FE7E7BF8962B";
shapes = (
{
closed = 1;
nodes = (
(77,810,o),
(120,772,o),
(175,772,cs),
(230,772,o),
(272,810,o),
(272,859,cs),
(272,908,o),
(230,946,o),
(175,946,cs),
(120,946,o),
(77,908,o),
(77,859,cs)
);
},
{
closed = 1;
nodes = (
(309,810,o),
(351,772,o),
(406,772,cs),
(461,772,o),
(504,810,o),
(504,859,cs),
(504,908,o),
(461,946,o),
(406,946,cs),
(351,946,o),
(309,908,o),
(309,859,cs)
);
}
);
width = 581;
}
);
unicode = 168;
},
{
glyphname = acute;
layers = (
{
layerId = "01C08534-D445-49A6-949A-C4861B4FF32A";
name = img;
width = 442;
},
{
anchors = (
{
name = _top;
position = "{239, 750}";
}
);
layerId = "656B38CD-A67B-4E9F-B73E-02DBA5E1D64F";
shapes = (
{
closed = 1;
nodes = (
(148,789,l),
(152,789,l),
(167,796,o),
(308,880,o),
(330,895,cs),
(339,901,o),
(344,908,o),
(344,914,cs),
(344,921,o),
(338,926,o),
(331,926,cs),
(322,926,o),
(313,920,o),
(302,912,cs)
);
}
);
width = 442;
},
{
anchors = (
{
name = _top;
position = "{202, 750}";
}
);
layerId = "7832CF62-1B68-483E-9BF5-FE7E7BF8962B";
shapes = (
{
closed = 1;
nodes = (
(120,773,l),
(133,773,l),
(181,789,o),
(274,805,o),
(330,839,cs),
(357,856,o),
(375,876,o),
(375,902,cs),
(375,931,o),
(353,953,o),
(315,953,cs),
(277,953,o),
(244,922,o),
(216,888,cs)
);
}
);
width = 442;
}
);
unicode = 180;
},
{
glyphname = cedilla;
layers = (
{
layerId = "01C08534-D445-49A6-949A-C4861B4FF32A";
name = img;
width = 267;
},
{
layerId = "656B38CD-A67B-4E9F-B73E-02DBA5E1D64F";
shapes = (
{
closed = 1;
nodes = (
(56,-227,l),
(67,-238,o),
(84,-243,o),
(106,-243,cs),
(155,-243,o),
(196,-206,o),
(196,-147,cs),
(196,-95,o),
(162,-64,o),
(106,-64,cs),
(84,-64,o),
(63,-76,o),
(61,-78,c),
(136,21,l),
(129,23,l),
(52,-78,l),
(52,-91,l),
(59,-91,l),
(68,-82,o),
(82,-72,o),
(102,-72,cs),
(145,-72,o),
(167,-110,o),
(167,-147,cs),
(167,-187,o),
(140,-236,o),
(95,-236,cs),
(79,-236,o),
(65,-230,o),
(59,-223,c)
);
}
);
width = 267;
},
{
layerId = "7832CF62-1B68-483E-9BF5-FE7E7BF8962B";
shapes = (
{
closed = 1;
nodes = (
(50,-232,l),
(61,-244,o),
(79,-249,o),
(101,-249,cs),
(162,-249,o),
(211,-210,o),
(211,-147,cs),
(211,-94,o),
(176,-62,o),
(120,-62,cs),
(91,-62,o),
(65,-71,o),
(63,-74,c),
(136,21,l),
(125,23,l),
(48,-78,l),
(48,-91,l),
(59,-91,l),
(66,-83,o),
(78,-75,o),
(95,-75,cs),
(131,-75,o),
(149,-111,o),
(149,-147,cs),
(149,-188,o),
(126,-238,o),
(85,-238,cs),
(72,-238,o),
(59,-233,o),
(55,-225,c)
);
}
);
width = 267;
}
);
unicode = 184;
},
{
glyphname = a;
layers = (
{
background = {
shapes = (
{
closed = 1;
nodes = (
(338,251,o),
(386,203,o),
(446,203,cs),
(506,203,o),
(555,251,o),
(555,311,cs),
(555,371,o),
(506,420,o),
(446,420,cs),
(386,420,o),
(338,371,o),
(338,311,cs)
);
}
);
};
layerId = "656B38CD-A67B-4E9F-B73E-02DBA5E1D64F";
shapes = (
{
closed = 1;
nodes = (
(380,0,l),
(600,0,l),
(600,5,l),
(526,12,o),
(513,5,o),
(479,114,cs),
(303,676,l),
(168,676,l),
(168,671,l),
(279,662,o),
(279,668,o),
(293,624,cs),
(455,106,ls),
(484,12,o),
(471,12,o),
(380,5,c)
);
},
{
closed = 1;
nodes = (
(164,289,l),
(407,289,l),
(405,297,l),
(168,297,l)
);
},
{
closed = 1;
nodes = (
(-25,0,l),
(202,0,l),
(202,5,l),
(89,12,o),
(81,19,o),
(113,118,cs),
(284,654,l),
(279,666,l),
(108,127,ls),
(73,16,o),
(71,12,o),
(-25,5,c)
);
}
);
width = 575;
},
{
layerId = "7832CF62-1B68-483E-9BF5-FE7E7BF8962B";
shapes = (
{
closed = 1;
nodes = (
(317,0,l),
(717,0,l),
(717,8,l),
(690,8,o),
(655,28,o),
(625,114,cs),
(431,676,l),
(119,676,l),
(119,668,l),
(199,668,o),
(219,636,o),
(238,580,cs),
(391,129,ls),
(426,25,o),
(394,8,o),
(317,8,c)
);
},
{
closed = 1;
nodes = (
(149,301,l),
(374,301,l),
(370,311,l),
(153,311,l)
);
},
{
closed = 1;
nodes = (
(-60,0,l),
(247,0,l),
(247,8,l),
(89,8,o),
(115,193,o),
(149,292,cs),
(249,580,l),
(243,592,l),
(134,278,ls),
(112,211,o),
(36,8,o),
(-60,8,c)
);
}
);
width = 671;
}
);
leftKerningGroup = A;
rightKerningGroup = A;
unicode = 97;
},
{
glyphname = b;
layers = (
{
layerId = "656B38CD-A67B-4E9F-B73E-02DBA5E1D64F";
leftMetricsKey = h;
shapes = (
{
closed = 1;
nodes = (
(30,0,l),
(162,0,l),
(162,349,l),
(243,349,ls),
(373,349,o),
(456,433,o),
(456,522,cs),
(456,613,o),
(368,676,o),
(235,676,cs),
(30,676,l),
(30,671,l),
(110,664,o),
(137,672,o),
(137,614,cs),
(137,62,ls,{name = hr02;}),
(137,4,o),
(110,12,o),
(30,5,c)
);
},
{
closed = 1;
nodes = (
(162,357,l),
(162,668,l),
(226,668,ls),
(373,668,o),
(426,597,o),
(426,511,cs),
(426,445,o),
(392,357,o),
(238,357,cs)
);
},
{
closed = 1;
nodes = (
(134,8,l),
(131,0,l),
(276,0,ls),
(402,0,o),
(494,80,o),
(494,180,cs),
(494,277,o),
(407,348,o),
(271,355,cs),
(230,357,l),
(239,349,l),
(421,349,o),
(464,259,o),
(464,178,cs),
(464,88,o),
(400,8,o),
(253,8,cs)
);
}
);
width = 524;
},
{
layerId = "7832CF62-1B68-483E-9BF5-FE7E7BF8962B";
shapes = (
{
closed = 1;
nodes = (
(2,0,l),
(326,0,l),
(326,349,l),
(390,349,ls),
(568,349,o),
(670,432,o),
(670,523,cs),
(670,604,o),
(590,676,o),
(435,676,cs),
(2,676,l),
(2,668,l),
(82,668,o),
(109,639,o),
(109,581,cs),
(109,95,ls),
(109,37,o),
(82,8,o),
(2,8,c)
);
},
{
closed = 1;
nodes = (
(326,358,l),
(326,667,l),
(359,667,ls),
(426,667,o),
(455,595,o),
(455,519,cs),
(455,439,o),
(423,358,o),
(360,358,cs)
);
},
{
closed = 1;
nodes = (
(303,10,l),
(303,0,l),
(417,0,ls),
(618,0,o),
(689,89,o),
(689,177,cs),
(689,279,o),
(573,345,o),
(400,356,cs),
(370,358,l),
(338,349,l),
(439,349,o),
(468,272,o),
(468,189,cs),
(468,112,o),
(443,10,o),
(369,10,cs)
);
}
);
width = 689;
}
);
rightKerningGroup = O;
unicode = 98;
},
